solid 
 facet normal  0.000000e+00  0.000000e+00 -1.000000e+00
   outer loop
     vertex -5.096709e-01 -3.754164e-01  0.000000e+00
     vertex -4.082276e-01 -4.803785e-01  0.000000e+00
     vertex -4.097553e-01 -4.841397e-01  0.000000e+00
   endloop
 endfacet
 facet normal -0.000000e+00  0.000000e+00 -1.000000e+00
   outer loop
     vertex -2.857080e-01 -5.597303e-01  0.000000e+00
     vertex -2.870425e-01 -5.662705e-01  0.000000e+00
     vertex -4.097553e-01 -4.841397e-01  0.000000e+00
   endloop
 endfacet
 facet normal  0.000000e+00  0.000000e+00 -1.000000e+00
   outer loop
     vertex -2.857080e-01 -5.597303e-01  0.000000e+00
     vertex -4.097553e-01 -4.841397e-01  0.000000e+00
     vertex -4.082276e-01 -4.803785e-01  0.000000e+00
   endloop
 endfacet
 facet normal -0.000000e+00 -0.000000e+00 -1.000000e+00
   outer loop
     vertex -1.484375e-01 -6.093750e-01  0.000000e+00
     vertex -1.484375e-01 -6.171875e-01  0.000000e+00
     vertex -2.870425e-01 -5.662705e-01  0.000000e+00
   endloop
 endfacet
 facet normal  0.000000e+00  0.000000e+00 -1.000000e+00
   outer loop
     vertex -1.484375e-01 -6.093750e-01  0.000000e+00
     vertex -2.870425e-01 -5.662705e-01  0.000000e+00
     vertex -2.857080e-01 -5.597303e-01  0.000000e+00
   endloop
 endfacet
 facet normal  0.000000e+00 -0.000000e+00 -1.000000e+00
   outer loop
     vertex -5.096709e-01 -3.754164e-01  0.000000e+00
     vertex -4.826880e-01 -5.762863e-01  0.000000e+00
     vertex -6.111329e-01 -4.413764e-01  0.000000e+00
   endloop
 endfacet
 facet normal  0.000000e+00  0.000000e+00 -1.000000e+00
   outer loop
     vertex -5.096709e-01 -3.754164e-01  0.000000e+00
     vertex -4.097553e-01 -4.841397e-01  0.000000e+00
     vertex -4.826880e-01 -5.762863e-01  0.000000e+00
   endloop
 endfacet
 facet normal  0.000000e+00  0.000000e+00 -1.000000e+00
   outer loop
     vertex -2.870425e-01 -5.662705e-01  0.000000e+00
     vertex -3.253119e-01 -6.759436e-01  0.000000e+00
     vertex -4.826880e-01 -5.762863e-01  0.000000e+00
   endloop
 endfacet
 facet normal -0.000000e+00  0.000000e+00 -1.000000e+00
   outer loop
     vertex -2.870425e-01 -5.662705e-01  0.000000e+00
     vertex -4.826880e-01 -5.762863e-01  0.000000e+00
     vertex -4.097553e-01 -4.841397e-01  0.000000e+00
   endloop
 endfacet
 facet normal  0.000000e+00  0.000000e+00 -1.000000e+00
   outer loop
     vertex -5.878424e-01 -2.434695e-01  0.000000e+00
     vertex -6.111329e-01 -4.413764e-01  0.000000e+00
     vertex -7.029481e-01 -2.792999e-01  0.000000e+00
   endloop
 endfacet
 facet normal  0.000000e+00 -0.000000e+00 -1.000000e+00
   outer loop
     vertex -5.878424e-01 -2.434695e-01  0.000000e+00
     vertex -5.096709e-01 -3.754164e-01  0.000000e+00
     vertex -6.111329e-01 -4.413764e-01  0.000000e+00
   endloop
 endfacet
 facet normal  0.000000e+00 -0.000000e+00 -1.000000e+00
   outer loop
     vertex -1.484375e-01 -6.171875e-01  0.000000e+00
     vertex -1.484375e-01 -7.343750e-01  0.000000e+00
     vertex -3.253119e-01 -6.759436e-01  0.000000e+00
   endloop
 endfacet
 facet normal -0.000000e+00  0.000000e+00 -1.000000e+00
   outer loop
     vertex -1.484375e-01 -6.171875e-01  0.000000e+00
     vertex -3.253119e-01 -6.759436e-01  0.000000e+00
     vertex -2.870425e-01 -5.662705e-01  0.000000e+00
   endloop
 endfacet
 facet normal  0.000000e+00  0.000000e+00 -1.000000e+00
   outer loop
     vertex -6.325121e-01 -9.675405e-02  0.000000e+00
     vertex -7.029481e-01 -2.792999e-01  0.000000e+00
     vertex -7.526303e-01 -9.977145e-02  0.000000e+00
   endloop
 endfacet
 facet normal  0.000000e+00 -0.000000e+00 -1.000000e+00
   outer loop
     vertex -6.325121e-01 -9.675405e-02  0.000000e+00
     vertex -5.878424e-01 -2.434695e-01  0.000000e+00
     vertex -7.029481e-01 -2.792999e-01  0.000000e+00
   endloop
 endfacet
 facet normal -0.000000e+00  0.000000e+00 -1.000000e+00
   outer loop
     vertex -6.411343e-01  5.636830e-02  0.000000e+00
     vertex -7.526303e-01 -9.977145e-02  0.000000e+00
     vertex -7.572017e-01  8.644857e-02  0.000000e+00
   endloop
 endfacet
 facet normal  0.000000e+00 -0.000000e+00 -1.000000e+00
   outer loop
     vertex -6.411343e-01  5.636830e-02  0.000000e+00
     vertex -6.325121e-01 -9.675405e-02  0.000000e+00
     vertex -7.526303e-01 -9.977145e-02  0.000000e+00
   endloop
 endfacet
 facet normal -0.000000e+00  0.000000e+00 -1.000000e+00
   outer loop
     vertex -6.132175e-01  2.071710e-01  0.000000e+00
     vertex -7.572017e-01  8.644857e-02  0.000000e+00
     vertex -7.163884e-01  2.681986e-01  0.000000e+00
   endloop
 endfacet
 facet normal  0.000000e+00  0.000000e+00 -1.000000e+00
   outer loop
     vertex -6.132175e-01  2.071710e-01  0.000000e+00
     vertex -6.411343e-01  5.636830e-02  0.000000e+00
     vertex -7.572017e-01  8.644857e-02  0.000000e+00
   endloop
 endfacet
 facet normal  0.000000e+00  0.000000e+00 -1.000000e+00
   outer loop
     vertex  2.200890e-01 -5.920649e-01  0.000000e+00
     vertex  1.484375e-01 -7.343750e-01  0.000000e+00
     vertex  1.484375e-01 -6.149259e-01  0.000000e+00
   endloop
 endfacet
 facet normal -0.000000e+00  0.000000e+00 -1.000000e+00
   outer loop
     vertex  3.253119e-01 -6.759436e-01  0.000000e+00
     vertex  1.484375e-01 -7.343750e-01  0.000000e+00
     vertex  2.200890e-01 -5.920649e-01  0.000000e+00
   endloop
 endfacet
 facet normal  0.000000e+00 -0.000000e+00 -1.000000e+00
   outer loop
     vertex  2.884606e-01 -5.607296e-01  0.000000e+00
     vertex  3.253119e-01 -6.759436e-01  0.000000e+00
     vertex  2.200890e-01 -5.920649e-01  0.000000e+00
   endloop
 endfacet
 facet normal  0.000000e+00  0.000000e+00 -1.000000e+00
   outer loop
     vertex -5.503527e-01  3.470596e-01  0.000000e+00
     vertex -6.132175e-01  2.071710e-01  0.000000e+00
     vertex -7.163884e-01  2.681986e-01  0.000000e+00
   endloop
 endfacet
 facet normal  0.000000e+00 -0.000000e+00 -1.000000e+00
   outer loop
     vertex -6.326366e-01  4.345849e-01  0.000000e+00
     vertex -5.503527e-01  3.470596e-01  0.000000e+00
     vertex -7.163884e-01  2.681986e-01  0.000000e+00
   endloop
 endfacet
 facet normal  0.000000e+00  0.000000e+00 -1.000000e+00
   outer loop
     vertex  3.525540e-01 -5.213774e-01  0.000000e+00
     vertex  3.253119e-01 -6.759436e-01  0.000000e+00
     vertex  2.884606e-01 -5.607296e-01  0.000000e+00
   endloop
 endfacet
 facet normal -0.000000e+00  0.000000e+00 -1.000000e+00
   outer loop
     vertex  4.826880e-01 -5.762863e-01  0.000000e+00
     vertex  3.253119e-01 -6.759436e-01  0.000000e+00
     vertex  3.525540e-01 -5.213774e-01  0.000000e+00
   endloop
 endfacet
 facet normal  0.000000e+00  0.000000e+00 -1.000000e+00
   outer loop
     vertex -4.561227e-01  4.680617e-01  0.000000e+00
     vertex -5.503527e-01  3.470596e-01  0.000000e+00
     vertex -6.326366e-01  4.345849e-01  0.000000e+00
   endloop
 endfacet
 facet normal  0.000000e+00 -0.000000e+00 -1.000000e+00
   outer loop
     vertex  4.697985e-01 -4.225112e-01  0.000000e+00
     vertex  4.826880e-01 -5.762863e-01  0.000000e+00
     vertex  3.525540e-01 -5.213774e-01  0.000000e+00
   endloop
 endfacet
 facet normal  0.000000e+00 -0.000000e+00 -1.000000e+00
   outer loop
     vertex -5.109661e-01  5.756349e-01  0.000000e+00
     vertex -4.561227e-01  4.680617e-01  0.000000e+00
     vertex -6.326366e-01  4.345849e-01  0.000000e+00
   endloop
 endfacet
 facet normal -0.000000e+00  0.000000e+00 -1.000000e+00
   outer loop
     vertex  6.111329e-01 -4.413764e-01  0.000000e+00
     vertex  4.826880e-01 -5.762863e-01  0.000000e+00
     vertex  4.697985e-01 -4.225112e-01  0.000000e+00
   endloop
 endfacet
 facet normal -0.000000e+00  0.000000e+00 -1.000000e+00
   outer loop
     vertex -3.358978e-01  5.632812e-01  0.000000e+00
     vertex -4.561227e-01  4.680617e-01  0.000000e+00
     vertex -5.109661e-01  5.756349e-01  0.000000e+00
   endloop
 endfacet
 facet normal  0.000000e+00 -0.000000e+00 -1.000000e+00
   outer loop
     vertex  5.602687e-01 -2.986728e-01  0.000000e+00
     vertex  6.111329e-01 -4.413764e-01  0.000000e+00
     vertex  4.697985e-01 -4.225112e-01  0.000000e+00
   endloop
 endfacet
 facet normal  0.000000e+00 -0.000000e+00 -1.000000e+00
   outer loop
     vertex -3.586695e-01  6.828942e-01  0.000000e+00
     vertex -3.358978e-01  5.632812e-01  0.000000e+00
     vertex -5.109661e-01  5.756349e-01  0.000000e+00
   endloop
 endfacet
 facet normal  0.000000e+00  0.000000e+00 -1.000000e+00
   outer loop
     vertex  7.029481e-01 -2.792999e-01  0.000000e+00
     vertex  6.111329e-01 -4.413764e-01  0.000000e+00
     vertex  5.602687e-01 -2.986728e-01  0.000000e+00
   endloop
 endfacet
 facet normal -0.000000e+00  0.000000e+00 -1.000000e+00
   outer loop
     vertex -1.965297e-01  6.272916e-01  0.000000e+00
     vertex -3.358978e-01  5.632812e-01  0.000000e+00
     vertex -3.586695e-01  6.828942e-01  0.000000e+00
   endloop
 endfacet
 facet normal  0.000000e+00 -0.000000e+00 -1.000000e+00
   outer loop
     vertex  6.188085e-01 -1.569199e-01  0.000000e+00
     vertex  7.029481e-01 -2.792999e-01  0.000000e+00
     vertex  5.602687e-01 -2.986728e-01  0.000000e+00
   endloop
 endfacet
 facet normal  0.000000e+00  0.000000e+00 -1.000000e+00
   outer loop
     vertex -1.848752e-01  7.499340e-01  0.000000e+00
     vertex -1.965297e-01  6.272916e-01  0.000000e+00
     vertex -3.586695e-01  6.828942e-01  0.000000e+00
   endloop
 endfacet
 facet normal -0.000000e+00  0.000000e+00 -1.000000e+00
   outer loop
     vertex -4.596117e-02  6.564447e-01  0.000000e+00
     vertex -1.965297e-01  6.272916e-01  0.000000e+00
     vertex -1.848752e-01  7.499340e-01  0.000000e+00
   endloop
 endfacet
 facet normal  0.000000e+00  0.000000e+00 -1.000000e+00
   outer loop
     vertex  7.526303e-01 -9.977145e-02  0.000000e+00
     vertex  7.029481e-01 -2.792999e-01  0.000000e+00
     vertex  6.188085e-01 -1.569199e-01  0.000000e+00
   endloop
 endfacet
 facet normal -0.000000e+00  0.000000e+00 -1.000000e+00
   outer loop
     vertex  7.526303e-01 -9.977145e-02  0.000000e+00
     vertex  6.188085e-01 -1.569199e-01  0.000000e+00
     vertex  6.420817e-01 -5.331184e-03  0.000000e+00
   endloop
 endfacet
 facet normal  0.000000e+00  0.000000e+00 -1.000000e+00
   outer loop
     vertex  1.762479e-15  7.727362e-01  0.000000e+00
     vertex -4.596117e-02  6.564447e-01  0.000000e+00
     vertex -1.848752e-01  7.499340e-01  0.000000e+00
   endloop
 endfacet
 facet normal  0.000000e+00 -0.000000e+00 -1.000000e+00
   outer loop
     vertex  1.762479e-15  7.727362e-01  0.000000e+00
     vertex  1.072268e-01  6.490791e-01  0.000000e+00
     vertex -4.596117e-02  6.564447e-01  0.000000e+00
   endloop
 endfacet
 facet normal  0.000000e+00  0.000000e+00 -1.000000e+00
   outer loop
     vertex  7.572017e-01  8.644857e-02  0.000000e+00
     vertex  7.526303e-01 -9.977145e-02  0.000000e+00
     vertex  6.420817e-01 -5.331184e-03  0.000000e+00
   endloop
 endfacet
 facet normal -0.000000e+00  0.000000e+00 -1.000000e+00
   outer loop
     vertex  7.572017e-01  8.644857e-02  0.000000e+00
     vertex  6.420817e-01 -5.331184e-03  0.000000e+00
     vertex  6.287620e-01  1.474542e-01  0.000000e+00
   endloop
 endfacet
 facet normal  0.000000e+00 -0.000000e+00 -1.000000e+00
   outer loop
     vertex  1.848752e-01  7.499340e-01  0.000000e+00
     vertex  2.543037e-01  6.056146e-01  0.000000e+00
     vertex  1.072268e-01  6.490791e-01  0.000000e+00
   endloop
 endfacet
 facet normal -0.000000e+00  0.000000e+00 -1.000000e+00
   outer loop
     vertex  1.848752e-01  7.499340e-01  0.000000e+00
     vertex  1.072268e-01  6.490791e-01  0.000000e+00
     vertex  1.762479e-15  7.727362e-01  0.000000e+00
   endloop
 endfacet
 facet normal  0.000000e+00 -0.000000e+00 -1.000000e+00
   outer loop
     vertex  7.163884e-01  2.681986e-01  0.000000e+00
     vertex  7.572017e-01  8.644857e-02  0.000000e+00
     vertex  6.287620e-01  1.474542e-01  0.000000e+00
   endloop
 endfacet
 facet normal -0.000000e+00  0.000000e+00 -1.000000e+00
   outer loop
     vertex  7.163884e-01  2.681986e-01  0.000000e+00
     vertex  6.287620e-01  1.474542e-01  0.000000e+00
     vertex  5.796085e-01  2.927289e-01  0.000000e+00
   endloop
 endfacet
 facet normal -0.000000e+00  0.000000e+00 -1.000000e+00
   outer loop
     vertex  3.586695e-01  6.828942e-01  0.000000e+00
     vertex  2.543037e-01  6.056146e-01  0.000000e+00
     vertex  1.848752e-01  7.499340e-01  0.000000e+00
   endloop
 endfacet
 facet normal  0.000000e+00 -0.000000e+00 -1.000000e+00
   outer loop
     vertex  3.586695e-01  6.828942e-01  0.000000e+00
     vertex  3.868876e-01  5.285283e-01  0.000000e+00
     vertex  2.543037e-01  6.056146e-01  0.000000e+00
   endloop
 endfacet
 facet normal  0.000000e+00  0.000000e+00 -1.000000e+00
   outer loop
     vertex  6.326366e-01  4.345849e-01  0.000000e+00
     vertex  5.796085e-01  2.927289e-01  0.000000e+00
     vertex  4.974224e-01  4.222134e-01  0.000000e+00
   endloop
 endfacet
 facet normal  0.000000e+00 -0.000000e+00 -1.000000e+00
   outer loop
     vertex  6.326366e-01  4.345849e-01  0.000000e+00
     vertex  7.163884e-01  2.681986e-01  0.000000e+00
     vertex  5.796085e-01  2.927289e-01  0.000000e+00
   endloop
 endfacet
 facet normal  0.000000e+00  0.000000e+00 -1.000000e+00
   outer loop
     vertex  5.109661e-01  5.756349e-01  0.000000e+00
     vertex  4.974224e-01  4.222134e-01  0.000000e+00
     vertex  3.868876e-01  5.285283e-01  0.000000e+00
   endloop
 endfacet
 facet normal -0.000000e+00  0.000000e+00 -1.000000e+00
   outer loop
     vertex  5.109661e-01  5.756349e-01  0.000000e+00
     vertex  3.868876e-01  5.285283e-01  0.000000e+00
     vertex  3.586695e-01  6.828942e-01  0.000000e+00
   endloop
 endfacet
 facet normal  0.000000e+00 -0.000000e+00 -1.000000e+00
   outer loop
     vertex  5.109661e-01  5.756349e-01  0.000000e+00
     vertex  6.326366e-01  4.345849e-01  0.000000e+00
     vertex  4.974224e-01  4.222134e-01  0.000000e+00
   endloop
 endfacet
 facet normal  0.000000e+00  0.000000e+00 -1.000000e+00
   outer loop
     vertex  1.484375e-01 -6.093750e-01  0.000000e+00
     vertex  1.484375e-01 -6.149259e-01  0.000000e+00
     vertex  1.453712e-01 -6.156953e-01  0.000000e+00
   endloop
 endfacet
 facet normal  0.000000e+00  0.000000e+00 -1.000000e+00
   outer loop
     vertex  1.484375e-01 -6.093750e-01  0.000000e+00
     vertex  1.453712e-01 -6.156953e-01  0.000000e+00
     vertex  1.423010e-01 -6.164492e-01  0.000000e+00
   endloop
 endfacet
 facet normal  0.000000e+00  0.000000e+00 -1.000000e+00
   outer loop
     vertex  1.484375e-01 -6.093750e-01  0.000000e+00
     vertex  1.423010e-01 -6.164492e-01  0.000000e+00
     vertex  1.392270e-01 -6.171875e-01  0.000000e+00
   endloop
 endfacet
 facet normal  0.000000e+00  0.000000e+00 -1.000000e+00
   outer loop
     vertex -1.484375e-01 -1.333882e-01  0.000000e+00
     vertex -5.096709e-01 -3.754164e-01  0.000000e+00
     vertex -5.837021e-01 -2.398921e-01  0.000000e+00
   endloop
 endfacet
 facet normal  0.000000e+00  0.000000e+00 -1.000000e+00
   outer loop
     vertex -1.484375e-01 -1.333882e-01  0.000000e+00
     vertex -4.082276e-01 -4.803785e-01  0.000000e+00
     vertex -5.096709e-01 -3.754164e-01  0.000000e+00
   endloop
 endfacet
 facet normal  0.000000e+00  0.000000e+00 -1.000000e+00
   outer loop
     vertex -1.484375e-01 -1.333882e-01  0.000000e+00
     vertex -2.857080e-01 -5.597303e-01  0.000000e+00
     vertex -4.082276e-01 -4.803785e-01  0.000000e+00
   endloop
 endfacet
 facet normal  0.000000e+00 -0.000000e+00 -1.000000e+00
   outer loop
     vertex -1.484375e-01 -1.333882e-01  0.000000e+00
     vertex -1.484375e-01 -6.093750e-01  0.000000e+00
     vertex -2.857080e-01 -5.597303e-01  0.000000e+00
   endloop
 endfacet
 facet normal  0.000000e+00  0.000000e+00 -1.000000e+00
   outer loop
     vertex -1.914355e-01 -5.571780e-02  0.000000e+00
     vertex -5.837021e-01 -2.398921e-01  0.000000e+00
     vertex -6.220944e-01 -9.031441e-02  0.000000e+00
   endloop
 endfacet
 facet normal  0.000000e+00 -0.000000e+00 -1.000000e+00
   outer loop
     vertex -1.914355e-01 -5.571780e-02  0.000000e+00
     vertex -1.484375e-01 -1.333882e-01  0.000000e+00
     vertex -5.837021e-01 -2.398921e-01  0.000000e+00
   endloop
 endfacet
 facet normal -0.000000e+00  0.000000e+00 -1.000000e+00
   outer loop
     vertex -1.953563e-01  3.297347e-02  0.000000e+00
     vertex -6.220944e-01 -9.031441e-02  0.000000e+00
     vertex -6.224852e-01  6.411132e-02  0.000000e+00
   endloop
 endfacet
 facet normal  0.000000e+00  0.000000e+00 -1.000000e+00
   outer loop
     vertex -1.953563e-01  3.297347e-02  0.000000e+00
     vertex -6.224852e-01  6.411132e-02  0.000000e+00
     vertex -5.848504e-01  2.138814e-01  0.000000e+00
   endloop
 endfacet
 facet normal  0.000000e+00 -0.000000e+00 -1.000000e+00
   outer loop
     vertex -1.953563e-01  3.297347e-02  0.000000e+00
     vertex -1.914355e-01 -5.571780e-02  0.000000e+00
     vertex -6.220944e-01 -9.031441e-02  0.000000e+00
   endloop
 endfacet
 facet normal  0.000000e+00  0.000000e+00 -1.000000e+00
   outer loop
     vertex -1.593799e-01  1.141351e-01  0.000000e+00
     vertex -5.848504e-01  2.138814e-01  0.000000e+00
     vertex -5.115061e-01  3.497787e-01  0.000000e+00
   endloop
 endfacet
 facet normal -0.000000e+00  0.000000e+00 -1.000000e+00
   outer loop
     vertex -1.593799e-01  1.141351e-01  0.000000e+00
     vertex -1.953563e-01  3.297347e-02  0.000000e+00
     vertex -5.848504e-01  2.138814e-01  0.000000e+00
   endloop
 endfacet
 facet normal  0.000000e+00  0.000000e+00 -1.000000e+00
   outer loop
     vertex  1.392270e-01 -1.333882e-01  0.000000e+00
     vertex  2.197312e-01 -5.880128e-01  0.000000e+00
     vertex  1.484375e-01 -6.093750e-01  0.000000e+00
   endloop
 endfacet
 facet normal  0.000000e+00  0.000000e+00 -1.000000e+00
   outer loop
     vertex  1.392270e-01 -1.333882e-01  0.000000e+00
     vertex  2.880758e-01 -5.585485e-01  0.000000e+00
     vertex  2.197312e-01 -5.880128e-01  0.000000e+00
   endloop
 endfacet
 facet normal  0.000000e+00  0.000000e+00 -1.000000e+00
   outer loop
     vertex  1.392270e-01 -1.333882e-01  0.000000e+00
     vertex  3.525540e-01 -5.213774e-01  0.000000e+00
     vertex  2.880758e-01 -5.585485e-01  0.000000e+00
   endloop
 endfacet
 facet normal -0.000000e+00  0.000000e+00 -1.000000e+00
   outer loop
     vertex  4.670663e-01 -4.177704e-01  0.000000e+00
     vertex  3.525540e-01 -5.213774e-01  0.000000e+00
     vertex  1.392270e-01 -1.333882e-01  0.000000e+00
   endloop
 endfacet
 facet normal  0.000000e+00 -0.000000e+00 -1.000000e+00
   outer loop
     vertex -4.069661e-01  4.634398e-01  0.000000e+00
     vertex -1.593799e-01  1.141351e-01  0.000000e+00
     vertex -5.115061e-01  3.497787e-01  0.000000e+00
   endloop
 endfacet
 facet normal -0.000000e+00  0.000000e+00 -1.000000e+00
   outer loop
     vertex -9.103091e-02  1.707914e-01  0.000000e+00
     vertex -1.593799e-01  1.141351e-01  0.000000e+00
     vertex -4.069661e-01  4.634398e-01  0.000000e+00
   endloop
 endfacet
 facet normal  0.000000e+00  0.000000e+00 -1.000000e+00
   outer loop
     vertex  5.525509e-01 -2.891632e-01  0.000000e+00
     vertex  1.392270e-01 -1.333882e-01  0.000000e+00
     vertex  1.822250e-01 -5.571780e-02  0.000000e+00
   endloop
 endfacet
 facet normal -0.000000e+00  0.000000e+00 -1.000000e+00
   outer loop
     vertex  5.525509e-01 -2.891632e-01  0.000000e+00
     vertex  4.670663e-01 -4.177704e-01  0.000000e+00
     vertex  1.392270e-01 -1.333882e-01  0.000000e+00
   endloop
 endfacet
 facet normal  0.000000e+00 -0.000000e+00 -1.000000e+00
   outer loop
     vertex -2.776639e-01  5.478697e-01  0.000000e+00
     vertex -9.103091e-02  1.707914e-01  0.000000e+00
     vertex -4.069661e-01  4.634398e-01  0.000000e+00
   endloop
 endfacet
 facet normal -0.000000e+00  0.000000e+00 -1.000000e+00
   outer loop
     vertex  6.037470e-01 -1.434703e-01  0.000000e+00
     vertex  5.525509e-01 -2.891632e-01  0.000000e+00
     vertex  1.822250e-01 -5.571780e-02  0.000000e+00
   endloop
 endfacet
 facet normal  0.000000e+00 -0.000000e+00 -1.000000e+00
   outer loop
     vertex -1.315572e-01  5.978725e-01  0.000000e+00
     vertex -9.103091e-02  1.707914e-01  0.000000e+00
     vertex -2.776639e-01  5.478697e-01  0.000000e+00
   endloop
 endfacet
 facet normal  0.000000e+00  0.000000e+00 -1.000000e+00
   outer loop
     vertex -1.315572e-01  5.978725e-01  0.000000e+00
     vertex -4.605263e-03  1.910922e-01  0.000000e+00
     vertex -9.103091e-02  1.707914e-01  0.000000e+00
   endloop
 endfacet
 facet normal  0.000000e+00  0.000000e+00 -1.000000e+00
   outer loop
     vertex  6.175039e-01  1.034199e-02  0.000000e+00
     vertex  6.037470e-01 -1.434703e-01  0.000000e+00
     vertex  1.822250e-01 -5.571780e-02  0.000000e+00
   endloop
 endfacet
 facet normal -0.000000e+00  0.000000e+00 -1.000000e+00
   outer loop
     vertex  6.175039e-01  1.034199e-02  0.000000e+00
     vertex  1.822250e-01 -5.571780e-02  0.000000e+00
     vertex  1.861458e-01  3.297347e-02  0.000000e+00
   endloop
 endfacet
 facet normal  0.000000e+00  0.000000e+00 -1.000000e+00
   outer loop
     vertex  2.236243e-02  6.103709e-01  0.000000e+00
     vertex -4.605263e-03  1.910922e-01  0.000000e+00
     vertex -1.315572e-01  5.978725e-01  0.000000e+00
   endloop
 endfacet
 facet normal  0.000000e+00 -0.000000e+00 -1.000000e+00
   outer loop
     vertex  5.929748e-01  1.628077e-01  0.000000e+00
     vertex  6.175039e-01  1.034199e-02  0.000000e+00
     vertex  1.861458e-01  3.297347e-02  0.000000e+00
   endloop
 endfacet
 facet normal -0.000000e+00  0.000000e+00 -1.000000e+00
   outer loop
     vertex  1.746224e-01  5.845958e-01  0.000000e+00
     vertex -4.605263e-03  1.910922e-01  0.000000e+00
     vertex  2.236243e-02  6.103709e-01  0.000000e+00
   endloop
 endfacet
 facet normal  0.000000e+00  0.000000e+00 -1.000000e+00
   outer loop
     vertex  1.746224e-01  5.845958e-01  0.000000e+00
     vertex  8.182038e-02  1.707914e-01  0.000000e+00
     vertex -4.605263e-03  1.910922e-01  0.000000e+00
   endloop
 endfacet
 facet normal  0.000000e+00 -0.000000e+00 -1.000000e+00
   outer loop
     vertex  5.316695e-01  3.045437e-01  0.000000e+00
     vertex  5.929748e-01  1.628077e-01  0.000000e+00
     vertex  1.861458e-01  3.297347e-02  0.000000e+00
   endloop
 endfacet
 facet normal  0.000000e+00  0.000000e+00 -1.000000e+00
   outer loop
     vertex  5.316695e-01  3.045437e-01  0.000000e+00
     vertex  1.861458e-01  3.297347e-02  0.000000e+00
     vertex  1.501693e-01  1.141351e-01  0.000000e+00
   endloop
 endfacet
 facet normal -0.000000e+00  0.000000e+00 -1.000000e+00
   outer loop
     vertex  3.158523e-01  5.221332e-01  0.000000e+00
     vertex  8.182038e-02  1.707914e-01  0.000000e+00
     vertex  1.746224e-01  5.845958e-01  0.000000e+00
   endloop
 endfacet
 facet normal -0.000000e+00  0.000000e+00 -1.000000e+00
   outer loop
     vertex  4.373606e-01  4.268275e-01  0.000000e+00
     vertex  8.182038e-02  1.707914e-01  0.000000e+00
     vertex  3.158523e-01  5.221332e-01  0.000000e+00
   endloop
 endfacet
 facet normal  0.000000e+00 -0.000000e+00 -1.000000e+00
   outer loop
     vertex  4.373606e-01  4.268275e-01  0.000000e+00
     vertex  5.316695e-01  3.045437e-01  0.000000e+00
     vertex  1.501693e-01  1.141351e-01  0.000000e+00
   endloop
 endfacet
 facet normal  0.000000e+00  0.000000e+00 -1.000000e+00
   outer loop
     vertex  4.373606e-01  4.268275e-01  0.000000e+00
     vertex  1.501693e-01  1.141351e-01  0.000000e+00
     vertex  8.182038e-02  1.707914e-01  0.000000e+00
   endloop
 endfacet
 facet normal  0.000000e+00  0.000000e+00 -1.000000e+00
   outer loop
     vertex  1.392270e-01 -1.333882e-01  0.000000e+00
     vertex  1.484375e-01 -6.093750e-01  0.000000e+00
     vertex  1.392270e-01 -6.171875e-01  0.000000e+00
   endloop
 endfacet
 facet normal  1.000000e+00  3.552714e-15  0.000000e+00
   outer loop
     vertex -1.484375e-01 -6.171875e-01  0.000000e+00
     vertex -1.484375e-01 -6.093750e-01  0.000000e+00
     vertex -1.484375e-01 -6.093750e-01  3.906250e-02
   endloop
 endfacet
 facet normal  1.000000e+00  0.000000e+00  7.105427e-16
   outer loop
     vertex -1.484375e-01 -6.171875e-01  0.000000e+00
     vertex -1.484375e-01 -6.093750e-01  3.906250e-02
     vertex -1.484375e-01 -6.171875e-01  3.906250e-02
   endloop
 endfacet
 facet normal -3.136817e-01 -9.495282e-01  0.000000e+00
   outer loop
     vertex -3.253119e-01 -6.759436e-01  0.000000e+00
     vertex -1.484375e-01 -7.343750e-01  0.000000e+00
     vertex -1.484375e-01 -7.343750e-01  3.906250e-02
   endloop
 endfacet
 facet normal -3.136817e-01 -9.495282e-01  0.000000e+00
   outer loop
     vertex -3.253119e-01 -6.759436e-01  0.000000e+00
     vertex -1.484375e-01 -7.343750e-01  3.906250e-02
     vertex -3.253119e-01 -6.759436e-01  3.906250e-02
   endloop
 endfacet
 facet normal -5.349976e-01 -8.448536e-01  0.000000e+00
   outer loop
     vertex -4.826880e-01 -5.762863e-01  0.000000e+00
     vertex -3.253119e-01 -6.759436e-01  3.906250e-02
     vertex -4.826880e-01 -5.762863e-01  3.906250e-02
   endloop
 endfacet
 facet normal -5.349976e-01 -8.448536e-01  0.000000e+00
   outer loop
     vertex -4.826880e-01 -5.762863e-01  0.000000e+00
     vertex -3.253119e-01 -6.759436e-01  0.000000e+00
     vertex -3.253119e-01 -6.759436e-01  3.906250e-02
   endloop
 endfacet
 facet normal -7.242471e-01 -6.895405e-01  0.000000e+00
   outer loop
     vertex -6.111329e-01 -4.413764e-01  0.000000e+00
     vertex -4.826880e-01 -5.762863e-01  3.906250e-02
     vertex -6.111329e-01 -4.413764e-01  3.906250e-02
   endloop
 endfacet
 facet normal -7.242471e-01 -6.895405e-01  0.000000e+00
   outer loop
     vertex -6.111329e-01 -4.413764e-01  0.000000e+00
     vertex -4.826880e-01 -5.762863e-01  0.000000e+00
     vertex -4.826880e-01 -5.762863e-01  3.906250e-02
   endloop
 endfacet
 facet normal -8.700870e-01 -4.928982e-01  0.000000e+00
   outer loop
     vertex -7.029481e-01 -2.792999e-01  0.000000e+00
     vertex -6.111329e-01 -4.413764e-01  3.906250e-02
     vertex -7.029481e-01 -2.792999e-01  3.906250e-02
   endloop
 endfacet
 facet normal -8.700870e-01 -4.928982e-01  0.000000e+00
   outer loop
     vertex -7.029481e-01 -2.792999e-01  0.000000e+00
     vertex -6.111329e-01 -4.413764e-01  0.000000e+00
     vertex -6.111329e-01 -4.413764e-01  3.906250e-02
   endloop
 endfacet
 facet normal -9.637761e-01 -2.667128e-01  0.000000e+00
   outer loop
     vertex -7.526303e-01 -9.977145e-02  0.000000e+00
     vertex -7.029481e-01 -2.792999e-01  3.906250e-02
     vertex -7.526303e-01 -9.977145e-02  3.906250e-02
   endloop
 endfacet
 facet normal -9.637761e-01 -2.667128e-01  0.000000e+00
   outer loop
     vertex -7.526303e-01 -9.977145e-02  0.000000e+00
     vertex -7.029481e-01 -2.792999e-01  0.000000e+00
     vertex -7.029481e-01 -2.792999e-01  3.906250e-02
   endloop
 endfacet
 facet normal -9.996988e-01 -2.454123e-02  0.000000e+00
   outer loop
     vertex -7.572017e-01  8.644857e-02  0.000000e+00
     vertex -7.526303e-01 -9.977145e-02  3.906250e-02
     vertex -7.572017e-01  8.644857e-02  3.906250e-02
   endloop
 endfacet
 facet normal -9.996988e-01 -2.454123e-02  0.000000e+00
   outer loop
     vertex -7.572017e-01  8.644857e-02  0.000000e+00
     vertex -7.526303e-01 -9.977145e-02  0.000000e+00
     vertex -7.526303e-01 -9.977145e-02  3.906250e-02
   endloop
 endfacet
 facet normal -9.757021e-01  2.191012e-01  0.000000e+00
   outer loop
     vertex -7.163884e-01  2.681986e-01  0.000000e+00
     vertex -7.572017e-01  8.644857e-02  3.906250e-02
     vertex -7.163884e-01  2.681986e-01  3.906250e-02
   endloop
 endfacet
 facet normal -9.757021e-01  2.191012e-01  0.000000e+00
   outer loop
     vertex -7.163884e-01  2.681986e-01  0.000000e+00
     vertex -7.572017e-01  8.644857e-02  0.000000e+00
     vertex -7.572017e-01  8.644857e-02  3.906250e-02
   endloop
 endfacet
 facet normal -8.932243e-01  4.496113e-01  0.000000e+00
   outer loop
     vertex -6.326366e-01  4.345849e-01  0.000000e+00
     vertex -7.163884e-01  2.681986e-01  3.906250e-02
     vertex -6.326366e-01  4.345849e-01  3.906250e-02
   endloop
 endfacet
 facet normal -8.932243e-01  4.496113e-01  0.000000e+00
   outer loop
     vertex -6.326366e-01  4.345849e-01  0.000000e+00
     vertex -7.163884e-01  2.681986e-01  0.000000e+00
     vertex -7.163884e-01  2.681986e-01  3.906250e-02
   endloop
 endfacet
 facet normal -7.572088e-01  6.531728e-01  0.000000e+00
   outer loop
     vertex -5.109661e-01  5.756349e-01  0.000000e+00
     vertex -6.326366e-01  4.345849e-01  3.906250e-02
     vertex -5.109661e-01  5.756349e-01  3.906250e-02
   endloop
 endfacet
 facet normal -7.572088e-01  6.531728e-01  0.000000e+00
   outer loop
     vertex -5.109661e-01  5.756349e-01  0.000000e+00
     vertex -6.326366e-01  4.345849e-01  0.000000e+00
     vertex -6.326366e-01  4.345849e-01  3.906250e-02
   endloop
 endfacet
 facet normal -5.758082e-01  8.175848e-01  0.000000e+00
   outer loop
     vertex -3.586695e-01  6.828942e-01  0.000000e+00
     vertex -5.109661e-01  5.756349e-01  3.906250e-02
     vertex -3.586695e-01  6.828942e-01  3.906250e-02
   endloop
 endfacet
 facet normal -5.758082e-01  8.175848e-01  0.000000e+00
   outer loop
     vertex -3.586695e-01  6.828942e-01  0.000000e+00
     vertex -5.109661e-01  5.756349e-01  0.000000e+00
     vertex -5.109661e-01  5.756349e-01  3.906250e-02
   endloop
 endfacet
 facet normal -3.598950e-01  9.329928e-01  0.000000e+00
   outer loop
     vertex -1.848752e-01  7.499340e-01  0.000000e+00
     vertex -3.586695e-01  6.828942e-01  3.906250e-02
     vertex -1.848752e-01  7.499340e-01  3.906250e-02
   endloop
 endfacet
 facet normal -3.598950e-01  9.329928e-01  0.000000e+00
   outer loop
     vertex -1.848752e-01  7.499340e-01  0.000000e+00
     vertex -3.586695e-01  6.828942e-01  0.000000e+00
     vertex -3.586695e-01  6.828942e-01  3.906250e-02
   endloop
 endfacet
 facet normal -1.224107e-01  9.924795e-01  0.000000e+00
   outer loop
     vertex  1.762479e-15  7.727362e-01  0.000000e+00
     vertex -1.848752e-01  7.499340e-01  0.000000e+00
     vertex -1.848752e-01  7.499340e-01  3.906250e-02
   endloop
 endfacet
 facet normal -1.224107e-01  9.924795e-01  0.000000e+00
   outer loop
     vertex  1.762479e-15  7.727362e-01  0.000000e+00
     vertex -1.848752e-01  7.499340e-01  3.906250e-02
     vertex  1.762479e-15  7.727362e-01  3.906250e-02
   endloop
 endfacet
 facet normal  1.224107e-01  9.924795e-01  0.000000e+00
   outer loop
     vertex  1.848752e-01  7.499340e-01  0.000000e+00
     vertex  1.762479e-15  7.727362e-01  0.000000e+00
     vertex  1.762479e-15  7.727362e-01  3.906250e-02
   endloop
 endfacet
 facet normal  1.224107e-01  9.924795e-01 -0.000000e+00
   outer loop
     vertex  1.848752e-01  7.499340e-01  0.000000e+00
     vertex  1.762479e-15  7.727362e-01  3.906250e-02
     vertex  1.848752e-01  7.499340e-01  3.906250e-02
   endloop
 endfacet
 facet normal  3.598950e-01  9.329928e-01  0.000000e+00
   outer loop
     vertex  3.586695e-01  6.828942e-01  0.000000e+00
     vertex  1.848752e-01  7.499340e-01  0.000000e+00
     vertex  1.848752e-01  7.499340e-01  3.906250e-02
   endloop
 endfacet
 facet normal  3.598950e-01  9.329928e-01 -0.000000e+00
   outer loop
     vertex  3.586695e-01  6.828942e-01  0.000000e+00
     vertex  1.848752e-01  7.499340e-01  3.906250e-02
     vertex  3.586695e-01  6.828942e-01  3.906250e-02
   endloop
 endfacet
 facet normal  5.758082e-01  8.175848e-01 -0.000000e+00
   outer loop
     vertex  5.109661e-01  5.756349e-01  0.000000e+00
     vertex  3.586695e-01  6.828942e-01  3.906250e-02
     vertex  5.109661e-01  5.756349e-01  3.906250e-02
   endloop
 endfacet
 facet normal  5.758082e-01  8.175848e-01  0.000000e+00
   outer loop
     vertex  5.109661e-01  5.756349e-01  0.000000e+00
     vertex  3.586695e-01  6.828942e-01  0.000000e+00
     vertex  3.586695e-01  6.828942e-01  3.906250e-02
   endloop
 endfacet
 facet normal  7.572088e-01  6.531728e-01 -0.000000e+00
   outer loop
     vertex  6.326366e-01  4.345849e-01  0.000000e+00
     vertex  5.109661e-01  5.756349e-01  3.906250e-02
     vertex  6.326366e-01  4.345849e-01  3.906250e-02
   endloop
 endfacet
 facet normal  7.572088e-01  6.531728e-01  0.000000e+00
   outer loop
     vertex  6.326366e-01  4.345849e-01  0.000000e+00
     vertex  5.109661e-01  5.756349e-01  0.000000e+00
     vertex  5.109661e-01  5.756349e-01  3.906250e-02
   endloop
 endfacet
 facet normal  8.932243e-01  4.496113e-01 -0.000000e+00
   outer loop
     vertex  7.163884e-01  2.681986e-01  0.000000e+00
     vertex  6.326366e-01  4.345849e-01  3.906250e-02
     vertex  7.163884e-01  2.681986e-01  3.906250e-02
   endloop
 endfacet
 facet normal  8.932243e-01  4.496113e-01  0.000000e+00
   outer loop
     vertex  7.163884e-01  2.681986e-01  0.000000e+00
     vertex  6.326366e-01  4.345849e-01  0.000000e+00
     vertex  6.326366e-01  4.345849e-01  3.906250e-02
   endloop
 endfacet
 facet normal  9.757021e-01  2.191012e-01 -0.000000e+00
   outer loop
     vertex  7.572017e-01  8.644857e-02  0.000000e+00
     vertex  7.163884e-01  2.681986e-01  3.906250e-02
     vertex  7.572017e-01  8.644857e-02  3.906250e-02
   endloop
 endfacet
 facet normal  9.757021e-01  2.191012e-01  0.000000e+00
   outer loop
     vertex  7.572017e-01  8.644857e-02  0.000000e+00
     vertex  7.163884e-01  2.681986e-01  0.000000e+00
     vertex  7.163884e-01  2.681986e-01  3.906250e-02
   endloop
 endfacet
 facet normal  9.996988e-01 -2.454123e-02  0.000000e+00
   outer loop
     vertex  7.526303e-01 -9.977145e-02  0.000000e+00
     vertex  7.572017e-01  8.644857e-02  0.000000e+00
     vertex  7.572017e-01  8.644857e-02  3.906250e-02
   endloop
 endfacet
 facet normal  9.996988e-01 -2.454123e-02  0.000000e+00
   outer loop
     vertex  7.526303e-01 -9.977145e-02  0.000000e+00
     vertex  7.572017e-01  8.644857e-02  3.906250e-02
     vertex  7.526303e-01 -9.977145e-02  3.906250e-02
   endloop
 endfacet
 facet normal  9.637761e-01 -2.667128e-01  0.000000e+00
   outer loop
     vertex  7.029481e-01 -2.792999e-01  0.000000e+00
     vertex  7.526303e-01 -9.977145e-02  3.906250e-02
     vertex  7.029481e-01 -2.792999e-01  3.906250e-02
   endloop
 endfacet
 facet normal  9.637761e-01 -2.667128e-01  0.000000e+00
   outer loop
     vertex  7.029481e-01 -2.792999e-01  0.000000e+00
     vertex  7.526303e-01 -9.977145e-02  0.000000e+00
     vertex  7.526303e-01 -9.977145e-02  3.906250e-02
   endloop
 endfacet
 facet normal  8.700870e-01 -4.928982e-01  0.000000e+00
   outer loop
     vertex  6.111329e-01 -4.413764e-01  0.000000e+00
     vertex  7.029481e-01 -2.792999e-01  3.906250e-02
     vertex  6.111329e-01 -4.413764e-01  3.906250e-02
   endloop
 endfacet
 facet normal  8.700870e-01 -4.928982e-01  0.000000e+00
   outer loop
     vertex  6.111329e-01 -4.413764e-01  0.000000e+00
     vertex  7.029481e-01 -2.792999e-01  0.000000e+00
     vertex  7.029481e-01 -2.792999e-01  3.906250e-02
   endloop
 endfacet
 facet normal  7.242471e-01 -6.895405e-01  0.000000e+00
   outer loop
     vertex  4.826880e-01 -5.762863e-01  0.000000e+00
     vertex  6.111329e-01 -4.413764e-01  3.906250e-02
     vertex  4.826880e-01 -5.762863e-01  3.906250e-02
   endloop
 endfacet
 facet normal  7.242471e-01 -6.895405e-01  0.000000e+00
   outer loop
     vertex  4.826880e-01 -5.762863e-01  0.000000e+00
     vertex  6.111329e-01 -4.413764e-01  0.000000e+00
     vertex  6.111329e-01 -4.413764e-01  3.906250e-02
   endloop
 endfacet
 facet normal  5.349976e-01 -8.448536e-01  0.000000e+00
   outer loop
     vertex  3.253119e-01 -6.759436e-01  0.000000e+00
     vertex  4.826880e-01 -5.762863e-01  3.906250e-02
     vertex  3.253119e-01 -6.759436e-01  3.906250e-02
   endloop
 endfacet
 facet normal  5.349976e-01 -8.448536e-01  0.000000e+00
   outer loop
     vertex  3.253119e-01 -6.759436e-01  0.000000e+00
     vertex  4.826880e-01 -5.762863e-01  0.000000e+00
     vertex  4.826880e-01 -5.762863e-01  3.906250e-02
   endloop
 endfacet
 facet normal  3.136817e-01 -9.495282e-01  0.000000e+00
   outer loop
     vertex  1.484375e-01 -7.343750e-01  0.000000e+00
     vertex  3.253119e-01 -6.759436e-01  3.906250e-02
     vertex  1.484375e-01 -7.343750e-01  3.906250e-02
   endloop
 endfacet
 facet normal  3.136817e-01 -9.495282e-01  0.000000e+00
   outer loop
     vertex  1.484375e-01 -7.343750e-01  0.000000e+00
     vertex  3.253119e-01 -6.759436e-01  0.000000e+00
     vertex  3.253119e-01 -6.759436e-01  3.906250e-02
   endloop
 endfacet
 facet normal -1.000000e+00 -1.905378e-14  0.000000e+00
   outer loop
     vertex  1.484375e-01 -6.149259e-01  0.000000e+00
     vertex  1.484375e-01 -7.343750e-01  0.000000e+00
     vertex  1.484375e-01 -7.343750e-01  3.906250e-02
   endloop
 endfacet
 facet normal -1.000000e+00 -2.323632e-16  5.755396e-14
   outer loop
     vertex  1.484375e-01 -6.149259e-01  0.000000e+00
     vertex  1.484375e-01 -7.343750e-01  3.906250e-02
     vertex  1.484375e-01 -6.149259e-01  3.906250e-02
   endloop
 endfacet
 facet normal  0.000000e+00  0.000000e+00 -1.000000e+00
   outer loop
     vertex  2.200890e-01 -5.920649e-01  0.000000e+00
     vertex  1.484375e-01 -6.149259e-01  0.000000e+00
     vertex  1.484375e-01 -6.093750e-01  0.000000e+00
   endloop
 endfacet
 facet normal  0.000000e+00 -0.000000e+00 -1.000000e+00
   outer loop
     vertex  2.197312e-01 -5.880128e-01  0.000000e+00
     vertex  2.200890e-01 -5.920649e-01  0.000000e+00
     vertex  1.484375e-01 -6.093750e-01  0.000000e+00
   endloop
 endfacet
 facet normal  0.000000e+00  0.000000e+00 -1.000000e+00
   outer loop
     vertex  2.884606e-01 -5.607296e-01  0.000000e+00
     vertex  2.200890e-01 -5.920649e-01  0.000000e+00
     vertex  2.197312e-01 -5.880128e-01  0.000000e+00
   endloop
 endfacet
 facet normal  0.000000e+00 -0.000000e+00 -1.000000e+00
   outer loop
     vertex  2.880758e-01 -5.585485e-01  0.000000e+00
     vertex  2.884606e-01 -5.607296e-01  0.000000e+00
     vertex  2.197312e-01 -5.880128e-01  0.000000e+00
   endloop
 endfacet
 facet normal  0.000000e+00  0.000000e+00 -1.000000e+00
   outer loop
     vertex  3.525540e-01 -5.213774e-01  0.000000e+00
     vertex  2.884606e-01 -5.607296e-01  0.000000e+00
     vertex  2.880758e-01 -5.585485e-01  0.000000e+00
   endloop
 endfacet
 facet normal -6.446467e-01  7.644807e-01 -6.482122e-14
   outer loop
     vertex  3.525540e-01 -5.213774e-01  0.000000e+00
     vertex  3.525540e-01 -5.213774e-01  3.906250e-02
     vertex  4.697985e-01 -4.225112e-01  3.906250e-02
   endloop
 endfacet
 facet normal -8.074753e-01  5.899013e-01 -7.347647e-14
   outer loop
     vertex  4.697985e-01 -4.225112e-01  0.000000e+00
     vertex  4.697985e-01 -4.225112e-01  3.906250e-02
     vertex  5.602687e-01 -2.986728e-01  3.906250e-02
   endloop
 endfacet
 facet normal -6.446467e-01  7.644807e-01  7.607533e-14
   outer loop
     vertex  4.697985e-01 -4.225112e-01  0.000000e+00
     vertex  3.525540e-01 -5.213774e-01  0.000000e+00
     vertex  4.697985e-01 -4.225112e-01  3.906250e-02
   endloop
 endfacet
 facet normal -9.242851e-01  3.817029e-01 -7.779080e-14
   outer loop
     vertex  5.602687e-01 -2.986728e-01  0.000000e+00
     vertex  5.602687e-01 -2.986728e-01  3.906250e-02
     vertex  6.188085e-01 -1.569199e-01  3.906250e-02
   endloop
 endfacet
 facet normal -8.074753e-01  5.899013e-01  7.744370e-14
   outer loop
     vertex  5.602687e-01 -2.986728e-01  0.000000e+00
     vertex  4.697985e-01 -4.225112e-01  0.000000e+00
     vertex  5.602687e-01 -2.986728e-01  3.906250e-02
   endloop
 endfacet
 facet normal -9.884188e-01  1.517508e-01 -8.156339e-14
   outer loop
     vertex  6.188085e-01 -1.569199e-01  0.000000e+00
     vertex  6.188085e-01 -1.569199e-01  3.906250e-02
     vertex  6.420817e-01 -5.331184e-03  3.906250e-02
   endloop
 endfacet
 facet normal -9.242851e-01  3.817029e-01  7.895149e-14
   outer loop
     vertex  6.188085e-01 -1.569199e-01  0.000000e+00
     vertex  5.602687e-01 -2.986728e-01  0.000000e+00
     vertex  6.188085e-01 -1.569199e-01  3.906250e-02
   endloop
 endfacet
 facet normal -9.962214e-01 -8.684982e-02 -8.583576e-14
   outer loop
     vertex  6.420817e-01 -5.331184e-03  0.000000e+00
     vertex  6.420817e-01 -5.331184e-03  3.906250e-02
     vertex  6.287620e-01  1.474542e-01  3.906250e-02
   endloop
 endfacet
 facet normal -9.884188e-01  1.517508e-01  8.016994e-14
   outer loop
     vertex  6.420817e-01 -5.331184e-03  0.000000e+00
     vertex  6.188085e-01 -1.569199e-01  0.000000e+00
     vertex  6.420817e-01 -5.331184e-03  3.906250e-02
   endloop
 endfacet
 facet normal -9.472483e-01 -3.205007e-01 -8.162472e-14
   outer loop
     vertex  6.287620e-01  1.474542e-01  0.000000e+00
     vertex  6.287620e-01  1.474542e-01  3.906250e-02
     vertex  5.796085e-01  2.927289e-01  3.906250e-02
   endloop
 endfacet
 facet normal -9.962214e-01 -8.684982e-02  8.928102e-14
   outer loop
     vertex  6.287620e-01  1.474542e-01  0.000000e+00
     vertex  6.420817e-01 -5.331184e-03  0.000000e+00
     vertex  6.287620e-01  1.474542e-01  3.906250e-02
   endloop
 endfacet
 facet normal -8.442904e-01 -5.358859e-01 -8.840495e-14
   outer loop
     vertex  5.796085e-01  2.927289e-01  0.000000e+00
     vertex  5.796085e-01  2.927289e-01  3.906250e-02
     vertex  4.974224e-01  4.222134e-01  3.906250e-02
   endloop
 endfacet
 facet normal -9.472483e-01 -3.205007e-01  8.792082e-14
   outer loop
     vertex  5.796085e-01  2.927289e-01  0.000000e+00
     vertex  6.287620e-01  1.474542e-01  0.000000e+00
     vertex  5.796085e-01  2.927289e-01  3.906250e-02
   endloop
 endfacet
 facet normal -6.932155e-01 -7.207304e-01 -9.003263e-14
   outer loop
     vertex  4.974224e-01  4.222134e-01  0.000000e+00
     vertex  4.974224e-01  4.222134e-01  3.906250e-02
     vertex  3.868876e-01  5.285283e-01  3.906250e-02
   endloop
 endfacet
 facet normal -8.442904e-01 -5.358859e-01  9.101948e-14
   outer loop
     vertex  4.974224e-01  4.222134e-01  0.000000e+00
     vertex  5.796085e-01  2.927289e-01  0.000000e+00
     vertex  4.974224e-01  4.222134e-01  3.906250e-02
   endloop
 endfacet
 facet normal -5.026334e-01 -8.644997e-01 -9.501441e-14
   outer loop
     vertex  3.868876e-01  5.285283e-01  0.000000e+00
     vertex  3.868876e-01  5.285283e-01  3.906250e-02
     vertex  2.543037e-01  6.056146e-01  3.906250e-02
   endloop
 endfacet
 facet normal -6.932155e-01 -7.207304e-01  9.144099e-14
   outer loop
     vertex  3.868876e-01  5.285283e-01  0.000000e+00
     vertex  4.974224e-01  4.222134e-01  0.000000e+00
     vertex  3.868876e-01  5.285283e-01  3.906250e-02
   endloop
 endfacet
 facet normal -2.834057e-01 -9.590001e-01 -9.584517e-14
   outer loop
     vertex  2.543037e-01  6.056146e-01  0.000000e+00
     vertex  2.543037e-01  6.056146e-01  3.906250e-02
     vertex  1.072268e-01  6.490791e-01  3.906250e-02
   endloop
 endfacet
 facet normal -5.026334e-01 -8.644997e-01  9.623797e-14
   outer loop
     vertex  2.543037e-01  6.056146e-01  0.000000e+00
     vertex  3.868876e-01  5.285283e-01  0.000000e+00
     vertex  2.543037e-01  6.056146e-01  3.906250e-02
   endloop
 endfacet
 facet normal -4.802643e-02 -9.988461e-01 -9.722797e-14
   outer loop
     vertex  1.072268e-01  6.490791e-01  0.000000e+00
     vertex  1.072268e-01  6.490791e-01  3.906250e-02
     vertex -4.596117e-02  6.564447e-01  3.906250e-02
   endloop
 endfacet
 facet normal -2.834057e-01 -9.590001e-01  9.953860e-14
   outer loop
     vertex  1.072268e-01  6.490791e-01  0.000000e+00
     vertex  2.543037e-01  6.056146e-01  0.000000e+00
     vertex  1.072268e-01  6.490791e-01  3.906250e-02
   endloop
 endfacet
 facet normal  1.900899e-01 -9.817667e-01 -9.920703e-14
   outer loop
     vertex -4.596117e-02  6.564447e-01  0.000000e+00
     vertex -4.596117e-02  6.564447e-01  3.906250e-02
     vertex -1.965297e-01  6.272916e-01  3.906250e-02
   endloop
 endfacet
 facet normal -4.802643e-02 -9.988461e-01  1.030300e-13
   outer loop
     vertex -4.596117e-02  6.564447e-01  0.000000e+00
     vertex  1.072268e-01  6.490791e-01  0.000000e+00
     vertex -4.596117e-02  6.564447e-01  3.906250e-02
   endloop
 endfacet
 facet normal  4.173729e-01 -9.087353e-01 -1.047021e-13
   outer loop
     vertex -1.965297e-01  6.272916e-01  0.000000e+00
     vertex -1.965297e-01  6.272916e-01  3.906250e-02
     vertex -3.358978e-01  5.632812e-01  3.906250e-02
   endloop
 endfacet
 facet normal  1.900899e-01 -9.817667e-01  1.024195e-13
   outer loop
     vertex -1.965297e-01  6.272916e-01  0.000000e+00
     vertex -4.596117e-02  6.564447e-01  0.000000e+00
     vertex -1.965297e-01  6.272916e-01  3.906250e-02
   endloop
 endfacet
 facet normal  6.208693e-01 -7.839141e-01 -1.079857e-13
   outer loop
     vertex -3.358978e-01  5.632812e-01  0.000000e+00
     vertex -3.358978e-01  5.632812e-01  3.906250e-02
     vertex -4.561227e-01  4.680617e-01  3.906250e-02
   endloop
 endfacet
 facet normal  4.173729e-01 -9.087353e-01  1.042659e-13
   outer loop
     vertex -3.358978e-01  5.632812e-01  0.000000e+00
     vertex -1.965297e-01  6.272916e-01  0.000000e+00
     vertex -3.358978e-01  5.632812e-01  3.906250e-02
   endloop
 endfacet
 facet normal  6.208693e-01 -7.839141e-01  1.060744e-13
   outer loop
     vertex -4.561227e-01  4.680617e-01  0.000000e+00
     vertex -3.358978e-01  5.632812e-01  0.000000e+00
     vertex -4.561227e-01  4.680617e-01  3.906250e-02
   endloop
 endfacet
 facet normal  7.889816e-01 -6.144168e-01 -1.115033e-13
   outer loop
     vertex -4.561227e-01  4.680617e-01  0.000000e+00
     vertex -4.561227e-01  4.680617e-01  3.906250e-02
     vertex -5.503527e-01  3.470596e-01  3.906250e-02
   endloop
 endfacet
 facet normal  7.889816e-01 -6.144168e-01  1.121119e-13
   outer loop
     vertex -5.503527e-01  3.470596e-01  0.000000e+00
     vertex -4.561227e-01  4.680617e-01  0.000000e+00
     vertex -5.503527e-01  3.470596e-01  3.906250e-02
   endloop
 endfacet
 facet normal  9.121291e-01 -4.099031e-01 -1.115959e-13
   outer loop
     vertex -5.503527e-01  3.470596e-01  0.000000e+00
     vertex -5.503527e-01  3.470596e-01  3.906250e-02
     vertex -6.132175e-01  2.071710e-01  3.906250e-02
   endloop
 endfacet
 facet normal  9.121291e-01 -4.099031e-01  1.118145e-13
   outer loop
     vertex -6.132175e-01  2.071710e-01  0.000000e+00
     vertex -5.503527e-01  3.470596e-01  0.000000e+00
     vertex -6.132175e-01  2.071710e-01  3.906250e-02
   endloop
 endfacet
 facet normal  9.832932e-01 -1.820287e-01 -1.146907e-13
   outer loop
     vertex -6.132175e-01  2.071710e-01  0.000000e+00
     vertex -6.132175e-01  2.071710e-01  3.906250e-02
     vertex -6.411343e-01  5.636830e-02  3.906250e-02
   endloop
 endfacet
 facet normal  9.832932e-01 -1.820287e-01  1.164875e-13
   outer loop
     vertex -6.411343e-01  5.636830e-02  0.000000e+00
     vertex -6.132175e-01  2.071710e-01  0.000000e+00
     vertex -6.411343e-01  5.636830e-02  3.906250e-02
   endloop
 endfacet
 facet normal  9.984184e-01  5.621982e-02 -1.173954e-13
   outer loop
     vertex -6.411343e-01  5.636830e-02  0.000000e+00
     vertex -6.411343e-01  5.636830e-02  3.906250e-02
     vertex -6.325121e-01 -9.675405e-02  3.906250e-02
   endloop
 endfacet
 facet normal  9.984184e-01  5.621982e-02  1.200906e-13
   outer loop
     vertex -6.325121e-01 -9.675405e-02  0.000000e+00
     vertex -6.411343e-01  5.636830e-02  0.000000e+00
     vertex -6.325121e-01 -9.675405e-02  3.906250e-02
   endloop
 endfacet
 facet normal  9.566426e-01  2.912643e-01 -1.207497e-13
   outer loop
     vertex -6.325121e-01 -9.675405e-02  0.000000e+00
     vertex -6.325121e-01 -9.675405e-02  3.906250e-02
     vertex -5.878424e-01 -2.434695e-01  3.906250e-02
   endloop
 endfacet
 facet normal  9.566426e-01  2.912643e-01  1.231916e-13
   outer loop
     vertex -5.878424e-01 -2.434695e-01  0.000000e+00
     vertex -6.325121e-01 -9.675405e-02  0.000000e+00
     vertex -5.878424e-01 -2.434695e-01  3.906250e-02
   endloop
 endfacet
 facet normal  8.603467e-01  5.097093e-01 -1.244073e-13
   outer loop
     vertex -5.878424e-01 -2.434695e-01  0.000000e+00
     vertex -5.878424e-01 -2.434695e-01  3.906250e-02
     vertex -5.096709e-01 -3.754164e-01  3.906250e-02
   endloop
 endfacet
 facet normal  8.603467e-01  5.097093e-01  1.095106e-13
   outer loop
     vertex -5.096709e-01 -3.754164e-01  0.000000e+00
     vertex -5.878424e-01 -2.434695e-01  0.000000e+00
     vertex -5.096709e-01 -3.754164e-01  3.906250e-02
   endloop
 endfacet
 facet normal  1.000000e+00 -0.000000e+00  7.105427e-16
   outer loop
     vertex -1.484375e-01 -7.343750e-01  0.000000e+00
     vertex -1.484375e-01 -6.171875e-01  0.000000e+00
     vertex -1.484375e-01 -6.171875e-01  3.906250e-02
   endloop
 endfacet
 facet normal  1.000000e+00  2.368476e-16 -0.000000e+00
   outer loop
     vertex -1.484375e-01 -7.343750e-01  0.000000e+00
     vertex -1.484375e-01 -6.171875e-01  3.906250e-02
     vertex -1.484375e-01 -7.343750e-01  3.906250e-02
   endloop
 endfacet
 facet normal -3.448225e-01 -9.386679e-01  3.667663e-17
   outer loop
     vertex -2.870425e-01 -5.662705e-01  3.906250e-02
     vertex -1.484375e-01 -6.171875e-01  3.906250e-02
     vertex -1.484375e-01 -6.171875e-01  3.593750e-01
   endloop
 endfacet
 facet normal -3.469802e-01 -9.378718e-01  1.060244e-03
   outer loop
     vertex -2.870425e-01 -5.662705e-01  3.906250e-02
     vertex -1.484375e-01 -6.171875e-01  3.593750e-01
     vertex -2.895912e-01 -5.649655e-01  3.593750e-01
   endloop
 endfacet
 facet normal -5.619299e-01 -8.271822e-01  2.079644e-03
   outer loop
     vertex -4.097553e-01 -4.841397e-01  3.906250e-02
     vertex -2.895912e-01 -5.649655e-01  3.593750e-01
     vertex -4.140858e-01 -4.803925e-01  3.593750e-01
   endloop
 endfacet
 facet normal -5.562101e-01 -8.310411e-01 -1.039827e-03
   outer loop
     vertex -4.097553e-01 -4.841397e-01  3.906250e-02
     vertex -2.870425e-01 -5.662705e-01  3.906250e-02
     vertex -2.895912e-01 -5.649655e-01  3.593750e-01
   endloop
 endfacet
 facet normal -7.440303e-01 -6.681389e-01  3.058177e-03
   outer loop
     vertex -5.096709e-01 -3.754164e-01  3.906250e-02
     vertex -4.140858e-01 -4.803925e-01  3.593750e-01
     vertex -5.146440e-01 -3.684123e-01  3.593750e-01
   endloop
 endfacet
 facet normal -8.826382e-01 -4.700406e-01 -3.425527e-03
   outer loop
     vertex -5.096709e-01 -3.754164e-01  3.906250e-02
     vertex -5.146440e-01 -3.684123e-01  3.593750e-01
     vertex -5.853875e-01 -2.355708e-01  3.593750e-01
   endloop
 endfacet
 facet normal -7.362998e-01 -6.766524e-01 -2.038799e-03
   outer loop
     vertex -5.096709e-01 -3.754164e-01  3.906250e-02
     vertex -4.097553e-01 -4.841397e-01  3.906250e-02
     vertex -4.140858e-01 -4.803925e-01  3.593750e-01
   endloop
 endfacet
 facet normal -8.775992e-01 -4.793950e-01 -1.466626e-13
   outer loop
     vertex -5.837021e-01 -2.398921e-01  0.000000e+00
     vertex -5.096709e-01 -3.754164e-01  0.000000e+00
     vertex -5.096709e-01 -3.754164e-01  3.906250e-02
   endloop
 endfacet
 facet normal -8.777972e-01 -4.790295e-01  1.643293e-03
   outer loop
     vertex -5.837021e-01 -2.398921e-01  0.000000e+00
     vertex -5.096709e-01 -3.754164e-01  3.906250e-02
     vertex -5.853875e-01 -2.355708e-01  3.593750e-01
   endloop
 endfacet
 facet normal -9.696574e-01 -2.444679e-01  2.298867e-04
   outer loop
     vertex -6.220944e-01 -9.031441e-02  0.000000e+00
     vertex -5.853875e-01 -2.355708e-01  3.593750e-01
     vertex -6.221809e-01 -8.963337e-02  3.593750e-01
   endloop
 endfacet
 facet normal -9.999894e-01 -4.601926e-03 -2.319780e-04
   outer loop
     vertex -6.220944e-01 -9.031441e-02  0.000000e+00
     vertex -6.221809e-01 -8.963337e-02  3.593750e-01
     vertex -6.228735e-01  6.086920e-02  3.593750e-01
   endloop
 endfacet
 facet normal -9.686018e-01 -2.486126e-01 -1.553188e-03
   outer loop
     vertex -6.220944e-01 -9.031441e-02  0.000000e+00
     vertex -5.837021e-01 -2.398921e-01  0.000000e+00
     vertex -5.853875e-01 -2.355708e-01  3.593750e-01
   endloop
 endfacet
 facet normal -9.718658e-01  2.355329e-01  1.074732e-03
   outer loop
     vertex -6.224852e-01  6.411132e-02  0.000000e+00
     vertex -6.228735e-01  6.086920e-02  3.593750e-01
     vertex -5.874248e-01  2.071391e-01  3.593750e-01
   endloop
 endfacet
 facet normal -9.999962e-01 -2.530609e-03 -1.103365e-03
   outer loop
     vertex -6.224852e-01  6.411132e-02  0.000000e+00
     vertex -6.220944e-01 -9.031441e-02  0.000000e+00
     vertex -6.228735e-01  6.086920e-02  3.593750e-01
   endloop
 endfacet
 facet normal -8.869297e-01  4.618986e-01  2.312097e-03
   outer loop
     vertex -5.848504e-01  2.138814e-01  0.000000e+00
     vertex -5.874248e-01  2.071391e-01  3.593750e-01
     vertex -5.179070e-01  3.406261e-01  3.593750e-01
   endloop
 endfacet
 facet normal -9.698461e-01  2.437067e-01 -2.375406e-03
   outer loop
     vertex -5.848504e-01  2.138814e-01  0.000000e+00
     vertex -6.224852e-01  6.411132e-02  0.000000e+00
     vertex -5.874248e-01  2.071391e-01  3.593750e-01
   endloop
 endfacet
 facet normal -7.501471e-01  6.612618e-01  3.480064e-03
   outer loop
     vertex -5.115061e-01  3.497787e-01  0.000000e+00
     vertex -5.179070e-01  3.406261e-01  3.593750e-01
     vertex -4.183837e-01  4.535271e-01  3.593750e-01
   endloop
 endfacet
 facet normal -8.800087e-01  4.749441e-01 -3.578072e-03
   outer loop
     vertex -5.115061e-01  3.497787e-01  0.000000e+00
     vertex -5.848504e-01  2.138814e-01  0.000000e+00
     vertex -5.179070e-01  3.406261e-01  3.593750e-01
   endloop
 endfacet
 facet normal -5.695145e-01  8.219685e-01  4.578582e-03
   outer loop
     vertex -4.069661e-01  4.634398e-01  0.000000e+00
     vertex -4.183837e-01  4.535271e-01  3.593750e-01
     vertex -2.946727e-01  5.392423e-01  3.593750e-01
   endloop
 endfacet
 facet normal -7.360137e-01  6.769502e-01 -4.711311e-03
   outer loop
     vertex -4.069661e-01  4.634398e-01  0.000000e+00
     vertex -5.115061e-01  3.497787e-01  0.000000e+00
     vertex -4.183837e-01  4.535271e-01  3.593750e-01
   endloop
 endfacet
 facet normal -5.467241e-01  8.372929e-01 -5.775077e-03
   outer loop
     vertex -2.776639e-01  5.478697e-01  0.000000e+00
     vertex -4.069661e-01  4.634398e-01  0.000000e+00
     vertex -2.946727e-01  5.392423e-01  3.593750e-01
   endloop
 endfacet
 facet normal -3.555921e-01  9.346244e-01  5.607606e-03
   outer loop
     vertex -2.776639e-01  5.478697e-01  0.000000e+00
     vertex -2.946727e-01  5.392423e-01  3.593750e-01
     vertex -1.540057e-01  5.927612e-01  3.593750e-01
   endloop
 endfacet
 facet normal -3.237900e-01  9.461048e-01 -6.769326e-03
   outer loop
     vertex -1.315572e-01  5.978725e-01  0.000000e+00
     vertex -2.776639e-01  5.478697e-01  0.000000e+00
     vertex -1.540057e-01  5.927612e-01  3.593750e-01
   endloop
 endfacet
 facet normal -1.208855e-01  9.926447e-01  6.567094e-03
   outer loop
     vertex -1.315572e-01  5.978725e-01  0.000000e+00
     vertex -1.540057e-01  5.927612e-01  3.593750e-01
     vertex -4.605263e-03  6.109554e-01  3.593750e-01
   endloop
 endfacet
 facet normal -8.093205e-02  9.966899e-01 -7.694019e-03
   outer loop
     vertex  2.236243e-02  6.103709e-01  0.000000e+00
     vertex -1.315572e-01  5.978725e-01  0.000000e+00
     vertex -4.605263e-03  6.109554e-01  3.593750e-01
   endloop
 endfacet
 facet normal  1.208847e-01  9.926385e-01  7.457009e-03
   outer loop
     vertex  2.236243e-02  6.103709e-01  0.000000e+00
     vertex -4.605263e-03  6.109554e-01  3.593750e-01
     vertex  1.447951e-01  5.927612e-01  3.593750e-01
   endloop
 endfacet
 facet normal  3.555855e-01  9.346071e-01  8.277316e-03
   outer loop
     vertex  1.746224e-01  5.845958e-01  0.000000e+00
     vertex  1.447951e-01  5.927612e-01  3.593750e-01
     vertex  2.854622e-01  5.392423e-01  3.593750e-01
   endloop
 endfacet
 facet normal  1.669033e-01  9.859362e-01 -8.549121e-03
   outer loop
     vertex  1.746224e-01  5.845958e-01  0.000000e+00
     vertex  2.236243e-02  6.103709e-01  0.000000e+00
     vertex  1.447951e-01  5.927612e-01  3.593750e-01
   endloop
 endfacet
 facet normal  5.694973e-01  8.219436e-01  9.027986e-03
   outer loop
     vertex  3.158523e-01  5.221332e-01  0.000000e+00
     vertex  2.854622e-01  5.392423e-01  3.593750e-01
     vertex  4.091732e-01  4.535271e-01  3.593750e-01
   endloop
 endfacet
 facet normal  4.044636e-01  9.145064e-01 -9.334600e-03
   outer loop
     vertex  3.158523e-01  5.221332e-01  0.000000e+00
     vertex  1.746224e-01  5.845958e-01  0.000000e+00
     vertex  2.854622e-01  5.392423e-01  3.593750e-01
   endloop
 endfacet
 facet normal  7.501163e-01  6.612347e-01  9.708990e-03
   outer loop
     vertex  4.373606e-01  4.268275e-01  0.000000e+00
     vertex  4.091732e-01  4.535271e-01  3.593750e-01
     vertex  5.086965e-01  3.406261e-01  3.593750e-01
   endloop
 endfacet
 facet normal  6.171294e-01  7.867975e-01 -1.005043e-02
   outer loop
     vertex  4.373606e-01  4.268275e-01  0.000000e+00
     vertex  3.158523e-01  5.221332e-01  0.000000e+00
     vertex  4.091732e-01  4.535271e-01  3.593750e-01
   endloop
 endfacet
 facet normal  8.868849e-01  4.618752e-01  1.032030e-02
   outer loop
     vertex  5.316695e-01  3.045437e-01  0.000000e+00
     vertex  5.086965e-01  3.406261e-01  3.593750e-01
     vertex  5.782143e-01  2.071391e-01  3.593750e-01
   endloop
 endfacet
 facet normal  7.918132e-01  6.106697e-01 -1.069657e-02
   outer loop
     vertex  5.316695e-01  3.045437e-01  0.000000e+00
     vertex  4.373606e-01  4.268275e-01  0.000000e+00
     vertex  5.086965e-01  3.406261e-01  3.593750e-01
   endloop
 endfacet
 facet normal  9.718090e-01  2.355192e-01  1.086191e-02
   outer loop
     vertex  5.929748e-01  1.628077e-01  0.000000e+00
     vertex  5.782143e-01  2.071391e-01  3.593750e-01
     vertex  6.136630e-01  6.086920e-02  3.593750e-01
   endloop
 endfacet
 facet normal  9.177655e-01  3.969628e-01 -1.127302e-02
   outer loop
     vertex  5.929748e-01  1.628077e-01  0.000000e+00
     vertex  5.316695e-01  3.045437e-01  0.000000e+00
     vertex  5.782143e-01  2.071391e-01  3.593750e-01
   endloop
 endfacet
 facet normal  9.999252e-01 -4.601631e-03  1.133378e-02
   outer loop
     vertex  6.175039e-01  1.034199e-02  0.000000e+00
     vertex  6.136630e-01  6.086920e-02  3.593750e-01
     vertex  6.129704e-01 -8.963337e-02  3.593750e-01
   endloop
 endfacet
 facet normal  9.872359e-01  1.588289e-01 -1.177975e-02
   outer loop
     vertex  6.175039e-01  1.034199e-02  0.000000e+00
     vertex  5.929748e-01  1.628077e-01  0.000000e+00
     vertex  6.136630e-01  6.086920e-02  3.593750e-01
   endloop
 endfacet
 facet normal  9.695906e-01 -2.444511e-01  1.173590e-02
   outer loop
     vertex  6.037470e-01 -1.434703e-01  0.000000e+00
     vertex  6.129704e-01 -8.963337e-02  3.593750e-01
     vertex  5.761770e-01 -2.355708e-01  3.593750e-01
   endloop
 endfacet
 facet normal  9.959498e-01 -8.907690e-02 -1.221674e-02
   outer loop
     vertex  6.037470e-01 -1.434703e-01  0.000000e+00
     vertex  6.175039e-01  1.034199e-02  0.000000e+00
     vertex  6.129704e-01 -8.963337e-02  3.593750e-01
   endloop
 endfacet
 facet normal  8.825791e-01 -4.700091e-01  1.206827e-02
   outer loop
     vertex  5.525509e-01 -2.891632e-01  0.000000e+00
     vertex  5.761770e-01 -2.355708e-01  3.593750e-01
     vertex  5.054335e-01 -3.684123e-01  3.593750e-01
   endloop
 endfacet
 facet normal  9.433719e-01 -3.314984e-01 -1.258398e-02
   outer loop
     vertex  5.525509e-01 -2.891632e-01  0.000000e+00
     vertex  6.037470e-01 -1.434703e-01  0.000000e+00
     vertex  5.761770e-01 -2.355708e-01  3.593750e-01
   endloop
 endfacet
 facet normal  7.439772e-01 -6.680912e-01  1.233087e-02
   outer loop
     vertex  4.670663e-01 -4.177704e-01  0.000000e+00
     vertex  5.054335e-01 -3.684123e-01  3.593750e-01
     vertex  4.048753e-01 -4.803925e-01  3.593750e-01
   endloop
 endfacet
 facet normal  8.327382e-01 -5.535170e-01 -1.288146e-02
   outer loop
     vertex  4.670663e-01 -4.177704e-01  0.000000e+00
     vertex  5.525509e-01 -2.891632e-01  0.000000e+00
     vertex  5.054335e-01 -3.684123e-01  3.593750e-01
   endloop
 endfacet
 facet normal  5.618756e-01 -8.271024e-01  1.405068e-02
   outer loop
     vertex  3.525540e-01 -5.213774e-01  3.906250e-02
     vertex  4.048753e-01 -4.803925e-01  3.593750e-01
     vertex  2.803807e-01 -5.649655e-01  3.593750e-01
   endloop
 endfacet
 facet normal  6.682242e-01 -7.438287e-01 -1.397588e-02
   outer loop
     vertex  3.525540e-01 -5.213774e-01  3.906250e-02
     vertex  4.670663e-01 -4.177704e-01  0.000000e+00
     vertex  4.048753e-01 -4.803925e-01  3.593750e-01
   endloop
 endfacet
 facet normal  6.709154e-01 -7.415339e-01  8.575978e-14
   outer loop
     vertex  3.525540e-01 -5.213774e-01  0.000000e+00
     vertex  4.670663e-01 -4.177704e-01  0.000000e+00
     vertex  3.525540e-01 -5.213774e-01  3.906250e-02
   endloop
 endfacet
 facet normal  5.232290e-01 -8.521899e-01  1.928836e-03
   outer loop
     vertex  2.884606e-01 -5.607296e-01  3.906250e-02
     vertex  3.525540e-01 -5.213774e-01  3.906250e-02
     vertex  2.803807e-01 -5.649655e-01  3.593750e-01
   endloop
 endfacet
 facet normal  3.469462e-01 -9.377800e-01  1.403415e-02
   outer loop
     vertex  2.200890e-01 -5.920649e-01  3.906250e-02
     vertex  2.803807e-01 -5.649655e-01  3.593750e-01
     vertex  1.392270e-01 -6.171875e-01  3.593750e-01
   endloop
 endfacet
 facet normal  4.166362e-01 -9.090721e-01 -1.512195e-03
   outer loop
     vertex  2.200890e-01 -5.920649e-01  3.906250e-02
     vertex  2.884606e-01 -5.607296e-01  3.906250e-02
     vertex  2.803807e-01 -5.649655e-01  3.593750e-01
   endloop
 endfacet
 facet normal  3.039608e-01 -9.526824e-01  2.013779e-03
   outer loop
     vertex  1.484375e-01 -6.149259e-01  3.906250e-02
     vertex  2.200890e-01 -5.920649e-01  3.906250e-02
     vertex  1.392270e-01 -6.171875e-01  3.593750e-01
   endloop
 endfacet
 facet normal  2.433921e-01 -9.699280e-01  1.080291e-14
   outer loop
     vertex  1.453712e-01 -6.156953e-01  0.000000e+00
     vertex  1.484375e-01 -6.149259e-01  0.000000e+00
     vertex  1.484375e-01 -6.149259e-01  3.906250e-02
   endloop
 endfacet
 facet normal  2.384631e-01 -9.711515e-01  4.110204e-04
   outer loop
     vertex  1.423010e-01 -6.164492e-01  0.000000e+00
     vertex  1.453712e-01 -6.156953e-01  0.000000e+00
     vertex  1.484375e-01 -6.149259e-01  3.906250e-02
   endloop
 endfacet
 facet normal  2.384631e-01 -9.711516e-01  0.000000e+00
   outer loop
     vertex  1.392270e-01 -6.171875e-01  0.000000e+00
     vertex  1.484375e-01 -6.149259e-01  3.906250e-02
     vertex  1.392270e-01 -6.171875e-01  3.593750e-01
   endloop
 endfacet
 facet normal  2.335278e-01 -9.723493e-01  1.233050e-03
   outer loop
     vertex  1.392270e-01 -6.171875e-01  0.000000e+00
     vertex  1.423010e-01 -6.164492e-01  0.000000e+00
     vertex  1.484375e-01 -6.149259e-01  3.906250e-02
   endloop
 endfacet
 facet normal -1.000000e+00 -5.737002e-17  0.000000e+00
   outer loop
     vertex  1.392270e-01 -1.333882e-01  0.000000e+00
     vertex  1.392270e-01 -6.171875e-01  0.000000e+00
     vertex  1.392270e-01 -6.171875e-01  3.593750e-01
   endloop
 endfacet
 facet normal -1.000000e+00 -5.737002e-17  0.000000e+00
   outer loop
     vertex  1.392270e-01 -1.333882e-01  0.000000e+00
     vertex  1.392270e-01 -6.171875e-01  3.593750e-01
     vertex  1.392270e-01 -1.333882e-01  3.593750e-01
   endloop
 endfacet
 facet normal -8.748840e-01  4.843325e-01  0.000000e+00
   outer loop
     vertex  1.822250e-01 -5.571780e-02  0.000000e+00
     vertex  1.392270e-01 -1.333882e-01  0.000000e+00
     vertex  1.392270e-01 -1.333882e-01  3.593750e-01
   endloop
 endfacet
 facet normal -8.748840e-01  4.843325e-01  0.000000e+00
   outer loop
     vertex  1.822250e-01 -5.571780e-02  0.000000e+00
     vertex  1.392270e-01 -1.333882e-01  3.593750e-01
     vertex  1.822250e-01 -5.571780e-02  3.593750e-01
   endloop
 endfacet
 facet normal -9.990243e-01  4.416428e-02  0.000000e+00
   outer loop
     vertex  1.861458e-01  3.297347e-02  0.000000e+00
     vertex  1.822250e-01 -5.571780e-02  3.593750e-01
     vertex  1.861458e-01  3.297347e-02  3.593750e-01
   endloop
 endfacet
 facet normal -9.990243e-01  4.416428e-02  0.000000e+00
   outer loop
     vertex  1.861458e-01  3.297347e-02  0.000000e+00
     vertex  1.822250e-01 -5.571780e-02  0.000000e+00
     vertex  1.822250e-01 -5.571780e-02  3.593750e-01
   endloop
 endfacet
 facet normal -9.142098e-01 -4.052413e-01  0.000000e+00
   outer loop
     vertex  1.501693e-01  1.141351e-01  0.000000e+00
     vertex  1.861458e-01  3.297347e-02  3.593750e-01
     vertex  1.501693e-01  1.141351e-01  3.593750e-01
   endloop
 endfacet
 facet normal -9.142098e-01 -4.052413e-01  0.000000e+00
   outer loop
     vertex  1.501693e-01  1.141351e-01  0.000000e+00
     vertex  1.861458e-01  3.297347e-02  0.000000e+00
     vertex  1.861458e-01  3.297347e-02  3.593750e-01
   endloop
 endfacet
 facet normal -6.381801e-01 -7.698871e-01  0.000000e+00
   outer loop
     vertex  8.182038e-02  1.707914e-01  0.000000e+00
     vertex  1.501693e-01  1.141351e-01  3.593750e-01
     vertex  8.182038e-02  1.707914e-01  3.593750e-01
   endloop
 endfacet
 facet normal -6.381801e-01 -7.698871e-01  0.000000e+00
   outer loop
     vertex  8.182038e-02  1.707914e-01  0.000000e+00
     vertex  1.501693e-01  1.141351e-01  0.000000e+00
     vertex  1.501693e-01  1.141351e-01  3.593750e-01
   endloop
 endfacet
 facet normal -2.286695e-01 -9.735041e-01  0.000000e+00
   outer loop
     vertex -4.605263e-03  1.910922e-01  0.000000e+00
     vertex  8.182038e-02  1.707914e-01  3.593750e-01
     vertex -4.605263e-03  1.910922e-01  3.593750e-01
   endloop
 endfacet
 facet normal -2.286695e-01 -9.735041e-01  0.000000e+00
   outer loop
     vertex -4.605263e-03  1.910922e-01  0.000000e+00
     vertex  8.182038e-02  1.707914e-01  0.000000e+00
     vertex  8.182038e-02  1.707914e-01  3.593750e-01
   endloop
 endfacet
 facet normal  2.286695e-01 -9.735041e-01  0.000000e+00
   outer loop
     vertex -9.103091e-02  1.707914e-01  0.000000e+00
     vertex -4.605263e-03  1.910922e-01  3.593750e-01
     vertex -9.103091e-02  1.707914e-01  3.593750e-01
   endloop
 endfacet
 facet normal  2.286695e-01 -9.735041e-01  0.000000e+00
   outer loop
     vertex -9.103091e-02  1.707914e-01  0.000000e+00
     vertex -4.605263e-03  1.910922e-01  0.000000e+00
     vertex -4.605263e-03  1.910922e-01  3.593750e-01
   endloop
 endfacet
 facet normal  6.381801e-01 -7.698871e-01  0.000000e+00
   outer loop
     vertex -1.593799e-01  1.141351e-01  0.000000e+00
     vertex -9.103091e-02  1.707914e-01  3.593750e-01
     vertex -1.593799e-01  1.141351e-01  3.593750e-01
   endloop
 endfacet
 facet normal  6.381801e-01 -7.698871e-01  0.000000e+00
   outer loop
     vertex -1.593799e-01  1.141351e-01  0.000000e+00
     vertex -9.103091e-02  1.707914e-01  0.000000e+00
     vertex -9.103091e-02  1.707914e-01  3.593750e-01
   endloop
 endfacet
 facet normal  9.142098e-01 -4.052413e-01  0.000000e+00
   outer loop
     vertex -1.953563e-01  3.297347e-02  0.000000e+00
     vertex -1.593799e-01  1.141351e-01  3.593750e-01
     vertex -1.953563e-01  3.297347e-02  3.593750e-01
   endloop
 endfacet
 facet normal  9.142098e-01 -4.052413e-01  0.000000e+00
   outer loop
     vertex -1.953563e-01  3.297347e-02  0.000000e+00
     vertex -1.593799e-01  1.141351e-01  0.000000e+00
     vertex -1.593799e-01  1.141351e-01  3.593750e-01
   endloop
 endfacet
 facet normal  9.990243e-01  4.416428e-02 -0.000000e+00
   outer loop
     vertex -1.914355e-01 -5.571780e-02  0.000000e+00
     vertex -1.953563e-01  3.297347e-02  3.593750e-01
     vertex -1.914355e-01 -5.571780e-02  3.593750e-01
   endloop
 endfacet
 facet normal  8.748840e-01  4.843325e-01 -0.000000e+00
   outer loop
     vertex -1.914355e-01 -5.571780e-02  0.000000e+00
     vertex -1.914355e-01 -5.571780e-02  3.593750e-01
     vertex -1.484375e-01 -1.333882e-01  3.593750e-01
   endloop
 endfacet
 facet normal  9.990243e-01  4.416428e-02  0.000000e+00
   outer loop
     vertex -1.914355e-01 -5.571780e-02  0.000000e+00
     vertex -1.953563e-01  3.297347e-02  0.000000e+00
     vertex -1.953563e-01  3.297347e-02  3.593750e-01
   endloop
 endfacet
 facet normal  8.748840e-01  4.843325e-01 -0.000000e+00
   outer loop
     vertex -1.484375e-01 -1.333882e-01  0.000000e+00
     vertex -1.914355e-01 -5.571780e-02  0.000000e+00
     vertex -1.484375e-01 -1.333882e-01  3.593750e-01
   endloop
 endfacet
 facet normal  1.000000e+00  1.166233e-16  0.000000e+00
   outer loop
     vertex -1.484375e-01 -6.093750e-01  3.906250e-02
     vertex -1.484375e-01 -1.333882e-01  0.000000e+00
     vertex -1.484375e-01 -1.333882e-01  3.593750e-01
   endloop
 endfacet
 facet normal  1.000000e+00  1.721100e-16 -8.245375e-17
   outer loop
     vertex -1.484375e-01 -6.093750e-01  3.906250e-02
     vertex -1.484375e-01 -1.333882e-01  3.593750e-01
     vertex -1.484375e-01 -6.171875e-01  3.593750e-01
   endloop
 endfacet
 facet normal  1.000000e+00  0.000000e+00 -8.665155e-17
   outer loop
     vertex -1.484375e-01 -6.171875e-01  3.906250e-02
     vertex -1.484375e-01 -6.093750e-01  3.906250e-02
     vertex -1.484375e-01 -6.171875e-01  3.593750e-01
   endloop
 endfacet
 facet normal  1.000000e+00  1.166233e-16 -0.000000e+00
   outer loop
     vertex -1.484375e-01 -6.093750e-01  0.000000e+00
     vertex -1.484375e-01 -1.333882e-01  0.000000e+00
     vertex -1.484375e-01 -6.093750e-01  3.906250e-02
   endloop
 endfacet
 facet normal  0.000000e+00  0.000000e+00  1.000000e+00
   outer loop
     vertex -5.096709e-01 -3.754164e-01  3.906250e-02
     vertex -6.111329e-01 -4.413764e-01  3.906250e-02
     vertex -4.826880e-01 -5.762863e-01  3.906250e-02
   endloop
 endfacet
 facet normal  0.000000e+00  0.000000e+00  1.000000e+00
   outer loop
     vertex -5.096709e-01 -3.754164e-01  3.906250e-02
     vertex -4.826880e-01 -5.762863e-01  3.906250e-02
     vertex -4.097553e-01 -4.841397e-01  3.906250e-02
   endloop
 endfacet
 facet normal  0.000000e+00  0.000000e+00  1.000000e+00
   outer loop
     vertex -2.870425e-01 -5.662705e-01  3.906250e-02
     vertex -4.826880e-01 -5.762863e-01  3.906250e-02
     vertex -3.253119e-01 -6.759436e-01  3.906250e-02
   endloop
 endfacet
 facet normal  0.000000e+00  0.000000e+00  1.000000e+00
   outer loop
     vertex -2.870425e-01 -5.662705e-01  3.906250e-02
     vertex -4.097553e-01 -4.841397e-01  3.906250e-02
     vertex -4.826880e-01 -5.762863e-01  3.906250e-02
   endloop
 endfacet
 facet normal  0.000000e+00  0.000000e+00  1.000000e+00
   outer loop
     vertex -5.878424e-01 -2.434695e-01  3.906250e-02
     vertex -7.029481e-01 -2.792999e-01  3.906250e-02
     vertex -6.111329e-01 -4.413764e-01  3.906250e-02
   endloop
 endfacet
 facet normal  0.000000e+00  0.000000e+00  1.000000e+00
   outer loop
     vertex -5.878424e-01 -2.434695e-01  3.906250e-02
     vertex -6.111329e-01 -4.413764e-01  3.906250e-02
     vertex -5.096709e-01 -3.754164e-01  3.906250e-02
   endloop
 endfacet
 facet normal  0.000000e+00  0.000000e+00  1.000000e+00
   outer loop
     vertex -1.484375e-01 -6.171875e-01  3.906250e-02
     vertex -3.253119e-01 -6.759436e-01  3.906250e-02
     vertex -1.484375e-01 -7.343750e-01  3.906250e-02
   endloop
 endfacet
 facet normal  0.000000e+00  0.000000e+00  1.000000e+00
   outer loop
     vertex -1.484375e-01 -6.171875e-01  3.906250e-02
     vertex -2.870425e-01 -5.662705e-01  3.906250e-02
     vertex -3.253119e-01 -6.759436e-01  3.906250e-02
   endloop
 endfacet
 facet normal  0.000000e+00  0.000000e+00  1.000000e+00
   outer loop
     vertex -6.325121e-01 -9.675405e-02  3.906250e-02
     vertex -7.526303e-01 -9.977145e-02  3.906250e-02
     vertex -7.029481e-01 -2.792999e-01  3.906250e-02
   endloop
 endfacet
 facet normal  0.000000e+00  0.000000e+00  1.000000e+00
   outer loop
     vertex -6.325121e-01 -9.675405e-02  3.906250e-02
     vertex -7.029481e-01 -2.792999e-01  3.906250e-02
     vertex -5.878424e-01 -2.434695e-01  3.906250e-02
   endloop
 endfacet
 facet normal  0.000000e+00  0.000000e+00  1.000000e+00
   outer loop
     vertex -6.411343e-01  5.636830e-02  3.906250e-02
     vertex -7.572017e-01  8.644857e-02  3.906250e-02
     vertex -7.526303e-01 -9.977145e-02  3.906250e-02
   endloop
 endfacet
 facet normal  0.000000e+00  0.000000e+00  1.000000e+00
   outer loop
     vertex -6.411343e-01  5.636830e-02  3.906250e-02
     vertex -7.526303e-01 -9.977145e-02  3.906250e-02
     vertex -6.325121e-01 -9.675405e-02  3.906250e-02
   endloop
 endfacet
 facet normal  0.000000e+00  0.000000e+00  1.000000e+00
   outer loop
     vertex -6.132175e-01  2.071710e-01  3.906250e-02
     vertex -7.163884e-01  2.681986e-01  3.906250e-02
     vertex -7.572017e-01  8.644857e-02  3.906250e-02
   endloop
 endfacet
 facet normal  0.000000e+00  0.000000e+00  1.000000e+00
   outer loop
     vertex -6.132175e-01  2.071710e-01  3.906250e-02
     vertex -7.572017e-01  8.644857e-02  3.906250e-02
     vertex -6.411343e-01  5.636830e-02  3.906250e-02
   endloop
 endfacet
 facet normal  0.000000e+00  0.000000e+00  1.000000e+00
   outer loop
     vertex  2.200890e-01 -5.920649e-01  3.906250e-02
     vertex  1.484375e-01 -6.149259e-01  3.906250e-02
     vertex  1.484375e-01 -7.343750e-01  3.906250e-02
   endloop
 endfacet
 facet normal  0.000000e+00  0.000000e+00  1.000000e+00
   outer loop
     vertex  3.253119e-01 -6.759436e-01  3.906250e-02
     vertex  2.200890e-01 -5.920649e-01  3.906250e-02
     vertex  1.484375e-01 -7.343750e-01  3.906250e-02
   endloop
 endfacet
 facet normal  0.000000e+00  0.000000e+00  1.000000e+00
   outer loop
     vertex  2.884606e-01 -5.607296e-01  3.906250e-02
     vertex  2.200890e-01 -5.920649e-01  3.906250e-02
     vertex  3.253119e-01 -6.759436e-01  3.906250e-02
   endloop
 endfacet
 facet normal  0.000000e+00  0.000000e+00  1.000000e+00
   outer loop
     vertex -5.503527e-01  3.470596e-01  3.906250e-02
     vertex -7.163884e-01  2.681986e-01  3.906250e-02
     vertex -6.132175e-01  2.071710e-01  3.906250e-02
   endloop
 endfacet
 facet normal  0.000000e+00  0.000000e+00  1.000000e+00
   outer loop
     vertex -6.326366e-01  4.345849e-01  3.906250e-02
     vertex -7.163884e-01  2.681986e-01  3.906250e-02
     vertex -5.503527e-01  3.470596e-01  3.906250e-02
   endloop
 endfacet
 facet normal  0.000000e+00  0.000000e+00  1.000000e+00
   outer loop
     vertex  3.525540e-01 -5.213774e-01  3.906250e-02
     vertex  2.884606e-01 -5.607296e-01  3.906250e-02
     vertex  3.253119e-01 -6.759436e-01  3.906250e-02
   endloop
 endfacet
 facet normal  0.000000e+00  0.000000e+00  1.000000e+00
   outer loop
     vertex  4.826880e-01 -5.762863e-01  3.906250e-02
     vertex  3.525540e-01 -5.213774e-01  3.906250e-02
     vertex  3.253119e-01 -6.759436e-01  3.906250e-02
   endloop
 endfacet
 facet normal  0.000000e+00  0.000000e+00  1.000000e+00
   outer loop
     vertex -4.561227e-01  4.680617e-01  3.906250e-02
     vertex -6.326366e-01  4.345849e-01  3.906250e-02
     vertex -5.503527e-01  3.470596e-01  3.906250e-02
   endloop
 endfacet
 facet normal  0.000000e+00  0.000000e+00  1.000000e+00
   outer loop
     vertex  4.697985e-01 -4.225112e-01  3.906250e-02
     vertex  3.525540e-01 -5.213774e-01  3.906250e-02
     vertex  4.826880e-01 -5.762863e-01  3.906250e-02
   endloop
 endfacet
 facet normal  0.000000e+00  0.000000e+00  1.000000e+00
   outer loop
     vertex -5.109661e-01  5.756349e-01  3.906250e-02
     vertex -6.326366e-01  4.345849e-01  3.906250e-02
     vertex -4.561227e-01  4.680617e-01  3.906250e-02
   endloop
 endfacet
 facet normal  0.000000e+00  0.000000e+00  1.000000e+00
   outer loop
     vertex  6.111329e-01 -4.413764e-01  3.906250e-02
     vertex  4.697985e-01 -4.225112e-01  3.906250e-02
     vertex  4.826880e-01 -5.762863e-01  3.906250e-02
   endloop
 endfacet
 facet normal  0.000000e+00  0.000000e+00  1.000000e+00
   outer loop
     vertex -3.358978e-01  5.632812e-01  3.906250e-02
     vertex -5.109661e-01  5.756349e-01  3.906250e-02
     vertex -4.561227e-01  4.680617e-01  3.906250e-02
   endloop
 endfacet
 facet normal  0.000000e+00  0.000000e+00  1.000000e+00
   outer loop
     vertex  5.602687e-01 -2.986728e-01  3.906250e-02
     vertex  4.697985e-01 -4.225112e-01  3.906250e-02
     vertex  6.111329e-01 -4.413764e-01  3.906250e-02
   endloop
 endfacet
 facet normal  0.000000e+00  0.000000e+00  1.000000e+00
   outer loop
     vertex -3.586695e-01  6.828942e-01  3.906250e-02
     vertex -5.109661e-01  5.756349e-01  3.906250e-02
     vertex -3.358978e-01  5.632812e-01  3.906250e-02
   endloop
 endfacet
 facet normal  0.000000e+00  0.000000e+00  1.000000e+00
   outer loop
     vertex  7.029481e-01 -2.792999e-01  3.906250e-02
     vertex  5.602687e-01 -2.986728e-01  3.906250e-02
     vertex  6.111329e-01 -4.413764e-01  3.906250e-02
   endloop
 endfacet
 facet normal  0.000000e+00  0.000000e+00  1.000000e+00
   outer loop
     vertex -1.965297e-01  6.272916e-01  3.906250e-02
     vertex -3.586695e-01  6.828942e-01  3.906250e-02
     vertex -3.358978e-01  5.632812e-01  3.906250e-02
   endloop
 endfacet
 facet normal  0.000000e+00  0.000000e+00  1.000000e+00
   outer loop
     vertex  6.188085e-01 -1.569199e-01  3.906250e-02
     vertex  5.602687e-01 -2.986728e-01  3.906250e-02
     vertex  7.029481e-01 -2.792999e-01  3.906250e-02
   endloop
 endfacet
 facet normal  0.000000e+00  0.000000e+00  1.000000e+00
   outer loop
     vertex -1.848752e-01  7.499340e-01  3.906250e-02
     vertex -3.586695e-01  6.828942e-01  3.906250e-02
     vertex -1.965297e-01  6.272916e-01  3.906250e-02
   endloop
 endfacet
 facet normal  0.000000e+00  0.000000e+00  1.000000e+00
   outer loop
     vertex -4.596117e-02  6.564447e-01  3.906250e-02
     vertex -1.848752e-01  7.499340e-01  3.906250e-02
     vertex -1.965297e-01  6.272916e-01  3.906250e-02
   endloop
 endfacet
 facet normal  0.000000e+00  0.000000e+00  1.000000e+00
   outer loop
     vertex  7.526303e-01 -9.977145e-02  3.906250e-02
     vertex  6.188085e-01 -1.569199e-01  3.906250e-02
     vertex  7.029481e-01 -2.792999e-01  3.906250e-02
   endloop
 endfacet
 facet normal  0.000000e+00  0.000000e+00  1.000000e+00
   outer loop
     vertex  7.526303e-01 -9.977145e-02  3.906250e-02
     vertex  6.420817e-01 -5.331184e-03  3.906250e-02
     vertex  6.188085e-01 -1.569199e-01  3.906250e-02
   endloop
 endfacet
 facet normal  0.000000e+00  0.000000e+00  1.000000e+00
   outer loop
     vertex  1.762479e-15  7.727362e-01  3.906250e-02
     vertex -1.848752e-01  7.499340e-01  3.906250e-02
     vertex -4.596117e-02  6.564447e-01  3.906250e-02
   endloop
 endfacet
 facet normal  0.000000e+00  0.000000e+00  1.000000e+00
   outer loop
     vertex  1.762479e-15  7.727362e-01  3.906250e-02
     vertex -4.596117e-02  6.564447e-01  3.906250e-02
     vertex  1.072268e-01  6.490791e-01  3.906250e-02
   endloop
 endfacet
 facet normal  0.000000e+00  0.000000e+00  1.000000e+00
   outer loop
     vertex  7.572017e-01  8.644857e-02  3.906250e-02
     vertex  6.287620e-01  1.474542e-01  3.906250e-02
     vertex  6.420817e-01 -5.331184e-03  3.906250e-02
   endloop
 endfacet
 facet normal  0.000000e+00  0.000000e+00  1.000000e+00
   outer loop
     vertex  7.572017e-01  8.644857e-02  3.906250e-02
     vertex  6.420817e-01 -5.331184e-03  3.906250e-02
     vertex  7.526303e-01 -9.977145e-02  3.906250e-02
   endloop
 endfacet
 facet normal  0.000000e+00  0.000000e+00  1.000000e+00
   outer loop
     vertex  1.848752e-01  7.499340e-01  3.906250e-02
     vertex  1.072268e-01  6.490791e-01  3.906250e-02
     vertex  2.543037e-01  6.056146e-01  3.906250e-02
   endloop
 endfacet
 facet normal  0.000000e+00  0.000000e+00  1.000000e+00
   outer loop
     vertex  1.848752e-01  7.499340e-01  3.906250e-02
     vertex  1.762479e-15  7.727362e-01  3.906250e-02
     vertex  1.072268e-01  6.490791e-01  3.906250e-02
   endloop
 endfacet
 facet normal  0.000000e+00  0.000000e+00  1.000000e+00
   outer loop
     vertex  7.163884e-01  2.681986e-01  3.906250e-02
     vertex  6.287620e-01  1.474542e-01  3.906250e-02
     vertex  7.572017e-01  8.644857e-02  3.906250e-02
   endloop
 endfacet
 facet normal  0.000000e+00  0.000000e+00  1.000000e+00
   outer loop
     vertex  7.163884e-01  2.681986e-01  3.906250e-02
     vertex  5.796085e-01  2.927289e-01  3.906250e-02
     vertex  6.287620e-01  1.474542e-01  3.906250e-02
   endloop
 endfacet
 facet normal  0.000000e+00  0.000000e+00  1.000000e+00
   outer loop
     vertex  3.586695e-01  6.828942e-01  3.906250e-02
     vertex  1.848752e-01  7.499340e-01  3.906250e-02
     vertex  2.543037e-01  6.056146e-01  3.906250e-02
   endloop
 endfacet
 facet normal  0.000000e+00  0.000000e+00  1.000000e+00
   outer loop
     vertex  3.586695e-01  6.828942e-01  3.906250e-02
     vertex  2.543037e-01  6.056146e-01  3.906250e-02
     vertex  3.868876e-01  5.285283e-01  3.906250e-02
   endloop
 endfacet
 facet normal  0.000000e+00  0.000000e+00  1.000000e+00
   outer loop
     vertex  6.326366e-01  4.345849e-01  3.906250e-02
     vertex  5.796085e-01  2.927289e-01  3.906250e-02
     vertex  7.163884e-01  2.681986e-01  3.906250e-02
   endloop
 endfacet
 facet normal  0.000000e+00  0.000000e+00  1.000000e+00
   outer loop
     vertex  6.326366e-01  4.345849e-01  3.906250e-02
     vertex  4.974224e-01  4.222134e-01  3.906250e-02
     vertex  5.796085e-01  2.927289e-01  3.906250e-02
   endloop
 endfacet
 facet normal  0.000000e+00  0.000000e+00  1.000000e+00
   outer loop
     vertex  5.109661e-01  5.756349e-01  3.906250e-02
     vertex  3.868876e-01  5.285283e-01  3.906250e-02
     vertex  4.974224e-01  4.222134e-01  3.906250e-02
   endloop
 endfacet
 facet normal  0.000000e+00  0.000000e+00  1.000000e+00
   outer loop
     vertex  5.109661e-01  5.756349e-01  3.906250e-02
     vertex  4.974224e-01  4.222134e-01  3.906250e-02
     vertex  6.326366e-01  4.345849e-01  3.906250e-02
   endloop
 endfacet
 facet normal  0.000000e+00  0.000000e+00  1.000000e+00
   outer loop
     vertex  5.109661e-01  5.756349e-01  3.906250e-02
     vertex  3.586695e-01  6.828942e-01  3.906250e-02
     vertex  3.868876e-01  5.285283e-01  3.906250e-02
   endloop
 endfacet
 facet normal  0.000000e+00  0.000000e+00  1.000000e+00
   outer loop
     vertex -1.484375e-01 -1.333882e-01  3.593750e-01
     vertex -2.895912e-01 -5.649655e-01  3.593750e-01
     vertex -1.484375e-01 -6.171875e-01  3.593750e-01
   endloop
 endfacet
 facet normal  0.000000e+00  0.000000e+00  1.000000e+00
   outer loop
     vertex -1.484375e-01 -1.333882e-01  3.593750e-01
     vertex -4.140858e-01 -4.803925e-01  3.593750e-01
     vertex -2.895912e-01 -5.649655e-01  3.593750e-01
   endloop
 endfacet
 facet normal  0.000000e+00  0.000000e+00  1.000000e+00
   outer loop
     vertex -1.484375e-01 -1.333882e-01  3.593750e-01
     vertex -5.146440e-01 -3.684123e-01  3.593750e-01
     vertex -4.140858e-01 -4.803925e-01  3.593750e-01
   endloop
 endfacet
 facet normal  0.000000e+00  0.000000e+00  1.000000e+00
   outer loop
     vertex -1.484375e-01 -1.333882e-01  3.593750e-01
     vertex -5.853875e-01 -2.355708e-01  3.593750e-01
     vertex -5.146440e-01 -3.684123e-01  3.593750e-01
   endloop
 endfacet
 facet normal  0.000000e+00  0.000000e+00  1.000000e+00
   outer loop
     vertex -1.914355e-01 -5.571780e-02  3.593750e-01
     vertex -6.221809e-01 -8.963337e-02  3.593750e-01
     vertex -5.853875e-01 -2.355708e-01  3.593750e-01
   endloop
 endfacet
 facet normal  0.000000e+00  0.000000e+00  1.000000e+00
   outer loop
     vertex -1.914355e-01 -5.571780e-02  3.593750e-01
     vertex -5.853875e-01 -2.355708e-01  3.593750e-01
     vertex -1.484375e-01 -1.333882e-01  3.593750e-01
   endloop
 endfacet
 facet normal  0.000000e+00  0.000000e+00  1.000000e+00
   outer loop
     vertex -1.953563e-01  3.297347e-02  3.593750e-01
     vertex -6.228735e-01  6.086920e-02  3.593750e-01
     vertex -6.221809e-01 -8.963337e-02  3.593750e-01
   endloop
 endfacet
 facet normal  0.000000e+00  0.000000e+00  1.000000e+00
   outer loop
     vertex -1.953563e-01  3.297347e-02  3.593750e-01
     vertex -5.874248e-01  2.071391e-01  3.593750e-01
     vertex -6.228735e-01  6.086920e-02  3.593750e-01
   endloop
 endfacet
 facet normal  0.000000e+00  0.000000e+00  1.000000e+00
   outer loop
     vertex -1.953563e-01  3.297347e-02  3.593750e-01
     vertex -6.221809e-01 -8.963337e-02  3.593750e-01
     vertex -1.914355e-01 -5.571780e-02  3.593750e-01
   endloop
 endfacet
 facet normal  0.000000e+00  0.000000e+00  1.000000e+00
   outer loop
     vertex -1.593799e-01  1.141351e-01  3.593750e-01
     vertex -5.179070e-01  3.406261e-01  3.593750e-01
     vertex -5.874248e-01  2.071391e-01  3.593750e-01
   endloop
 endfacet
 facet normal  0.000000e+00  0.000000e+00  1.000000e+00
   outer loop
     vertex -1.593799e-01  1.141351e-01  3.593750e-01
     vertex -5.874248e-01  2.071391e-01  3.593750e-01
     vertex -1.953563e-01  3.297347e-02  3.593750e-01
   endloop
 endfacet
 facet normal  0.000000e+00  0.000000e+00  1.000000e+00
   outer loop
     vertex  1.392270e-01 -1.333882e-01  3.593750e-01
     vertex  2.803807e-01 -5.649655e-01  3.593750e-01
     vertex  4.048753e-01 -4.803925e-01  3.593750e-01
   endloop
 endfacet
 facet normal  0.000000e+00  0.000000e+00  1.000000e+00
   outer loop
     vertex  1.392270e-01 -1.333882e-01  3.593750e-01
     vertex  1.392270e-01 -6.171875e-01  3.593750e-01
     vertex  2.803807e-01 -5.649655e-01  3.593750e-01
   endloop
 endfacet
 facet normal  0.000000e+00  0.000000e+00  1.000000e+00
   outer loop
     vertex -4.183837e-01  4.535271e-01  3.593750e-01
     vertex -5.179070e-01  3.406261e-01  3.593750e-01
     vertex -1.593799e-01  1.141351e-01  3.593750e-01
   endloop
 endfacet
 facet normal  0.000000e+00  0.000000e+00  1.000000e+00
   outer loop
     vertex -9.103091e-02  1.707914e-01  3.593750e-01
     vertex -4.183837e-01  4.535271e-01  3.593750e-01
     vertex -1.593799e-01  1.141351e-01  3.593750e-01
   endloop
 endfacet
 facet normal  0.000000e+00  0.000000e+00  1.000000e+00
   outer loop
     vertex  5.054335e-01 -3.684123e-01  3.593750e-01
     vertex  1.392270e-01 -1.333882e-01  3.593750e-01
     vertex  4.048753e-01 -4.803925e-01  3.593750e-01
   endloop
 endfacet
 facet normal  0.000000e+00  0.000000e+00  1.000000e+00
   outer loop
     vertex -2.946727e-01  5.392423e-01  3.593750e-01
     vertex -4.183837e-01  4.535271e-01  3.593750e-01
     vertex -9.103091e-02  1.707914e-01  3.593750e-01
   endloop
 endfacet
 facet normal  0.000000e+00  0.000000e+00  1.000000e+00
   outer loop
     vertex  5.761770e-01 -2.355708e-01  3.593750e-01
     vertex  1.822250e-01 -5.571780e-02  3.593750e-01
     vertex  1.392270e-01 -1.333882e-01  3.593750e-01
   endloop
 endfacet
 facet normal  0.000000e+00  0.000000e+00  1.000000e+00
   outer loop
     vertex  5.761770e-01 -2.355708e-01  3.593750e-01
     vertex  1.392270e-01 -1.333882e-01  3.593750e-01
     vertex  5.054335e-01 -3.684123e-01  3.593750e-01
   endloop
 endfacet
 facet normal  0.000000e+00  0.000000e+00  1.000000e+00
   outer loop
     vertex -1.540057e-01  5.927612e-01  3.593750e-01
     vertex -9.103091e-02  1.707914e-01  3.593750e-01
     vertex -4.605263e-03  1.910922e-01  3.593750e-01
   endloop
 endfacet
 facet normal  0.000000e+00  0.000000e+00  1.000000e+00
   outer loop
     vertex -1.540057e-01  5.927612e-01  3.593750e-01
     vertex -2.946727e-01  5.392423e-01  3.593750e-01
     vertex -9.103091e-02  1.707914e-01  3.593750e-01
   endloop
 endfacet
 facet normal  0.000000e+00  0.000000e+00  1.000000e+00
   outer loop
     vertex  6.129704e-01 -8.963337e-02  3.593750e-01
     vertex  1.861458e-01  3.297347e-02  3.593750e-01
     vertex  1.822250e-01 -5.571780e-02  3.593750e-01
   endloop
 endfacet
 facet normal  0.000000e+00  0.000000e+00  1.000000e+00
   outer loop
     vertex  6.129704e-01 -8.963337e-02  3.593750e-01
     vertex  1.822250e-01 -5.571780e-02  3.593750e-01
     vertex  5.761770e-01 -2.355708e-01  3.593750e-01
   endloop
 endfacet
 facet normal  0.000000e+00  0.000000e+00  1.000000e+00
   outer loop
     vertex -4.605263e-03  6.109554e-01  3.593750e-01
     vertex -1.540057e-01  5.927612e-01  3.593750e-01
     vertex -4.605263e-03  1.910922e-01  3.593750e-01
   endloop
 endfacet
 facet normal  0.000000e+00  0.000000e+00  1.000000e+00
   outer loop
     vertex  6.136630e-01  6.086920e-02  3.593750e-01
     vertex  1.861458e-01  3.297347e-02  3.593750e-01
     vertex  6.129704e-01 -8.963337e-02  3.593750e-01
   endloop
 endfacet
 facet normal  0.000000e+00  0.000000e+00  1.000000e+00
   outer loop
     vertex  1.447951e-01  5.927612e-01  3.593750e-01
     vertex -4.605263e-03  1.910922e-01  3.593750e-01
     vertex  8.182038e-02  1.707914e-01  3.593750e-01
   endloop
 endfacet
 facet normal  0.000000e+00  0.000000e+00  1.000000e+00
   outer loop
     vertex  1.447951e-01  5.927612e-01  3.593750e-01
     vertex -4.605263e-03  6.109554e-01  3.593750e-01
     vertex -4.605263e-03  1.910922e-01  3.593750e-01
   endloop
 endfacet
 facet normal  0.000000e+00  0.000000e+00  1.000000e+00
   outer loop
     vertex  5.782143e-01  2.071391e-01  3.593750e-01
     vertex  1.501693e-01  1.141351e-01  3.593750e-01
     vertex  1.861458e-01  3.297347e-02  3.593750e-01
   endloop
 endfacet
 facet normal  0.000000e+00  0.000000e+00  1.000000e+00
   outer loop
     vertex  5.782143e-01  2.071391e-01  3.593750e-01
     vertex  1.861458e-01  3.297347e-02  3.593750e-01
     vertex  6.136630e-01  6.086920e-02  3.593750e-01
   endloop
 endfacet
 facet normal  0.000000e+00  0.000000e+00  1.000000e+00
   outer loop
     vertex  2.854622e-01  5.392423e-01  3.593750e-01
     vertex  1.447951e-01  5.927612e-01  3.593750e-01
     vertex  8.182038e-02  1.707914e-01  3.593750e-01
   endloop
 endfacet
 facet normal  0.000000e+00  0.000000e+00  1.000000e+00
   outer loop
     vertex  5.086965e-01  3.406261e-01  3.593750e-01
     vertex  1.501693e-01  1.141351e-01  3.593750e-01
     vertex  5.782143e-01  2.071391e-01  3.593750e-01
   endloop
 endfacet
 facet normal  0.000000e+00  0.000000e+00  1.000000e+00
   outer loop
     vertex  4.091732e-01  4.535271e-01  3.593750e-01
     vertex  8.182038e-02  1.707914e-01  3.593750e-01
     vertex  1.501693e-01  1.141351e-01  3.593750e-01
   endloop
 endfacet
 facet normal  0.000000e+00  0.000000e+00  1.000000e+00
   outer loop
     vertex  4.091732e-01  4.535271e-01  3.593750e-01
     vertex  1.501693e-01  1.141351e-01  3.593750e-01
     vertex  5.086965e-01  3.406261e-01  3.593750e-01
   endloop
 endfacet
 facet normal  0.000000e+00  0.000000e+00  1.000000e+00
   outer loop
     vertex  4.091732e-01  4.535271e-01  3.593750e-01
     vertex  2.854622e-01  5.392423e-01  3.593750e-01
     vertex  8.182038e-02  1.707914e-01  3.593750e-01
   endloop
 endfacet
endsolid
