solid 
 facet normal  1.000000e+00  0.000000e+00  0.000000e+00
   outer loop
     vertex  7.500000e-01 -2.500000e-01  1.263158e-01
     vertex  7.500000e-01 -5.000000e-01  1.250000e-01
     vertex  7.500000e-01 -2.500000e-01  1.250000e-01
   endloop
 endfacet
 facet normal  1.000000e+00  0.000000e+00  0.000000e+00
   outer loop
     vertex  7.500000e-01 -2.500000e-01  1.263158e-01
     vertex  7.500000e-01 -5.000000e-01  1.263158e-01
     vertex  7.500000e-01 -5.000000e-01  1.250000e-01
   endloop
 endfacet
 facet normal  1.000000e+00  0.000000e+00  0.000000e+00
   outer loop
     vertex  7.500000e-01  4.592425e-17 -4.592425e-17
     vertex  7.500000e-01 -2.500000e-01  1.250000e-01
     vertex  7.500000e-01 -2.500000e-01 -3.571886e-17
   endloop
 endfacet
 facet normal  1.000000e+00  0.000000e+00  0.000000e+00
   outer loop
     vertex  7.500000e-01  5.365887e-17  1.263158e-01
     vertex  7.500000e-01 -2.500000e-01  1.263158e-01
     vertex  7.500000e-01 -2.500000e-01  1.250000e-01
   endloop
 endfacet
 facet normal  1.000000e+00  0.000000e+00  0.000000e+00
   outer loop
     vertex  7.500000e-01  5.365887e-17  1.263158e-01
     vertex  7.500000e-01 -2.500000e-01  1.250000e-01
     vertex  7.500000e-01  4.592425e-17 -4.592425e-17
   endloop
 endfacet
 facet normal  1.000000e+00  0.000000e+00  0.000000e+00
   outer loop
     vertex  7.500000e-01 -2.500000e-01  2.500000e-01
     vertex  7.500000e-01 -5.000000e-01  1.263158e-01
     vertex  7.500000e-01 -2.500000e-01  1.263158e-01
   endloop
 endfacet
 facet normal  1.000000e+00  0.000000e+00  0.000000e+00
   outer loop
     vertex  7.500000e-01 -2.500000e-01  2.500000e-01
     vertex  7.500000e-01 -5.000000e-01  2.500000e-01
     vertex  7.500000e-01 -5.000000e-01  1.263158e-01
   endloop
 endfacet
 facet normal -0.000000e+00 -1.000000e+00 -0.000000e+00
   outer loop
     vertex  6.263158e-01 -5.000000e-01  2.500000e-01
     vertex  6.250000e-01 -5.000000e-01  2.500000e-01
     vertex  7.500000e-01 -5.000000e-01  1.250000e-01
   endloop
 endfacet
 facet normal  4.263729e-14 -1.000000e+00  4.218847e-14
   outer loop
     vertex  6.263158e-01 -5.000000e-01  2.500000e-01
     vertex  7.500000e-01 -5.000000e-01  1.250000e-01
     vertex  7.500000e-01 -5.000000e-01  1.263158e-01
   endloop
 endfacet
 facet normal  1.000000e+00  0.000000e+00  0.000000e+00
   outer loop
     vertex  7.500000e-01 -2.500000e-01  1.250000e-01
     vertex  7.500000e-01 -5.000000e-01 -3.061617e-17
     vertex  7.500000e-01 -2.500000e-01 -3.571886e-17
   endloop
 endfacet
 facet normal  1.000000e+00  0.000000e+00  0.000000e+00
   outer loop
     vertex  7.500000e-01 -2.500000e-01  1.250000e-01
     vertex  7.500000e-01 -5.000000e-01  1.250000e-01
     vertex  7.500000e-01 -5.000000e-01 -3.061617e-17
   endloop
 endfacet
 facet normal -6.123234e-17 -4.082156e-17 -1.000000e+00
   outer loop
     vertex  7.500000e-01  4.592425e-17 -4.592425e-17
     vertex  1.020539e-17 -2.500000e-01  1.020539e-17
     vertex  0.000000e+00  0.000000e+00  0.000000e+00
   endloop
 endfacet
 facet normal -6.123234e-17 -4.082156e-17 -1.000000e+00
   outer loop
     vertex  7.500000e-01  4.592425e-17 -4.592425e-17
     vertex  7.500000e-01 -2.500000e-01 -3.571886e-17
     vertex  1.020539e-17 -2.500000e-01  1.020539e-17
   endloop
 endfacet
 facet normal  7.071068e-01  0.000000e+00  7.071068e-01
   outer loop
     vertex  7.500000e-01  5.365887e-17  1.263158e-01
     vertex  6.263158e-01 -2.500000e-01  2.500000e-01
     vertex  7.500000e-01 -2.500000e-01  1.263158e-01
   endloop
 endfacet
 facet normal  7.071068e-01  3.728970e-15  7.071068e-01
   outer loop
     vertex  7.500000e-01  5.365887e-17  1.263158e-01
     vertex  6.236842e-01 -2.500000e-01  2.526316e-01
     vertex  6.263158e-01 -2.500000e-01  2.500000e-01
   endloop
 endfacet
 facet normal  7.071068e-01  0.000000e+00  7.071068e-01
   outer loop
     vertex  3.789474e-01  5.365887e-17  4.973684e-01
     vertex  3.789474e-01 -2.500000e-01  4.973684e-01
     vertex  6.236842e-01 -2.500000e-01  2.526316e-01
   endloop
 endfacet
 facet normal  7.071068e-01  1.057864e-16  7.071068e-01
   outer loop
     vertex  3.789474e-01  5.365887e-17  4.973684e-01
     vertex  6.236842e-01 -2.500000e-01  2.526316e-01
     vertex  7.500000e-01  5.365887e-17  1.263158e-01
   endloop
 endfacet
 facet normal -6.123234e-17  1.000000e+00 -6.123234e-17
   outer loop
     vertex  7.500000e-01  5.365887e-17  1.263158e-01
     vertex  7.500000e-01  4.592425e-17 -4.592425e-17
     vertex  0.000000e+00  0.000000e+00  0.000000e+00
   endloop
 endfacet
 facet normal -6.123234e-17  1.000000e+00 -6.123234e-17
   outer loop
     vertex  3.789474e-01  5.365887e-17  4.973684e-01
     vertex  0.000000e+00  0.000000e+00  0.000000e+00
     vertex  3.045503e-17  3.045503e-17  4.973684e-01
   endloop
 endfacet
 facet normal -6.123234e-17  1.000000e+00 -6.123234e-17
   outer loop
     vertex  3.789474e-01  5.365887e-17  4.973684e-01
     vertex  7.500000e-01  5.365887e-17  1.263158e-01
     vertex  0.000000e+00  0.000000e+00  0.000000e+00
   endloop
 endfacet
 facet normal  2.244068e-16  1.000000e+00  6.732203e-16
   outer loop
     vertex  7.500000e-01 -2.500000e-01  2.500000e-01
     vertex  7.500000e-01 -2.500000e-01  1.263158e-01
     vertex  6.263158e-01 -2.500000e-01  2.500000e-01
   endloop
 endfacet
 facet normal -2.244068e-16  0.000000e+00  1.000000e+00
   outer loop
     vertex  6.263158e-01 -2.500000e-01  2.500000e-01
     vertex  7.500000e-01 -5.000000e-01  2.500000e-01
     vertex  7.500000e-01 -2.500000e-01  2.500000e-01
   endloop
 endfacet
 facet normal  0.000000e+00  1.110223e-16  1.000000e+00
   outer loop
     vertex  6.263158e-01 -2.500000e-01  2.500000e-01
     vertex  6.263158e-01 -5.000000e-01  2.500000e-01
     vertex  7.500000e-01 -5.000000e-01  2.500000e-01
   endloop
 endfacet
 facet normal -0.000000e+00 -1.000000e+00 -4.488136e-16
   outer loop
     vertex  7.500000e-01 -5.000000e-01  2.500000e-01
     vertex  6.263158e-01 -5.000000e-01  2.500000e-01
     vertex  7.500000e-01 -5.000000e-01  1.263158e-01
   endloop
 endfacet
 facet normal  7.401487e-17 -1.000000e+00 -1.850372e-16
   outer loop
     vertex  6.250000e-01 -5.000000e-01  2.500000e-01
     vertex  1.530808e-17 -5.000000e-01  1.530808e-17
     vertex  7.500000e-01 -5.000000e-01 -3.061617e-17
   endloop
 endfacet
 facet normal -4.440892e-16 -1.000000e+00 -4.440892e-16
   outer loop
     vertex  7.500000e-01 -5.000000e-01  1.250000e-01
     vertex  6.250000e-01 -5.000000e-01  2.500000e-01
     vertex  7.500000e-01 -5.000000e-01 -3.061617e-17
   endloop
 endfacet
 facet normal  8.900522e-17 -1.000000e+00  0.000000e+00
   outer loop
     vertex  6.236842e-01 -5.000000e-01  2.526316e-01
     vertex  3.077731e-17 -5.000000e-01  2.526316e-01
     vertex  1.530808e-17 -5.000000e-01  1.530808e-17
   endloop
 endfacet
 facet normal  0.000000e+00 -1.000000e+00  2.109424e-14
   outer loop
     vertex  6.236842e-01 -5.000000e-01  2.526316e-01
     vertex  6.250000e-01 -5.000000e-01  2.500000e-01
     vertex  6.263158e-01 -5.000000e-01  2.500000e-01
   endloop
 endfacet
 facet normal -7.031412e-15 -1.000000e+00  1.757853e-14
   outer loop
     vertex  6.236842e-01 -5.000000e-01  2.526316e-01
     vertex  1.530808e-17 -5.000000e-01  1.530808e-17
     vertex  6.250000e-01 -5.000000e-01  2.500000e-01
   endloop
 endfacet
 facet normal -6.123234e-17 -2.041078e-17 -1.000000e+00
   outer loop
     vertex  7.500000e-01 -2.500000e-01 -3.571886e-17
     vertex  1.530808e-17 -5.000000e-01  1.530808e-17
     vertex  1.020539e-17 -2.500000e-01  1.020539e-17
   endloop
 endfacet
 facet normal -6.123234e-17 -2.041078e-17 -1.000000e+00
   outer loop
     vertex  7.500000e-01 -2.500000e-01 -3.571886e-17
     vertex  7.500000e-01 -5.000000e-01 -3.061617e-17
     vertex  1.530808e-17 -5.000000e-01  1.530808e-17
   endloop
 endfacet
 facet normal -1.000000e+00 -6.123234e-17  1.237815e-16
   outer loop
     vertex  3.045503e-17  3.045503e-17  4.973684e-01
     vertex  1.546922e-17 -2.500000e-01  2.526316e-01
     vertex  4.576312e-17 -2.500000e-01  4.973684e-01
   endloop
 endfacet
 facet normal -1.000000e+00 -4.082156e-17  2.083600e-17
   outer loop
     vertex  0.000000e+00  0.000000e+00  0.000000e+00
     vertex  1.020539e-17 -2.500000e-01  1.020539e-17
     vertex  1.546922e-17 -2.500000e-01  2.526316e-01
   endloop
 endfacet
 facet normal -1.000000e+00  0.000000e+00  6.123234e-17
   outer loop
     vertex  0.000000e+00  0.000000e+00  0.000000e+00
     vertex  1.546922e-17 -2.500000e-01  2.526316e-01
     vertex  3.045503e-17  3.045503e-17  4.973684e-01
   endloop
 endfacet
 facet normal -0.000000e+00  0.000000e+00  1.000000e+00
   outer loop
     vertex  3.045503e-17  3.045503e-17  4.973684e-01
     vertex  3.789474e-01 -2.500000e-01  4.973684e-01
     vertex  3.789474e-01  5.365887e-17  4.973684e-01
   endloop
 endfacet
 facet normal  0.000000e+00  0.000000e+00  1.000000e+00
   outer loop
     vertex  3.045503e-17  3.045503e-17  4.973684e-01
     vertex  4.576312e-17 -2.500000e-01  4.973684e-01
     vertex  3.789474e-01 -2.500000e-01  4.973684e-01
   endloop
 endfacet
 facet normal  7.071068e-01  7.829380e-17  7.071068e-01
   outer loop
     vertex  6.236842e-01 -2.500000e-01  2.526316e-01
     vertex  6.263158e-01 -5.000000e-01  2.500000e-01
     vertex  6.263158e-01 -2.500000e-01  2.500000e-01
   endloop
 endfacet
 facet normal  7.071068e-01  0.000000e+00  7.071068e-01
   outer loop
     vertex  6.236842e-01 -2.500000e-01  2.526316e-01
     vertex  6.236842e-01 -5.000000e-01  2.526316e-01
     vertex  6.263158e-01 -5.000000e-01  2.500000e-01
   endloop
 endfacet
 facet normal  7.324388e-17 -1.000000e+00 -1.661316e-32
   outer loop
     vertex  3.789474e-01 -2.500000e-01  4.973684e-01
     vertex  4.576312e-17 -2.500000e-01  4.973684e-01
     vertex  1.546922e-17 -2.500000e-01  2.526316e-01
   endloop
 endfacet
 facet normal  4.450261e-17 -1.000000e+00  4.450261e-17
   outer loop
     vertex  6.236842e-01 -2.500000e-01  2.526316e-01
     vertex  3.789474e-01 -2.500000e-01  4.973684e-01
     vertex  1.546922e-17 -2.500000e-01  2.526316e-01
   endloop
 endfacet
 facet normal -1.000000e+00 -6.123234e-17  2.083600e-17
   outer loop
     vertex  1.020539e-17 -2.500000e-01  1.020539e-17
     vertex  3.077731e-17 -5.000000e-01  2.526316e-01
     vertex  1.546922e-17 -2.500000e-01  2.526316e-01
   endloop
 endfacet
 facet normal -1.000000e+00 -2.041078e-17  6.123234e-17
   outer loop
     vertex  1.020539e-17 -2.500000e-01  1.020539e-17
     vertex  1.530808e-17 -5.000000e-01  1.530808e-17
     vertex  3.077731e-17 -5.000000e-01  2.526316e-01
   endloop
 endfacet
 facet normal  8.900522e-17  0.000000e+00  1.000000e+00
   outer loop
     vertex  1.546922e-17 -2.500000e-01  2.526316e-01
     vertex  6.236842e-01 -5.000000e-01  2.526316e-01
     vertex  6.236842e-01 -2.500000e-01  2.526316e-01
   endloop
 endfacet
 facet normal  8.900522e-17  5.449998e-33  1.000000e+00
   outer loop
     vertex  1.546922e-17 -2.500000e-01  2.526316e-01
     vertex  3.077731e-17 -5.000000e-01  2.526316e-01
     vertex  6.236842e-01 -5.000000e-01  2.526316e-01
   endloop
 endfacet
endsolid
