solid 
 facet normal -9.329861e-01  3.591828e-01 -2.290352e-02
   outer loop
     vertex -3.780970e-01  5.486592e-02 -4.604382e-01
     vertex -3.959688e-01  1.937465e-03 -5.624700e-01
     vertex -3.984613e-01  1.937465e-03 -4.609381e-01
   endloop
 endfacet
 facet normal -8.603921e-01  4.981239e-01 -1.076939e-01
   outer loop
     vertex -3.780970e-01  5.486592e-02 -4.604382e-01
     vertex -3.565070e-01  7.030789e-02 -5.615013e-01
     vertex -3.959688e-01  1.937465e-03 -5.624700e-01
   endloop
 endfacet
 facet normal  2.445882e-03  9.950211e-01 -9.963421e-02
   outer loop
     vertex -3.275133e-01  8.048069e-02 -4.591964e-01
     vertex -2.775834e-01  7.030789e-02 -5.595638e-01
     vertex -3.565070e-01  7.030789e-02 -5.615013e-01
   endloop
 endfacet
 facet normal -4.521829e-01  8.910480e-01  3.954850e-02
   outer loop
     vertex -3.275133e-01  8.048069e-02 -4.591964e-01
     vertex -3.565070e-01  7.030789e-02 -5.615013e-01
     vertex -3.780970e-01  5.486592e-02 -4.604382e-01
   endloop
 endfacet
 facet normal  2.631380e-01  9.641876e-01  3.317779e-02
   outer loop
     vertex -2.727633e-01  6.556330e-02 -4.599091e-01
     vertex -2.775834e-01  7.030789e-02 -5.595638e-01
     vertex -3.275133e-01  8.048069e-02 -4.591964e-01
   endloop
 endfacet
 facet normal  2.629534e-01  9.647869e-01  6.455144e-03
   outer loop
     vertex -2.728138e-01  6.556330e-02 -4.578536e-01
     vertex -2.727633e-01  6.556330e-02 -4.599091e-01
     vertex -3.275133e-01  8.048069e-02 -4.591964e-01
   endloop
 endfacet
 facet normal  8.644896e-01  4.979960e-01 -6.824788e-02
   outer loop
     vertex -2.445541e-01  2.672318e-02 -4.592166e-01
     vertex -2.381216e-01  1.937465e-03 -5.585951e-01
     vertex -2.775834e-01  7.030789e-02 -5.595638e-01
   endloop
 endfacet
 facet normal  8.091583e-01  5.874846e-01 -1.116717e-02
   outer loop
     vertex -2.445541e-01  2.672318e-02 -4.592166e-01
     vertex -2.775834e-01  7.030789e-02 -5.595638e-01
     vertex -2.727633e-01  6.556330e-02 -4.599091e-01
   endloop
 endfacet
 facet normal  8.646693e-01 -4.981491e-01 -6.476455e-02
   outer loop
     vertex -2.440545e-01 -2.128248e-02 -4.592043e-01
     vertex -2.775834e-01 -6.643296e-02 -5.595638e-01
     vertex -2.381216e-01  1.937465e-03 -5.585951e-01
   endloop
 endfacet
 facet normal  9.980216e-01  1.040208e-02  6.200476e-02
   outer loop
     vertex -2.440545e-01 -2.128248e-02 -4.592043e-01
     vertex -2.381216e-01  1.937465e-03 -5.585951e-01
     vertex -2.445541e-01  2.672318e-02 -4.592166e-01
   endloop
 endfacet
 facet normal  8.211837e-01 -5.703882e-01 -1.773703e-02
   outer loop
     vertex -2.714493e-01 -6.070160e-02 -4.598768e-01
     vertex -2.775834e-01 -6.643296e-02 -5.595638e-01
     vertex -2.440545e-01 -2.128248e-02 -4.592043e-01
   endloop
 endfacet
 facet normal  2.470436e-03 -9.949204e-01 -1.006344e-01
   outer loop
     vertex -3.264228e-01 -7.670892e-02 -4.591696e-01
     vertex -3.565070e-01 -6.643296e-02 -5.615013e-01
     vertex -2.775834e-01 -6.643296e-02 -5.595638e-01
   endloop
 endfacet
 facet normal  2.796464e-01 -9.600785e-01  6.864933e-03
   outer loop
     vertex -3.264228e-01 -7.670892e-02 -4.591696e-01
     vertex -2.714493e-01 -6.070160e-02 -4.598768e-01
     vertex -2.714997e-01 -6.070160e-02 -4.578214e-01
   endloop
 endfacet
 facet normal  2.798202e-01 -9.593027e-01  3.793529e-02
   outer loop
     vertex -3.264228e-01 -7.670892e-02 -4.591696e-01
     vertex -2.775834e-01 -6.643296e-02 -5.595638e-01
     vertex -2.714493e-01 -6.070160e-02 -4.598768e-01
   endloop
 endfacet
 facet normal -8.605049e-01 -4.981729e-01 -1.065600e-01
   outer loop
     vertex -3.777284e-01 -5.139622e-02 -4.604291e-01
     vertex -3.959688e-01  1.937465e-03 -5.624700e-01
     vertex -3.565070e-01 -6.643296e-02 -5.615013e-01
   endloop
 endfacet
 facet normal -4.428870e-01 -8.956730e-01  4.026143e-02
   outer loop
     vertex -3.777284e-01 -5.139622e-02 -4.604291e-01
     vertex -3.565070e-01 -6.643296e-02 -5.615013e-01
     vertex -3.264228e-01 -7.670892e-02 -4.591696e-01
   endloop
 endfacet
 facet normal -9.317346e-01 -3.624189e-01 -2.287280e-02
   outer loop
     vertex -3.984613e-01  1.937465e-03 -4.609381e-01
     vertex -3.959688e-01  1.937465e-03 -5.624700e-01
     vertex -3.777284e-01 -5.139622e-02 -4.604291e-01
   endloop
 endfacet
 facet normal -2.454123e-02  1.008595e-15  9.996988e-01
   outer loop
     vertex -3.090510e-01  0.000000e+00 -4.587432e-01
     vertex -3.984613e-01  1.937465e-03 -4.609381e-01
     vertex -3.777284e-01 -5.139622e-02 -4.604291e-01
   endloop
 endfacet
 facet normal -2.454123e-02 -8.006746e-16  9.996988e-01
   outer loop
     vertex -3.090510e-01  0.000000e+00 -4.587432e-01
     vertex -3.780970e-01  5.486592e-02 -4.604382e-01
     vertex -3.984613e-01  1.937465e-03 -4.609381e-01
   endloop
 endfacet
 facet normal -2.454123e-02 -6.336035e-16  9.996988e-01
   outer loop
     vertex -3.090510e-01  0.000000e+00 -4.587432e-01
     vertex -3.275133e-01  8.048069e-02 -4.591964e-01
     vertex -3.780970e-01  5.486592e-02 -4.604382e-01
   endloop
 endfacet
 facet normal -2.454123e-02 -8.839480e-16  9.996988e-01
   outer loop
     vertex -3.090510e-01  0.000000e+00 -4.587432e-01
     vertex -2.728138e-01  6.556330e-02 -4.578536e-01
     vertex -3.275133e-01  8.048069e-02 -4.591964e-01
   endloop
 endfacet
 facet normal -2.454123e-02  3.940366e-16  9.996988e-01
   outer loop
     vertex -3.264228e-01 -7.670892e-02 -4.591696e-01
     vertex -3.090510e-01  0.000000e+00 -4.587432e-01
     vertex -3.777284e-01 -5.139622e-02 -4.604291e-01
   endloop
 endfacet
 facet normal -2.454123e-02  7.144333e-16  9.996988e-01
   outer loop
     vertex -2.714997e-01 -6.070160e-02 -4.578214e-01
     vertex -3.090510e-01  0.000000e+00 -4.587432e-01
     vertex -3.264228e-01 -7.670892e-02 -4.591696e-01
   endloop
 endfacet
 facet normal -8.748887e-01  4.838476e-01 -2.147731e-02
   outer loop
     vertex -3.069643e-01  3.896904e-03 -4.559540e-01
     vertex -3.090510e-01  0.000000e+00 -4.587432e-01
     vertex -3.091182e-01  0.000000e+00 -4.560069e-01
   endloop
 endfacet
 facet normal -8.748887e-01  4.838476e-01 -2.147731e-02
   outer loop
     vertex -2.633531e-01  8.280181e-02 -4.548834e-01
     vertex -2.727633e-01  6.556330e-02 -4.599091e-01
     vertex -2.728138e-01  6.556330e-02 -4.578536e-01
   endloop
 endfacet
 facet normal -8.748887e-01  4.838476e-01 -2.147731e-02
   outer loop
     vertex -1.559288e-01  2.769497e-01 -4.570410e-01
     vertex -2.727633e-01  6.556330e-02 -4.599091e-01
     vertex -2.633531e-01  8.280181e-02 -4.548834e-01
   endloop
 endfacet
 facet normal -8.748887e-01  4.838476e-01 -2.147731e-02
   outer loop
     vertex -1.560464e-01  2.769497e-01 -4.522492e-01
     vertex -1.559288e-01  2.769497e-01 -4.570410e-01
     vertex -2.633531e-01  8.280181e-02 -4.548834e-01
   endloop
 endfacet
 facet normal -8.748887e-01  4.838476e-01 -2.147731e-02
   outer loop
     vertex -3.181587e-01  3.896904e-03  5.287385e-05
     vertex -2.728138e-01  6.556330e-02 -4.578536e-01
     vertex -3.069643e-01  3.896904e-03 -4.559540e-01
   endloop
 endfacet
 facet normal -8.748887e-01  4.838476e-01 -2.147731e-02
   outer loop
     vertex -2.745474e-01  8.280181e-02  1.123469e-03
     vertex -2.633531e-01  8.280181e-02 -4.548834e-01
     vertex -2.728138e-01  6.556330e-02 -4.578536e-01
   endloop
 endfacet
 facet normal -8.748887e-01  4.838476e-01 -2.147731e-02
   outer loop
     vertex -2.745474e-01  8.280181e-02  1.123469e-03
     vertex -2.728138e-01  6.556330e-02 -4.578536e-01
     vertex -3.181587e-01  3.896904e-03  5.287385e-05
   endloop
 endfacet
 facet normal -8.748887e-01  4.838476e-01 -2.147731e-02
   outer loop
     vertex -3.090510e-01  0.000000e+00 -4.587432e-01
     vertex -3.069643e-01  3.896904e-03 -4.559540e-01
     vertex -2.728138e-01  6.556330e-02 -4.578536e-01
   endloop
 endfacet
 facet normal  2.454123e-02 -6.012411e-16 -9.996988e-01
   outer loop
     vertex -2.445541e-01  2.672318e-02 -4.592166e-01
     vertex -2.727633e-01  6.556330e-02 -4.599091e-01
     vertex -1.559288e-01  2.769497e-01 -4.570410e-01
   endloop
 endfacet
 facet normal  2.454123e-02 -3.407548e-16 -9.996988e-01
   outer loop
     vertex  1.569583e-01  2.846329e-01 -4.493600e-01
     vertex -2.445541e-01  2.672318e-02 -4.592166e-01
     vertex -1.559288e-01  2.769497e-01 -4.570410e-01
   endloop
 endfacet
 facet normal  2.454123e-02  6.779829e-16 -9.996988e-01
   outer loop
     vertex -1.425280e-01 -2.691029e-01 -4.567120e-01
     vertex -2.714493e-01 -6.070160e-02 -4.598768e-01
     vertex -2.440545e-01 -2.128248e-02 -4.592043e-01
   endloop
 endfacet
 facet normal  2.454123e-02  6.361496e-17 -9.996988e-01
   outer loop
     vertex  3.234308e-01  1.553000e-02 -4.452734e-01
     vertex -2.440545e-01 -2.128248e-02 -4.592043e-01
     vertex -2.445541e-01  2.672318e-02 -4.592166e-01
   endloop
 endfacet
 facet normal  2.454123e-02 -8.901699e-17 -9.996988e-01
   outer loop
     vertex  3.234308e-01  1.553000e-02 -4.452734e-01
     vertex -2.445541e-01  2.672318e-02 -4.592166e-01
     vertex  1.569583e-01  2.846329e-01 -4.493600e-01
   endloop
 endfacet
 facet normal  2.454123e-02  2.601748e-16 -9.996988e-01
   outer loop
     vertex  1.703591e-01 -2.614197e-01 -4.490311e-01
     vertex -1.425280e-01 -2.691029e-01 -4.567120e-01
     vertex -2.440545e-01 -2.128248e-02 -4.592043e-01
   endloop
 endfacet
 facet normal  2.454123e-02  3.290325e-17 -9.996988e-01
   outer loop
     vertex  1.703591e-01 -2.614197e-01 -4.490311e-01
     vertex -2.440545e-01 -2.128248e-02 -4.592043e-01
     vertex  3.234308e-01  1.553000e-02 -4.452734e-01
   endloop
 endfacet
 facet normal -8.501007e-01 -5.262065e-01 -2.086880e-02
   outer loop
     vertex -2.714997e-01 -6.070160e-02 -4.578214e-01
     vertex -1.425280e-01 -2.691029e-01 -4.567120e-01
     vertex -1.426456e-01 -2.691029e-01 -4.519202e-01
   endloop
 endfacet
 facet normal -8.501007e-01 -5.262065e-01 -2.086880e-02
   outer loop
     vertex -2.714997e-01 -6.070160e-02 -4.578214e-01
     vertex -2.714493e-01 -6.070160e-02 -4.598768e-01
     vertex -1.425280e-01 -2.691029e-01 -4.567120e-01
   endloop
 endfacet
 facet normal -8.501007e-01 -5.262065e-01 -2.086880e-02
   outer loop
     vertex -3.091182e-01  0.000000e+00 -4.560069e-01
     vertex -3.090510e-01  0.000000e+00 -4.587432e-01
     vertex -2.714997e-01 -6.070160e-02 -4.578214e-01
   endloop
 endfacet
 facet normal -8.501007e-01 -5.262065e-01 -2.086880e-02
   outer loop
     vertex -3.091182e-01  0.000000e+00 -4.560069e-01
     vertex -2.714997e-01 -6.070160e-02 -4.578214e-01
     vertex -1.426456e-01 -2.691029e-01 -4.519202e-01
   endloop
 endfacet
 facet normal  2.454123e-02 -4.067517e-16 -9.996988e-01
   outer loop
     vertex -2.775834e-01 -6.643296e-02 -5.595638e-01
     vertex -3.959688e-01  1.937465e-03 -5.624700e-01
     vertex -3.565070e-01  7.030789e-02 -5.615013e-01
   endloop
 endfacet
 facet normal  2.454123e-02  9.962727e-18 -9.996988e-01
   outer loop
     vertex -2.775834e-01 -6.643296e-02 -5.595638e-01
     vertex -3.565070e-01  7.030789e-02 -5.615013e-01
     vertex -2.775834e-01  7.030789e-02 -5.595638e-01
   endloop
 endfacet
 facet normal  2.454123e-02  9.962727e-18 -9.996988e-01
   outer loop
     vertex -2.775834e-01 -6.643296e-02 -5.595638e-01
     vertex -2.775834e-01  7.030789e-02 -5.595638e-01
     vertex -2.381216e-01  1.937465e-03 -5.585951e-01
   endloop
 endfacet
 facet normal  2.454123e-02  8.436331e-16 -9.996988e-01
   outer loop
     vertex -2.775834e-01 -6.643296e-02 -5.595638e-01
     vertex -3.565070e-01 -6.643296e-02 -5.615013e-01
     vertex -3.959688e-01  1.937465e-03 -5.624700e-01
   endloop
 endfacet
 facet normal  8.443539e-01  5.353847e-01  2.072773e-02
   outer loop
     vertex -3.181587e-01  3.896904e-03  5.287385e-05
     vertex -3.069643e-01  3.896904e-03 -4.559540e-01
     vertex -3.075566e-01  4.831554e-03 -4.559686e-01
   endloop
 endfacet
 facet normal  8.443539e-01  5.353847e-01  2.072773e-02
   outer loop
     vertex -3.181490e-01  3.696008e-03  4.847764e-03
     vertex -3.180925e-01  3.792501e-03  5.449796e-05
     vertex -3.181587e-01  3.896904e-03  5.287385e-05
   endloop
 endfacet
 facet normal  8.443539e-01  5.353847e-01  2.072773e-02
   outer loop
     vertex -3.188686e-01  4.831554e-03  4.830099e-03
     vertex -3.181490e-01  3.696008e-03  4.847764e-03
     vertex -3.181587e-01  3.896904e-03  5.287385e-05
   endloop
 endfacet
 facet normal  8.443539e-01  5.353847e-01  2.072773e-02
   outer loop
     vertex -3.075566e-01  4.831554e-03 -4.559686e-01
     vertex -3.188686e-01  4.831554e-03  4.830099e-03
     vertex -3.181587e-01  3.896904e-03  5.287385e-05
   endloop
 endfacet
 facet normal -2.454123e-02  4.491045e-17  9.996988e-01
   outer loop
     vertex -2.745474e-01  8.280181e-02  1.123469e-03
     vertex -1.604441e-01  2.731086e-01  3.924549e-03
     vertex -1.644407e-01  2.770184e-01  3.826439e-03
   endloop
 endfacet
 facet normal -2.454123e-02  3.098782e-15  9.996988e-01
   outer loop
     vertex -3.180925e-01  3.792501e-03  5.449796e-05
     vertex -2.745474e-01  8.280181e-02  1.123469e-03
     vertex -3.181587e-01  3.896904e-03  5.287385e-05
   endloop
 endfacet
 facet normal -2.454123e-02  3.488405e-16  9.996988e-01
   outer loop
     vertex  1.456463e-01  2.846329e-01  1.143865e-02
     vertex -1.644407e-01  2.770184e-01  3.826439e-03
     vertex -1.604441e-01  2.731086e-01  3.924549e-03
   endloop
 endfacet
 facet normal -2.454123e-02  1.464493e-16  9.996988e-01
   outer loop
     vertex  1.526316e-01  2.731086e-01  1.161013e-02
     vertex  1.456463e-01  2.846329e-01  1.143865e-02
     vertex -1.604441e-01  2.731086e-01  3.924549e-03
   endloop
 endfacet
 facet normal -2.454123e-02  6.744718e-17  9.996988e-01
   outer loop
     vertex  3.078890e-01  7.877048e-03  1.542148e-02
     vertex  3.121189e-01  1.553000e-02  1.552532e-02
     vertex  1.526316e-01  2.731086e-01  1.161013e-02
   endloop
 endfacet
 facet normal -2.454123e-02  6.994063e-15  9.996988e-01
   outer loop
     vertex  1.456463e-01  2.846329e-01  1.143865e-02
     vertex  1.526316e-01  2.731086e-01  1.161013e-02
     vertex  3.121189e-01  1.553000e-02  1.552532e-02
   endloop
 endfacet
 facet normal -2.454123e-02  7.441027e-17  9.996988e-01
   outer loop
     vertex -1.604441e-01  2.731086e-01  3.924549e-03
     vertex -2.745474e-01  8.280181e-02  1.123469e-03
     vertex -3.180925e-01  3.792501e-03  5.449796e-05
   endloop
 endfacet
 facet normal  8.695990e-01 -4.932969e-01  2.134746e-02
   outer loop
     vertex -2.745474e-01  8.280181e-02  1.123469e-03
     vertex -3.188686e-01  4.831554e-03  4.830099e-03
     vertex -3.075566e-01  4.831554e-03 -4.559686e-01
   endloop
 endfacet
 facet normal  8.695990e-01 -4.932969e-01  2.134746e-02
   outer loop
     vertex -2.745474e-01  8.280181e-02  1.123469e-03
     vertex -3.075566e-01  4.831554e-03 -4.559686e-01
     vertex -2.633531e-01  8.280181e-02 -4.548834e-01
   endloop
 endfacet
 facet normal  8.695990e-01 -4.932969e-01  2.134746e-02
   outer loop
     vertex -1.644407e-01  2.770184e-01  3.826439e-03
     vertex -1.532463e-01  2.770184e-01 -4.521805e-01
     vertex -1.503014e-01  2.822130e-01 -4.521082e-01
   endloop
 endfacet
 facet normal  8.695990e-01 -4.932969e-01  2.134746e-02
   outer loop
     vertex -1.616134e-01  2.822130e-01  8.690498e-03
     vertex -2.745474e-01  8.280181e-02  1.123469e-03
     vertex -1.644407e-01  2.770184e-01  3.826439e-03
   endloop
 endfacet
 facet normal  8.695990e-01 -4.932969e-01  2.134746e-02
   outer loop
     vertex -1.616134e-01  2.822130e-01  8.690498e-03
     vertex -1.644407e-01  2.770184e-01  3.826439e-03
     vertex -1.503014e-01  2.822130e-01 -4.521082e-01
   endloop
 endfacet
 facet normal  8.695990e-01 -4.932969e-01  2.134746e-02
   outer loop
     vertex -1.616134e-01  2.822130e-01  8.690498e-03
     vertex -3.188686e-01  4.831554e-03  4.830099e-03
     vertex -2.745474e-01  8.280181e-02  1.123469e-03
   endloop
 endfacet
 facet normal  2.454123e-02 -1.440803e-16 -9.996988e-01
   outer loop
     vertex -1.560464e-01  2.769497e-01 -4.522492e-01
     vertex -4.443536e-01  2.568638e-01 -4.593268e-01
     vertex -3.724790e-01  3.610235e-01 -4.575623e-01
   endloop
 endfacet
 facet normal  2.454123e-02 -2.820990e-16 -9.996988e-01
   outer loop
     vertex -1.560464e-01  2.769497e-01 -4.522492e-01
     vertex -3.724790e-01  3.610235e-01 -4.575623e-01
     vertex -2.777734e-01  4.449507e-01 -4.552374e-01
   endloop
 endfacet
 facet normal  2.454123e-02  2.843496e-17 -9.996988e-01
   outer loop
     vertex -1.503014e-01  2.822130e-01 -4.521082e-01
     vertex -2.777734e-01  4.449507e-01 -4.552374e-01
     vertex -1.657407e-01  5.037677e-01 -4.524872e-01
   endloop
 endfacet
 facet normal  2.454123e-02 -3.914977e-18 -9.996988e-01
   outer loop
     vertex -1.503014e-01  2.822130e-01 -4.521082e-01
     vertex -1.657407e-01  5.037677e-01 -4.524872e-01
     vertex -4.289192e-02  5.340563e-01 -4.494714e-01
   endloop
 endfacet
 facet normal  2.454123e-02 -1.271858e-15 -9.996988e-01
   outer loop
     vertex -1.503014e-01  2.822130e-01 -4.521082e-01
     vertex -1.560464e-01  2.769497e-01 -4.522492e-01
     vertex -2.777734e-01  4.449507e-01 -4.552374e-01
   endloop
 endfacet
 facet normal  2.454123e-02  1.457144e-14 -9.996988e-01
   outer loop
     vertex -1.532463e-01  2.770184e-01 -4.521805e-01
     vertex -1.560464e-01  2.769497e-01 -4.522492e-01
     vertex -1.503014e-01  2.822130e-01 -4.521082e-01
   endloop
 endfacet
 facet normal  2.454123e-02  2.744086e-16 -9.996988e-01
   outer loop
     vertex -2.633531e-01  8.280181e-02 -4.548834e-01
     vertex -4.892201e-01  1.385249e-01 -4.604282e-01
     vertex -4.443536e-01  2.568638e-01 -4.593268e-01
   endloop
 endfacet
 facet normal  2.454123e-02  1.792399e-16 -9.996988e-01
   outer loop
     vertex -2.633531e-01  8.280181e-02 -4.548834e-01
     vertex -4.443536e-01  2.568638e-01 -4.593268e-01
     vertex -1.560464e-01  2.769497e-01 -4.522492e-01
   endloop
 endfacet
 facet normal  2.454123e-02 -4.359341e-17 -9.996988e-01
   outer loop
     vertex -3.075566e-01  4.831554e-03 -4.559686e-01
     vertex -5.044711e-01  1.288414e-02 -4.608026e-01
     vertex -4.892201e-01  1.385249e-01 -4.604282e-01
   endloop
 endfacet
 facet normal  2.454123e-02 -7.154182e-17 -9.996988e-01
   outer loop
     vertex -3.075566e-01  4.831554e-03 -4.559686e-01
     vertex -4.892201e-01  1.385249e-01 -4.604282e-01
     vertex -2.633531e-01  8.280181e-02 -4.548834e-01
   endloop
 endfacet
 facet normal  2.454123e-02 -3.205180e-16 -9.996988e-01
   outer loop
     vertex -3.091182e-01  0.000000e+00 -4.560069e-01
     vertex -4.892201e-01 -1.127566e-01 -4.604282e-01
     vertex -5.044711e-01  1.288414e-02 -4.608026e-01
   endloop
 endfacet
 facet normal  2.454123e-02  2.320911e-15 -9.996988e-01
   outer loop
     vertex -3.091182e-01  0.000000e+00 -4.560069e-01
     vertex -3.075566e-01  4.831554e-03 -4.559686e-01
     vertex -3.069643e-01  3.896904e-03 -4.559540e-01
   endloop
 endfacet
 facet normal  2.454123e-02  2.442009e-15 -9.996988e-01
   outer loop
     vertex -3.091182e-01  0.000000e+00 -4.560069e-01
     vertex -5.044711e-01  1.288414e-02 -4.608026e-01
     vertex -3.075566e-01  4.831554e-03 -4.559686e-01
   endloop
 endfacet
 facet normal  2.454123e-02  1.027484e-16 -9.996988e-01
   outer loop
     vertex -4.443536e-01 -2.310955e-01 -4.593268e-01
     vertex -4.892201e-01 -1.127566e-01 -4.604282e-01
     vertex -3.091182e-01  0.000000e+00 -4.560069e-01
   endloop
 endfacet
 facet normal  2.454123e-02 -6.493493e-17 -9.996988e-01
   outer loop
     vertex  1.666951e-01  2.899972e-01 -4.443263e-01
     vertex -4.289192e-02  5.340563e-01 -4.494714e-01
     vertex  8.363348e-02  5.340563e-01 -4.463654e-01
   endloop
 endfacet
 facet normal  2.454123e-02  2.318373e-17 -9.996988e-01
   outer loop
     vertex  1.666951e-01  2.899972e-01 -4.443263e-01
     vertex  8.363348e-02  5.340563e-01 -4.463654e-01
     vertex  2.064823e-01  5.037677e-01 -4.433496e-01
   endloop
 endfacet
 facet normal  2.454123e-02 -8.232243e-17 -9.996988e-01
   outer loop
     vertex  1.666951e-01  2.899972e-01 -4.443263e-01
     vertex -1.503014e-01  2.822130e-01 -4.521082e-01
     vertex -4.289192e-02  5.340563e-01 -4.494714e-01
   endloop
 endfacet
 facet normal  2.454123e-02  1.051328e-16 -9.996988e-01
   outer loop
     vertex  3.185149e-01  4.449507e-01 -4.405994e-01
     vertex  1.666951e-01  2.899972e-01 -4.443263e-01
     vertex  2.064823e-01  5.037677e-01 -4.433496e-01
   endloop
 endfacet
 facet normal  2.454123e-02  1.067399e-16 -9.996988e-01
   outer loop
     vertex  4.132206e-01  3.610235e-01 -4.382745e-01
     vertex  1.666951e-01  2.899972e-01 -4.443263e-01
     vertex  3.185149e-01  4.449507e-01 -4.405994e-01
   endloop
 endfacet
 facet normal  2.454123e-02  1.888676e-16 -9.996988e-01
   outer loop
     vertex -1.426456e-01 -2.691029e-01 -4.519202e-01
     vertex -3.724790e-01 -3.352553e-01 -4.575623e-01
     vertex -4.443536e-01 -2.310955e-01 -4.593268e-01
   endloop
 endfacet
 facet normal  2.454123e-02 -4.053857e-17 -9.996988e-01
   outer loop
     vertex -1.426456e-01 -2.691029e-01 -4.519202e-01
     vertex -4.443536e-01 -2.310955e-01 -4.593268e-01
     vertex -3.091182e-01  0.000000e+00 -4.560069e-01
   endloop
 endfacet
 facet normal  2.454123e-02 -2.120734e-16 -9.996988e-01
   outer loop
     vertex -2.777734e-01 -4.191824e-01 -4.552374e-01
     vertex -3.724790e-01 -3.352553e-01 -4.575623e-01
     vertex -1.426456e-01 -2.691029e-01 -4.519202e-01
   endloop
 endfacet
 facet normal  2.454123e-02 -4.225221e-16 -9.996988e-01
   outer loop
     vertex  4.850952e-01  2.568638e-01 -4.365101e-01
     vertex  1.666951e-01  2.899972e-01 -4.443263e-01
     vertex  4.132206e-01  3.610235e-01 -4.382745e-01
   endloop
 endfacet
 facet normal  2.454123e-02  4.431957e-17 -9.996988e-01
   outer loop
     vertex -1.657407e-01 -4.779994e-01 -4.524872e-01
     vertex -2.777734e-01 -4.191824e-01 -4.552374e-01
     vertex -1.426456e-01 -2.691029e-01 -4.519202e-01
   endloop
 endfacet
 facet normal  2.454123e-02 -2.706327e-18 -9.996988e-01
   outer loop
     vertex  3.373672e-01  2.066832e-02 -4.401366e-01
     vertex  1.666951e-01  2.899972e-01 -4.443263e-01
     vertex  4.850952e-01  2.568638e-01 -4.365101e-01
   endloop
 endfacet
 facet normal  2.454123e-02  1.061517e-16 -9.996988e-01
   outer loop
     vertex  5.299617e-01  1.385249e-01 -4.354087e-01
     vertex  3.373672e-01  2.066832e-02 -4.401366e-01
     vertex  4.850952e-01  2.568638e-01 -4.365101e-01
   endloop
 endfacet
 facet normal  2.454123e-02 -4.311439e-16 -9.996988e-01
   outer loop
     vertex  1.801120e-01 -2.567131e-01 -4.439970e-01
     vertex  1.702415e-01 -2.614197e-01 -4.442393e-01
     vertex  1.727428e-01 -2.568941e-01 -4.441779e-01
   endloop
 endfacet
 facet normal  2.454123e-02 -1.161228e-16 -9.996988e-01
   outer loop
     vertex -4.289192e-02 -5.082880e-01 -4.494714e-01
     vertex -1.426456e-01 -2.691029e-01 -4.519202e-01
     vertex  1.702415e-01 -2.614197e-01 -4.442393e-01
   endloop
 endfacet
 facet normal  2.454123e-02 -6.167215e-18 -9.996988e-01
   outer loop
     vertex -4.289192e-02 -5.082880e-01 -4.494714e-01
     vertex -1.657407e-01 -4.779994e-01 -4.524872e-01
     vertex -1.426456e-01 -2.691029e-01 -4.519202e-01
   endloop
 endfacet
 facet normal  2.454123e-02  4.742844e-17 -9.996988e-01
   outer loop
     vertex  5.452127e-01  1.288414e-02 -4.350343e-01
     vertex  3.373672e-01  2.066832e-02 -4.401366e-01
     vertex  5.299617e-01  1.385249e-01 -4.354087e-01
   endloop
 endfacet
 facet normal  2.454123e-02 -1.492124e-16 -9.996988e-01
   outer loop
     vertex  8.363348e-02 -5.082880e-01 -4.463654e-01
     vertex -4.289192e-02 -5.082880e-01 -4.494714e-01
     vertex  1.702415e-01 -2.614197e-01 -4.442393e-01
   endloop
 endfacet
 facet normal  2.454123e-02  1.756013e-17 -9.996988e-01
   outer loop
     vertex  5.299617e-01 -1.127566e-01 -4.354087e-01
     vertex  3.373672e-01  2.066832e-02 -4.401366e-01
     vertex  5.452127e-01  1.288414e-02 -4.350343e-01
   endloop
 endfacet
 facet normal  2.454123e-02 -9.096119e-17 -9.996988e-01
   outer loop
     vertex  2.064823e-01 -4.779994e-01 -4.433496e-01
     vertex  8.363348e-02 -5.082880e-01 -4.463654e-01
     vertex  1.702415e-01 -2.614197e-01 -4.442393e-01
   endloop
 endfacet
 facet normal  2.454123e-02 -5.461235e-17 -9.996988e-01
   outer loop
     vertex  4.850952e-01 -2.310955e-01 -4.365101e-01
     vertex  3.373672e-01  2.066832e-02 -4.401366e-01
     vertex  5.299617e-01 -1.127566e-01 -4.354087e-01
   endloop
 endfacet
 facet normal  2.454123e-02  4.843045e-17 -9.996988e-01
   outer loop
     vertex  4.850952e-01 -2.310955e-01 -4.365101e-01
     vertex  1.801120e-01 -2.567131e-01 -4.439970e-01
     vertex  3.373672e-01  2.066832e-02 -4.401366e-01
   endloop
 endfacet
 facet normal  2.454123e-02  8.170907e-16 -9.996988e-01
   outer loop
     vertex  3.185149e-01 -4.191824e-01 -4.405994e-01
     vertex  1.702415e-01 -2.614197e-01 -4.442393e-01
     vertex  1.801120e-01 -2.567131e-01 -4.439970e-01
   endloop
 endfacet
 facet normal  2.454123e-02 -1.437197e-17 -9.996988e-01
   outer loop
     vertex  3.185149e-01 -4.191824e-01 -4.405994e-01
     vertex  2.064823e-01 -4.779994e-01 -4.433496e-01
     vertex  1.702415e-01 -2.614197e-01 -4.442393e-01
   endloop
 endfacet
 facet normal  2.454123e-02 -2.328109e-16 -9.996988e-01
   outer loop
     vertex  4.132206e-01 -3.352553e-01 -4.382745e-01
     vertex  3.185149e-01 -4.191824e-01 -4.405994e-01
     vertex  1.801120e-01 -2.567131e-01 -4.439970e-01
   endloop
 endfacet
 facet normal  2.454123e-02 -1.014129e-16 -9.996988e-01
   outer loop
     vertex  4.132206e-01 -3.352553e-01 -4.382745e-01
     vertex  1.801120e-01 -2.567131e-01 -4.439970e-01
     vertex  4.850952e-01 -2.310955e-01 -4.365101e-01
   endloop
 endfacet
 facet normal -2.453384e-02  9.996988e-01 -6.022719e-04
   outer loop
     vertex -1.532463e-01  2.770184e-01 -4.521805e-01
     vertex -1.559288e-01  2.769497e-01 -4.570410e-01
     vertex -1.560464e-01  2.769497e-01 -4.522492e-01
   endloop
 endfacet
 facet normal -2.453384e-02  9.996988e-01 -6.022719e-04
   outer loop
     vertex  1.569583e-01  2.846329e-01 -4.493600e-01
     vertex -1.559288e-01  2.769497e-01 -4.570410e-01
     vertex -1.532463e-01  2.770184e-01 -4.521805e-01
   endloop
 endfacet
 facet normal -2.453384e-02  9.996988e-01 -6.022719e-04
   outer loop
     vertex  1.456463e-01  2.846329e-01  1.143865e-02
     vertex -1.532463e-01  2.770184e-01 -4.521805e-01
     vertex -1.644407e-01  2.770184e-01  3.826439e-03
   endloop
 endfacet
 facet normal -2.453384e-02  9.996988e-01 -6.022719e-04
   outer loop
     vertex  1.456463e-01  2.846329e-01  1.143865e-02
     vertex  1.569583e-01  2.846329e-01 -4.493600e-01
     vertex -1.532463e-01  2.770184e-01 -4.521805e-01
   endloop
 endfacet
 facet normal  2.453384e-02 -9.996988e-01  6.022719e-04
   outer loop
     vertex -1.426456e-01 -2.691029e-01 -4.519202e-01
     vertex  1.703591e-01 -2.614197e-01 -4.490311e-01
     vertex  1.702415e-01 -2.614197e-01 -4.442393e-01
   endloop
 endfacet
 facet normal  2.453384e-02 -9.996988e-01  6.022719e-04
   outer loop
     vertex -1.426456e-01 -2.691029e-01 -4.519202e-01
     vertex -1.425280e-01 -2.691029e-01 -4.567120e-01
     vertex  1.703591e-01 -2.614197e-01 -4.490311e-01
   endloop
 endfacet
 facet normal  8.748887e-01 -4.838476e-01  2.147731e-02
   outer loop
     vertex  1.703591e-01 -2.614197e-01 -4.490311e-01
     vertex  3.234308e-01  1.553000e-02 -4.452734e-01
     vertex  1.727428e-01 -2.568941e-01 -4.441779e-01
   endloop
 endfacet
 facet normal  8.748887e-01 -4.838476e-01  2.147731e-02
   outer loop
     vertex  1.702415e-01 -2.614197e-01 -4.442393e-01
     vertex  1.703591e-01 -2.614197e-01 -4.490311e-01
     vertex  1.727428e-01 -2.568941e-01 -4.441779e-01
   endloop
 endfacet
 facet normal  8.748887e-01 -4.838476e-01  2.147731e-02
   outer loop
     vertex  3.080837e-01  7.544499e-03  0.000000e+00
     vertex  1.727428e-01 -2.568941e-01 -4.441779e-01
     vertex  3.234308e-01  1.553000e-02 -4.452734e-01
   endloop
 endfacet
 facet normal  8.748887e-01 -4.838476e-01  2.147731e-02
   outer loop
     vertex  3.121189e-01  1.553000e-02  1.552532e-02
     vertex  3.080837e-01  7.544499e-03  0.000000e+00
     vertex  3.234308e-01  1.553000e-02 -4.452734e-01
   endloop
 endfacet
 facet normal  8.748887e-01 -4.838476e-01  2.147731e-02
   outer loop
     vertex  3.078890e-01  7.877048e-03  1.542148e-02
     vertex  3.080837e-01  7.544499e-03  0.000000e+00
     vertex  3.121189e-01  1.553000e-02  1.552532e-02
   endloop
 endfacet
 facet normal  8.748887e-01 -4.838476e-01  2.147731e-02
   outer loop
     vertex  1.618388e-01 -2.568941e-01  0.000000e+00
     vertex  1.727428e-01 -2.568941e-01 -4.441779e-01
     vertex  3.080837e-01  7.544499e-03  0.000000e+00
   endloop
 endfacet
 facet normal  8.501007e-01  5.262065e-01  2.086880e-02
   outer loop
     vertex  3.121189e-01  1.553000e-02  1.552532e-02
     vertex  1.569583e-01  2.846329e-01 -4.493600e-01
     vertex  1.456463e-01  2.846329e-01  1.143865e-02
   endloop
 endfacet
 facet normal  8.501007e-01  5.262065e-01  2.086880e-02
   outer loop
     vertex  3.121189e-01  1.553000e-02  1.552532e-02
     vertex  3.234308e-01  1.553000e-02 -4.452734e-01
     vertex  1.569583e-01  2.846329e-01 -4.493600e-01
   endloop
 endfacet
 facet normal -8.630145e-01  5.051792e-01  0.000000e+00
   outer loop
     vertex -3.181490e-01  3.696008e-03  4.847764e-03
     vertex -1.604441e-01  2.731086e-01  7.500000e-01
     vertex -1.604441e-01  2.731086e-01  3.924549e-03
   endloop
 endfacet
 facet normal -8.630145e-01  5.051792e-01 -3.770178e-17
   outer loop
     vertex -3.181490e-01  3.696008e-03  4.847764e-03
     vertex -3.203125e-01  0.000000e+00  7.500000e-01
     vertex -1.604441e-01  2.731086e-01  7.500000e-01
   endloop
 endfacet
 facet normal -8.630145e-01  5.051792e-01  0.000000e+00
   outer loop
     vertex -3.203125e-01  0.000000e+00  4.794653e-03
     vertex -3.203125e-01  0.000000e+00  7.500000e-01
     vertex -3.181490e-01  3.696008e-03  4.847764e-03
   endloop
 endfacet
 facet normal -8.630145e-01  5.051792e-01  1.182259e-14
   outer loop
     vertex -3.180925e-01  3.792501e-03  5.449796e-05
     vertex -3.181490e-01  3.696008e-03  4.847764e-03
     vertex -1.604441e-01  2.731086e-01  3.924549e-03
   endloop
 endfacet
 facet normal -2.454123e-02  7.525232e-18  9.996988e-01
   outer loop
     vertex -1.616134e-01  2.822130e-01  8.690498e-03
     vertex -3.837910e-01  3.610235e-01  3.236344e-03
     vertex -4.556656e-01  2.568638e-01  1.471921e-03
   endloop
 endfacet
 facet normal -2.454123e-02  4.151105e-18  9.996988e-01
   outer loop
     vertex -1.616134e-01  2.822130e-01  8.690498e-03
     vertex -2.890854e-01  4.449507e-01  5.561236e-03
     vertex -3.837910e-01  3.610235e-01  3.236344e-03
   endloop
 endfacet
 facet normal -2.454123e-02  6.582166e-18  9.996988e-01
   outer loop
     vertex -1.616134e-01  2.822130e-01  8.690498e-03
     vertex -1.770527e-01  5.037677e-01  8.311484e-03
     vertex -2.890854e-01  4.449507e-01  5.561236e-03
   endloop
 endfacet
 facet normal -2.454123e-02  6.606524e-18  9.996988e-01
   outer loop
     vertex -1.616134e-01  2.822130e-01  8.690498e-03
     vertex -5.420389e-02  5.340563e-01  1.132725e-02
     vertex -1.770527e-01  5.037677e-01  8.311484e-03
   endloop
 endfacet
 facet normal -2.454123e-02 -1.307802e-17  9.996988e-01
   outer loop
     vertex -3.188686e-01  4.831554e-03  4.830099e-03
     vertex -5.005321e-01  1.385249e-01  3.705094e-04
     vertex -5.157831e-01  1.288414e-02 -3.880464e-06
   endloop
 endfacet
 facet normal -2.454123e-02  0.000000e+00  9.996988e-01
   outer loop
     vertex -3.188686e-01  4.831554e-03  4.830099e-03
     vertex -4.556656e-01  2.568638e-01  1.471921e-03
     vertex -5.005321e-01  1.385249e-01  3.705094e-04
   endloop
 endfacet
 facet normal -2.454123e-02 -5.588547e-18  9.996988e-01
   outer loop
     vertex -3.188686e-01  4.831554e-03  4.830099e-03
     vertex -1.616134e-01  2.822130e-01  8.690498e-03
     vertex -4.556656e-01  2.568638e-01  1.471921e-03
   endloop
 endfacet
 facet normal -2.454123e-02  1.334681e-17  9.996988e-01
   outer loop
     vertex -3.203125e-01  0.000000e+00  4.794653e-03
     vertex -5.157831e-01  1.288414e-02 -3.880464e-06
     vertex -5.005321e-01 -1.127566e-01  3.705094e-04
   endloop
 endfacet
 facet normal -2.454123e-02  8.016565e-17  9.996988e-01
   outer loop
     vertex -3.203125e-01  0.000000e+00  4.794653e-03
     vertex -3.181490e-01  3.696008e-03  4.847764e-03
     vertex -3.188686e-01  4.831554e-03  4.830099e-03
   endloop
 endfacet
 facet normal -2.454123e-02 -2.637854e-17  9.996988e-01
   outer loop
     vertex -3.203125e-01  0.000000e+00  4.794653e-03
     vertex -3.188686e-01  4.831554e-03  4.830099e-03
     vertex -5.157831e-01  1.288414e-02 -3.880464e-06
   endloop
 endfacet
 facet normal -2.454123e-02  3.080826e-18  9.996988e-01
   outer loop
     vertex -4.556656e-01 -2.310955e-01  1.471921e-03
     vertex -3.203125e-01  0.000000e+00  4.794653e-03
     vertex -5.005321e-01 -1.127566e-01  3.705094e-04
   endloop
 endfacet
 facet normal -2.454123e-02  1.754998e-18  9.996988e-01
   outer loop
     vertex  1.553831e-01  2.899972e-01  1.647232e-02
     vertex  7.232151e-02  5.340563e-01  1.443328e-02
     vertex -5.420389e-02  5.340563e-01  1.132725e-02
   endloop
 endfacet
 facet normal -2.454123e-02  5.919249e-18  9.996988e-01
   outer loop
     vertex  1.553831e-01  2.899972e-01  1.647232e-02
     vertex  1.951703e-01  5.037677e-01  1.744905e-02
     vertex  7.232151e-02  5.340563e-01  1.443328e-02
   endloop
 endfacet
 facet normal -2.454123e-02  5.488162e-18  9.996988e-01
   outer loop
     vertex  1.553831e-01  2.899972e-01  1.647232e-02
     vertex -5.420389e-02  5.340563e-01  1.132725e-02
     vertex -1.616134e-01  2.822130e-01  8.690498e-03
   endloop
 endfacet
 facet normal -2.454123e-02  6.184282e-18  9.996988e-01
   outer loop
     vertex  3.072030e-01  4.449507e-01  2.019929e-02
     vertex  1.951703e-01  5.037677e-01  1.744905e-02
     vertex  1.553831e-01  2.899972e-01  1.647232e-02
   endloop
 endfacet
 facet normal -2.454123e-02  3.953330e-18  9.996988e-01
   outer loop
     vertex  4.019086e-01  3.610235e-01  2.252419e-02
     vertex  3.072030e-01  4.449507e-01  2.019929e-02
     vertex  1.553831e-01  2.899972e-01  1.647232e-02
   endloop
 endfacet
 facet normal -2.454123e-02 -7.817203e-18  9.996988e-01
   outer loop
     vertex -1.604441e-01 -2.731086e-01  8.719202e-03
     vertex -4.556656e-01 -2.310955e-01  1.471921e-03
     vertex -3.837910e-01 -3.352553e-01  3.236344e-03
   endloop
 endfacet
 facet normal -2.454123e-02  2.932922e-18  9.996988e-01
   outer loop
     vertex -1.604441e-01 -2.731086e-01  8.719202e-03
     vertex -3.203125e-01  0.000000e+00  4.794653e-03
     vertex -4.556656e-01 -2.310955e-01  1.471921e-03
   endloop
 endfacet
 facet normal -2.454123e-02  6.600812e-18  9.996988e-01
   outer loop
     vertex -2.890854e-01 -4.191824e-01  5.561236e-03
     vertex -1.604441e-01 -2.731086e-01  8.719202e-03
     vertex -3.837910e-01 -3.352553e-01  3.236344e-03
   endloop
 endfacet
 facet normal -2.454123e-02  1.760509e-17  9.996988e-01
   outer loop
     vertex  4.737832e-01  2.568638e-01  2.428861e-02
     vertex  4.019086e-01  3.610235e-01  2.252419e-02
     vertex  1.553831e-01  2.899972e-01  1.647232e-02
   endloop
 endfacet
 facet normal -2.454123e-02  5.095244e-18  9.996988e-01
   outer loop
     vertex -1.770527e-01 -4.779994e-01  8.311484e-03
     vertex -1.604441e-01 -2.731086e-01  8.719202e-03
     vertex -2.890854e-01 -4.191824e-01  5.561236e-03
   endloop
 endfacet
 facet normal -2.454123e-02 -4.059490e-18  9.996988e-01
   outer loop
     vertex  3.260553e-01  2.066832e-02  2.066209e-02
     vertex  4.737832e-01  2.568638e-01  2.428861e-02
     vertex  1.553831e-01  2.899972e-01  1.647232e-02
   endloop
 endfacet
 facet normal -2.454123e-02  8.685136e-18  9.996988e-01
   outer loop
     vertex  5.186497e-01  1.385249e-01  2.539002e-02
     vertex  4.737832e-01  2.568638e-01  2.428861e-02
     vertex  3.260553e-01  2.066832e-02  2.066209e-02
   endloop
 endfacet
 facet normal -2.454123e-02  2.421382e-16  9.996988e-01
   outer loop
     vertex  1.688001e-01 -2.567131e-01  1.680169e-02
     vertex  1.621331e-01 -2.568768e-01  1.663803e-02
     vertex  1.526316e-01 -2.731086e-01  1.640478e-02
   endloop
 endfacet
 facet normal -2.454123e-02  1.472078e-18  9.996988e-01
   outer loop
     vertex -5.420389e-02 -5.082880e-01  1.132725e-02
     vertex  1.526316e-01 -2.731086e-01  1.640478e-02
     vertex -1.604441e-01 -2.731086e-01  8.719202e-03
   endloop
 endfacet
 facet normal -2.454123e-02  6.332617e-18  9.996988e-01
   outer loop
     vertex -5.420389e-02 -5.082880e-01  1.132725e-02
     vertex -1.604441e-01 -2.731086e-01  8.719202e-03
     vertex -1.770527e-01 -4.779994e-01  8.311484e-03
   endloop
 endfacet
 facet normal -2.454123e-02 -6.254300e-18  9.996988e-01
   outer loop
     vertex  5.339007e-01  1.288414e-02  2.576441e-02
     vertex  5.186497e-01  1.385249e-01  2.539002e-02
     vertex  3.260553e-01  2.066832e-02  2.066209e-02
   endloop
 endfacet
 facet normal -2.454123e-02 -1.092757e-17  9.996988e-01
   outer loop
     vertex  7.232151e-02 -5.082880e-01  1.443328e-02
     vertex  1.526316e-01 -2.731086e-01  1.640478e-02
     vertex -5.420389e-02 -5.082880e-01  1.132725e-02
   endloop
 endfacet
 facet normal -2.454123e-02 -3.615320e-18  9.996988e-01
   outer loop
     vertex  5.186497e-01 -1.127566e-01  2.539002e-02
     vertex  5.339007e-01  1.288414e-02  2.576441e-02
     vertex  3.260553e-01  2.066832e-02  2.066209e-02
   endloop
 endfacet
 facet normal -2.454123e-02 -9.216967e-18  9.996988e-01
   outer loop
     vertex  1.951703e-01 -4.779994e-01  1.744905e-02
     vertex  1.526316e-01 -2.731086e-01  1.640478e-02
     vertex  7.232151e-02 -5.082880e-01  1.443328e-02
   endloop
 endfacet
 facet normal -2.454123e-02  0.000000e+00  9.996988e-01
   outer loop
     vertex  4.737832e-01 -2.310955e-01  2.428861e-02
     vertex  5.186497e-01 -1.127566e-01  2.539002e-02
     vertex  3.260553e-01  2.066832e-02  2.066209e-02
   endloop
 endfacet
 facet normal -2.454123e-02 -2.690580e-18  9.996988e-01
   outer loop
     vertex  4.737832e-01 -2.310955e-01  2.428861e-02
     vertex  3.260553e-01  2.066832e-02  2.066209e-02
     vertex  1.688001e-01 -2.567131e-01  1.680169e-02
   endloop
 endfacet
 facet normal -2.454123e-02  1.549641e-16  9.996988e-01
   outer loop
     vertex  3.072030e-01 -4.191824e-01  2.019929e-02
     vertex  1.688001e-01 -2.567131e-01  1.680169e-02
     vertex  1.526316e-01 -2.731086e-01  1.640478e-02
   endloop
 endfacet
 facet normal -2.454123e-02 -1.277328e-17  9.996988e-01
   outer loop
     vertex  3.072030e-01 -4.191824e-01  2.019929e-02
     vertex  1.526316e-01 -2.731086e-01  1.640478e-02
     vertex  1.951703e-01 -4.779994e-01  1.744905e-02
   endloop
 endfacet
 facet normal -2.454123e-02  2.173133e-17  9.996988e-01
   outer loop
     vertex  4.019086e-01 -3.352553e-01  2.252419e-02
     vertex  4.737832e-01 -2.310955e-01  2.428861e-02
     vertex  1.688001e-01 -2.567131e-01  1.680169e-02
   endloop
 endfacet
 facet normal -2.454123e-02  1.605592e-17  9.996988e-01
   outer loop
     vertex  4.019086e-01 -3.352553e-01  2.252419e-02
     vertex  1.688001e-01 -2.567131e-01  1.680169e-02
     vertex  3.072030e-01 -4.191824e-01  2.019929e-02
   endloop
 endfacet
 facet normal  0.000000e+00  1.000000e+00 -0.000000e+00
   outer loop
     vertex  1.526316e-01  2.731086e-01  1.161013e-02
     vertex -1.604441e-01  2.731086e-01  7.500000e-01
     vertex  1.526316e-01  2.731086e-01  7.500000e-01
   endloop
 endfacet
 facet normal  0.000000e+00  1.000000e+00  0.000000e+00
   outer loop
     vertex -1.604441e-01  2.731086e-01  3.924549e-03
     vertex -1.604441e-01  2.731086e-01  7.500000e-01
     vertex  1.526316e-01  2.731086e-01  1.161013e-02
   endloop
 endfacet
 facet normal  8.630145e-01  5.051792e-01 -4.104285e-17
   outer loop
     vertex  3.078890e-01  7.877048e-03  1.542148e-02
     vertex  1.526316e-01  2.731086e-01  7.500000e-01
     vertex  3.125000e-01  0.000000e+00  7.500000e-01
   endloop
 endfacet
 facet normal  8.630145e-01  5.051792e-01 -0.000000e+00
   outer loop
     vertex  3.125000e-01  0.000000e+00  0.000000e+00
     vertex  3.078890e-01  7.877048e-03  1.542148e-02
     vertex  3.125000e-01  0.000000e+00  7.500000e-01
   endloop
 endfacet
 facet normal  8.630145e-01  5.051792e-01  2.392224e-15
   outer loop
     vertex  3.080837e-01  7.544499e-03  0.000000e+00
     vertex  3.078890e-01  7.877048e-03  1.542148e-02
     vertex  3.125000e-01  0.000000e+00  0.000000e+00
   endloop
 endfacet
 facet normal  8.630145e-01  5.051792e-01 -0.000000e+00
   outer loop
     vertex  1.526316e-01  2.731086e-01  1.161013e-02
     vertex  1.526316e-01  2.731086e-01  7.500000e-01
     vertex  3.078890e-01  7.877048e-03  1.542148e-02
   endloop
 endfacet
 facet normal  2.453384e-02 -9.996988e-01  6.022719e-04
   outer loop
     vertex  1.553831e-01  2.899972e-01  1.647232e-02
     vertex -1.616134e-01  2.822130e-01  8.690498e-03
     vertex -1.503014e-01  2.822130e-01 -4.521082e-01
   endloop
 endfacet
 facet normal  2.453384e-02 -9.996988e-01  6.022719e-04
   outer loop
     vertex  1.553831e-01  2.899972e-01  1.647232e-02
     vertex -1.503014e-01  2.822130e-01 -4.521082e-01
     vertex  1.666951e-01  2.899972e-01 -4.443263e-01
   endloop
 endfacet
 facet normal -9.924099e-01  1.205367e-01 -2.436230e-02
   outer loop
     vertex -5.005321e-01  1.385249e-01  3.705094e-04
     vertex -5.044711e-01  1.288414e-02 -4.608026e-01
     vertex -5.157831e-01  1.288414e-02 -3.880464e-06
   endloop
 endfacet
 facet normal -9.924099e-01  1.205367e-01 -2.436230e-02
   outer loop
     vertex -5.005321e-01  1.385249e-01  3.705094e-04
     vertex -4.892201e-01  1.385249e-01 -4.604282e-01
     vertex -5.044711e-01  1.288414e-02 -4.608026e-01
   endloop
 endfacet
 facet normal -9.347346e-01  3.546049e-01 -2.294645e-02
   outer loop
     vertex -4.556656e-01  2.568638e-01  1.471921e-03
     vertex -4.443536e-01  2.568638e-01 -4.593268e-01
     vertex -4.892201e-01  1.385249e-01 -4.604282e-01
   endloop
 endfacet
 facet normal -9.347346e-01  3.546049e-01 -2.294645e-02
   outer loop
     vertex -4.556656e-01  2.568638e-01  1.471921e-03
     vertex -4.892201e-01  1.385249e-01 -4.604282e-01
     vertex -5.005321e-01  1.385249e-01  3.705094e-04
   endloop
 endfacet
 facet normal -8.227360e-01  5.680647e-01 -2.019704e-02
   outer loop
     vertex -3.837910e-01  3.610235e-01  3.236344e-03
     vertex -3.724790e-01  3.610235e-01 -4.575623e-01
     vertex -4.443536e-01  2.568638e-01 -4.593268e-01
   endloop
 endfacet
 facet normal -8.227360e-01  5.680647e-01 -2.019704e-02
   outer loop
     vertex -3.837910e-01  3.610235e-01  3.236344e-03
     vertex -4.443536e-01  2.568638e-01 -4.593268e-01
     vertex -4.556656e-01  2.568638e-01  1.471921e-03
   endloop
 endfacet
 facet normal -6.629229e-01  7.485107e-01 -1.627384e-02
   outer loop
     vertex -2.890854e-01  4.449507e-01  5.561236e-03
     vertex -2.777734e-01  4.449507e-01 -4.552374e-01
     vertex -3.724790e-01  3.610235e-01 -4.575623e-01
   endloop
 endfacet
 facet normal -6.629229e-01  7.485107e-01 -1.627384e-02
   outer loop
     vertex -2.890854e-01  4.449507e-01  5.561236e-03
     vertex -3.724790e-01  3.610235e-01 -4.575623e-01
     vertex -3.837910e-01  3.610235e-01  3.236344e-03
   endloop
 endfacet
 facet normal -4.645832e-01  8.854560e-01 -1.140488e-02
   outer loop
     vertex -1.770527e-01  5.037677e-01  8.311484e-03
     vertex -1.657407e-01  5.037677e-01 -4.524872e-01
     vertex -2.777734e-01  4.449507e-01 -4.552374e-01
   endloop
 endfacet
 facet normal -4.645832e-01  8.854560e-01 -1.140488e-02
   outer loop
     vertex -1.770527e-01  5.037677e-01  8.311484e-03
     vertex -2.777734e-01  4.449507e-01 -4.552374e-01
     vertex -2.890854e-01  4.449507e-01  5.561236e-03
   endloop
 endfacet
 facet normal -2.392436e-01  9.709418e-01 -5.873100e-03
   outer loop
     vertex -5.420389e-02  5.340563e-01  1.132725e-02
     vertex -4.289192e-02  5.340563e-01 -4.494714e-01
     vertex -1.657407e-01  5.037677e-01 -4.524872e-01
   endloop
 endfacet
 facet normal -2.392436e-01  9.709418e-01 -5.873100e-03
   outer loop
     vertex -5.420389e-02  5.340563e-01  1.132725e-02
     vertex -1.657407e-01  5.037677e-01 -4.524872e-01
     vertex -1.770527e-01  5.037677e-01  8.311484e-03
   endloop
 endfacet
 facet normal  0.000000e+00  1.000000e+00  0.000000e+00
   outer loop
     vertex  7.232151e-02  5.340563e-01  1.443328e-02
     vertex  8.363348e-02  5.340563e-01 -4.463654e-01
     vertex -4.289192e-02  5.340563e-01 -4.494714e-01
   endloop
 endfacet
 facet normal  0.000000e+00  1.000000e+00  0.000000e+00
   outer loop
     vertex  7.232151e-02  5.340563e-01  1.443328e-02
     vertex -4.289192e-02  5.340563e-01 -4.494714e-01
     vertex -5.420389e-02  5.340563e-01  1.132725e-02
   endloop
 endfacet
 facet normal  2.392436e-01  9.709418e-01  5.873100e-03
   outer loop
     vertex  1.951703e-01  5.037677e-01  1.744905e-02
     vertex  2.064823e-01  5.037677e-01 -4.433496e-01
     vertex  8.363348e-02  5.340563e-01 -4.463654e-01
   endloop
 endfacet
 facet normal  2.392436e-01  9.709418e-01  5.873100e-03
   outer loop
     vertex  1.951703e-01  5.037677e-01  1.744905e-02
     vertex  8.363348e-02  5.340563e-01 -4.463654e-01
     vertex  7.232151e-02  5.340563e-01  1.443328e-02
   endloop
 endfacet
 facet normal  4.645832e-01  8.854560e-01  1.140488e-02
   outer loop
     vertex  3.072030e-01  4.449507e-01  2.019929e-02
     vertex  3.185149e-01  4.449507e-01 -4.405994e-01
     vertex  2.064823e-01  5.037677e-01 -4.433496e-01
   endloop
 endfacet
 facet normal  4.645832e-01  8.854560e-01  1.140488e-02
   outer loop
     vertex  3.072030e-01  4.449507e-01  2.019929e-02
     vertex  2.064823e-01  5.037677e-01 -4.433496e-01
     vertex  1.951703e-01  5.037677e-01  1.744905e-02
   endloop
 endfacet
 facet normal  6.629229e-01  7.485107e-01  1.627384e-02
   outer loop
     vertex  4.019086e-01  3.610235e-01  2.252419e-02
     vertex  4.132206e-01  3.610235e-01 -4.382745e-01
     vertex  3.185149e-01  4.449507e-01 -4.405994e-01
   endloop
 endfacet
 facet normal  6.629229e-01  7.485107e-01  1.627384e-02
   outer loop
     vertex  4.019086e-01  3.610235e-01  2.252419e-02
     vertex  3.185149e-01  4.449507e-01 -4.405994e-01
     vertex  3.072030e-01  4.449507e-01  2.019929e-02
   endloop
 endfacet
 facet normal  8.227360e-01  5.680647e-01  2.019704e-02
   outer loop
     vertex  4.737832e-01  2.568638e-01  2.428861e-02
     vertex  4.850952e-01  2.568638e-01 -4.365101e-01
     vertex  4.132206e-01  3.610235e-01 -4.382745e-01
   endloop
 endfacet
 facet normal  8.227360e-01  5.680647e-01  2.019704e-02
   outer loop
     vertex  4.737832e-01  2.568638e-01  2.428861e-02
     vertex  4.132206e-01  3.610235e-01 -4.382745e-01
     vertex  4.019086e-01  3.610235e-01  2.252419e-02
   endloop
 endfacet
 facet normal  9.347346e-01  3.546049e-01  2.294645e-02
   outer loop
     vertex  5.186497e-01  1.385249e-01  2.539002e-02
     vertex  4.850952e-01  2.568638e-01 -4.365101e-01
     vertex  4.737832e-01  2.568638e-01  2.428861e-02
   endloop
 endfacet
 facet normal  9.347346e-01  3.546049e-01  2.294645e-02
   outer loop
     vertex  5.186497e-01  1.385249e-01  2.539002e-02
     vertex  5.299617e-01  1.385249e-01 -4.354087e-01
     vertex  4.850952e-01  2.568638e-01 -4.365101e-01
   endloop
 endfacet
 facet normal  9.924099e-01  1.205367e-01  2.436230e-02
   outer loop
     vertex  5.339007e-01  1.288414e-02  2.576441e-02
     vertex  5.299617e-01  1.385249e-01 -4.354087e-01
     vertex  5.186497e-01  1.385249e-01  2.539002e-02
   endloop
 endfacet
 facet normal  9.924099e-01  1.205367e-01  2.436230e-02
   outer loop
     vertex  5.339007e-01  1.288414e-02  2.576441e-02
     vertex  5.452127e-01  1.288414e-02 -4.350343e-01
     vertex  5.299617e-01  1.385249e-01 -4.354087e-01
   endloop
 endfacet
 facet normal  9.924099e-01 -1.205367e-01  2.436230e-02
   outer loop
     vertex  5.186497e-01 -1.127566e-01  2.539002e-02
     vertex  5.299617e-01 -1.127566e-01 -4.354087e-01
     vertex  5.452127e-01  1.288414e-02 -4.350343e-01
   endloop
 endfacet
 facet normal  9.924099e-01 -1.205367e-01  2.436230e-02
   outer loop
     vertex  5.186497e-01 -1.127566e-01  2.539002e-02
     vertex  5.452127e-01  1.288414e-02 -4.350343e-01
     vertex  5.339007e-01  1.288414e-02  2.576441e-02
   endloop
 endfacet
 facet normal  9.347346e-01 -3.546049e-01  2.294645e-02
   outer loop
     vertex  4.737832e-01 -2.310955e-01  2.428861e-02
     vertex  4.850952e-01 -2.310955e-01 -4.365101e-01
     vertex  5.299617e-01 -1.127566e-01 -4.354087e-01
   endloop
 endfacet
 facet normal  9.347346e-01 -3.546049e-01  2.294645e-02
   outer loop
     vertex  4.737832e-01 -2.310955e-01  2.428861e-02
     vertex  5.299617e-01 -1.127566e-01 -4.354087e-01
     vertex  5.186497e-01 -1.127566e-01  2.539002e-02
   endloop
 endfacet
 facet normal  8.227360e-01 -5.680647e-01  2.019704e-02
   outer loop
     vertex  4.019086e-01 -3.352553e-01  2.252419e-02
     vertex  4.132206e-01 -3.352553e-01 -4.382745e-01
     vertex  4.850952e-01 -2.310955e-01 -4.365101e-01
   endloop
 endfacet
 facet normal  6.629229e-01 -7.485107e-01  1.627384e-02
   outer loop
     vertex  4.019086e-01 -3.352553e-01  2.252419e-02
     vertex  3.185149e-01 -4.191824e-01 -4.405994e-01
     vertex  4.132206e-01 -3.352553e-01 -4.382745e-01
   endloop
 endfacet
 facet normal  8.227360e-01 -5.680647e-01  2.019704e-02
   outer loop
     vertex  4.019086e-01 -3.352553e-01  2.252419e-02
     vertex  4.850952e-01 -2.310955e-01 -4.365101e-01
     vertex  4.737832e-01 -2.310955e-01  2.428861e-02
   endloop
 endfacet
 facet normal  6.629229e-01 -7.485107e-01  1.627384e-02
   outer loop
     vertex  3.072030e-01 -4.191824e-01  2.019929e-02
     vertex  3.185149e-01 -4.191824e-01 -4.405994e-01
     vertex  4.019086e-01 -3.352553e-01  2.252419e-02
   endloop
 endfacet
 facet normal  4.645832e-01 -8.854560e-01  1.140488e-02
   outer loop
     vertex  1.951703e-01 -4.779994e-01  1.744905e-02
     vertex  2.064823e-01 -4.779994e-01 -4.433496e-01
     vertex  3.185149e-01 -4.191824e-01 -4.405994e-01
   endloop
 endfacet
 facet normal  4.645832e-01 -8.854560e-01  1.140488e-02
   outer loop
     vertex  1.951703e-01 -4.779994e-01  1.744905e-02
     vertex  3.185149e-01 -4.191824e-01 -4.405994e-01
     vertex  3.072030e-01 -4.191824e-01  2.019929e-02
   endloop
 endfacet
 facet normal  2.392436e-01 -9.709418e-01  5.873100e-03
   outer loop
     vertex  7.232151e-02 -5.082880e-01  1.443328e-02
     vertex  8.363348e-02 -5.082880e-01 -4.463654e-01
     vertex  2.064823e-01 -4.779994e-01 -4.433496e-01
   endloop
 endfacet
 facet normal  2.392436e-01 -9.709418e-01  5.873100e-03
   outer loop
     vertex  7.232151e-02 -5.082880e-01  1.443328e-02
     vertex  2.064823e-01 -4.779994e-01 -4.433496e-01
     vertex  1.951703e-01 -4.779994e-01  1.744905e-02
   endloop
 endfacet
 facet normal  1.753884e-15 -1.000000e+00  4.305544e-17
   outer loop
     vertex -5.420389e-02 -5.082880e-01  1.132725e-02
     vertex -4.289192e-02 -5.082880e-01 -4.494714e-01
     vertex  8.363348e-02 -5.082880e-01 -4.463654e-01
   endloop
 endfacet
 facet normal  1.753884e-15 -1.000000e+00  4.305544e-17
   outer loop
     vertex -5.420389e-02 -5.082880e-01  1.132725e-02
     vertex  8.363348e-02 -5.082880e-01 -4.463654e-01
     vertex  7.232151e-02 -5.082880e-01  1.443328e-02
   endloop
 endfacet
 facet normal -2.392436e-01 -9.709418e-01 -5.873100e-03
   outer loop
     vertex -1.770527e-01 -4.779994e-01  8.311484e-03
     vertex -1.657407e-01 -4.779994e-01 -4.524872e-01
     vertex -4.289192e-02 -5.082880e-01 -4.494714e-01
   endloop
 endfacet
 facet normal -4.645832e-01 -8.854560e-01 -1.140488e-02
   outer loop
     vertex -1.770527e-01 -4.779994e-01  8.311484e-03
     vertex -2.777734e-01 -4.191824e-01 -4.552374e-01
     vertex -1.657407e-01 -4.779994e-01 -4.524872e-01
   endloop
 endfacet
 facet normal -2.392436e-01 -9.709418e-01 -5.873100e-03
   outer loop
     vertex -1.770527e-01 -4.779994e-01  8.311484e-03
     vertex -4.289192e-02 -5.082880e-01 -4.494714e-01
     vertex -5.420389e-02 -5.082880e-01  1.132725e-02
   endloop
 endfacet
 facet normal -4.645832e-01 -8.854560e-01 -1.140488e-02
   outer loop
     vertex -2.890854e-01 -4.191824e-01  5.561236e-03
     vertex -2.777734e-01 -4.191824e-01 -4.552374e-01
     vertex -1.770527e-01 -4.779994e-01  8.311484e-03
   endloop
 endfacet
 facet normal -6.629229e-01 -7.485107e-01 -1.627384e-02
   outer loop
     vertex -3.837910e-01 -3.352553e-01  3.236344e-03
     vertex -3.724790e-01 -3.352553e-01 -4.575623e-01
     vertex -2.777734e-01 -4.191824e-01 -4.552374e-01
   endloop
 endfacet
 facet normal -8.227360e-01 -5.680647e-01 -2.019704e-02
   outer loop
     vertex -3.837910e-01 -3.352553e-01  3.236344e-03
     vertex -4.443536e-01 -2.310955e-01 -4.593268e-01
     vertex -3.724790e-01 -3.352553e-01 -4.575623e-01
   endloop
 endfacet
 facet normal -6.629229e-01 -7.485107e-01 -1.627384e-02
   outer loop
     vertex -3.837910e-01 -3.352553e-01  3.236344e-03
     vertex -2.777734e-01 -4.191824e-01 -4.552374e-01
     vertex -2.890854e-01 -4.191824e-01  5.561236e-03
   endloop
 endfacet
 facet normal -8.227360e-01 -5.680647e-01 -2.019704e-02
   outer loop
     vertex -4.556656e-01 -2.310955e-01  1.471921e-03
     vertex -4.443536e-01 -2.310955e-01 -4.593268e-01
     vertex -3.837910e-01 -3.352553e-01  3.236344e-03
   endloop
 endfacet
 facet normal -9.347346e-01 -3.546049e-01 -2.294645e-02
   outer loop
     vertex -5.005321e-01 -1.127566e-01  3.705094e-04
     vertex -4.892201e-01 -1.127566e-01 -4.604282e-01
     vertex -4.443536e-01 -2.310955e-01 -4.593268e-01
   endloop
 endfacet
 facet normal -9.347346e-01 -3.546049e-01 -2.294645e-02
   outer loop
     vertex -5.005321e-01 -1.127566e-01  3.705094e-04
     vertex -4.443536e-01 -2.310955e-01 -4.593268e-01
     vertex -4.556656e-01 -2.310955e-01  1.471921e-03
   endloop
 endfacet
 facet normal -9.924099e-01 -1.205367e-01 -2.436230e-02
   outer loop
     vertex -5.157831e-01  1.288414e-02 -3.880464e-06
     vertex -5.044711e-01  1.288414e-02 -4.608026e-01
     vertex -4.892201e-01 -1.127566e-01 -4.604282e-01
   endloop
 endfacet
 facet normal -9.924099e-01 -1.205367e-01 -2.436230e-02
   outer loop
     vertex -5.157831e-01  1.288414e-02 -3.880464e-06
     vertex -4.892201e-01 -1.127566e-01 -4.604282e-01
     vertex -5.005321e-01 -1.127566e-01  3.705094e-04
   endloop
 endfacet
 facet normal -8.443539e-01 -5.353847e-01 -2.072773e-02
   outer loop
     vertex  3.260553e-01  2.066832e-02  2.066209e-02
     vertex  1.553831e-01  2.899972e-01  1.647232e-02
     vertex  1.666951e-01  2.899972e-01 -4.443263e-01
   endloop
 endfacet
 facet normal -8.443539e-01 -5.353847e-01 -2.072773e-02
   outer loop
     vertex  3.260553e-01  2.066832e-02  2.066209e-02
     vertex  1.666951e-01  2.899972e-01 -4.443263e-01
     vertex  3.373672e-01  2.066832e-02 -4.401366e-01
   endloop
 endfacet
 facet normal -8.695990e-01  4.932969e-01 -2.134746e-02
   outer loop
     vertex  1.688001e-01 -2.567131e-01  1.680169e-02
     vertex  3.260553e-01  2.066832e-02  2.066209e-02
     vertex  3.373672e-01  2.066832e-02 -4.401366e-01
   endloop
 endfacet
 facet normal -8.695990e-01  4.932969e-01 -2.134746e-02
   outer loop
     vertex  1.688001e-01 -2.567131e-01  1.680169e-02
     vertex  3.373672e-01  2.066832e-02 -4.401366e-01
     vertex  1.801120e-01 -2.567131e-01 -4.439970e-01
   endloop
 endfacet
 facet normal -2.453384e-02  9.996988e-01 -6.022719e-04
   outer loop
     vertex  1.621271e-01 -2.568870e-01  0.000000e+00
     vertex  1.801120e-01 -2.567131e-01 -4.439970e-01
     vertex  1.727428e-01 -2.568941e-01 -4.441779e-01
   endloop
 endfacet
 facet normal -2.453384e-02  9.996988e-01 -6.022719e-04
   outer loop
     vertex  1.618388e-01 -2.568941e-01  0.000000e+00
     vertex  1.621271e-01 -2.568870e-01  0.000000e+00
     vertex  1.727428e-01 -2.568941e-01 -4.441779e-01
   endloop
 endfacet
 facet normal -2.453384e-02  9.996988e-01 -6.022719e-04
   outer loop
     vertex  1.621331e-01 -2.568768e-01  1.663803e-02
     vertex  1.688001e-01 -2.567131e-01  1.680169e-02
     vertex  1.621271e-01 -2.568870e-01  0.000000e+00
   endloop
 endfacet
 facet normal -2.453384e-02  9.996988e-01 -6.022719e-04
   outer loop
     vertex  1.688001e-01 -2.567131e-01  1.680169e-02
     vertex  1.801120e-01 -2.567131e-01 -4.439970e-01
     vertex  1.621271e-01 -2.568870e-01  0.000000e+00
   endloop
 endfacet
 facet normal  0.000000e+00  0.000000e+00 -1.000000e+00
   outer loop
     vertex  3.080837e-01  7.544499e-03  0.000000e+00
     vertex  1.621271e-01 -2.568870e-01  0.000000e+00
     vertex  1.618388e-01 -2.568941e-01  0.000000e+00
   endloop
 endfacet
 facet normal  0.000000e+00 -0.000000e+00 -1.000000e+00
   outer loop
     vertex  3.080837e-01  7.544499e-03  0.000000e+00
     vertex  3.125000e-01  0.000000e+00  0.000000e+00
     vertex  1.621271e-01 -2.568870e-01  0.000000e+00
   endloop
 endfacet
 facet normal -8.630145e-01 -5.051792e-01  0.000000e+00
   outer loop
     vertex -1.604441e-01 -2.731086e-01  8.719202e-03
     vertex -3.203125e-01  0.000000e+00  7.500000e-01
     vertex -3.203125e-01  0.000000e+00  4.794653e-03
   endloop
 endfacet
 facet normal -8.630145e-01 -5.051792e-01  0.000000e+00
   outer loop
     vertex -1.604441e-01 -2.731086e-01  8.719202e-03
     vertex -1.604441e-01 -2.731086e-01  7.500000e-01
     vertex -3.203125e-01  0.000000e+00  7.500000e-01
   endloop
 endfacet
 facet normal  0.000000e+00  0.000000e+00  1.000000e+00
   outer loop
     vertex -1.604441e-01  2.731086e-01  7.500000e-01
     vertex -3.203125e-01  0.000000e+00  7.500000e-01
     vertex -1.604441e-01 -2.731086e-01  7.500000e-01
   endloop
 endfacet
 facet normal  0.000000e+00  0.000000e+00  1.000000e+00
   outer loop
     vertex  1.526316e-01  2.731086e-01  7.500000e-01
     vertex -1.604441e-01 -2.731086e-01  7.500000e-01
     vertex  1.526316e-01 -2.731086e-01  7.500000e-01
   endloop
 endfacet
 facet normal  0.000000e+00  0.000000e+00  1.000000e+00
   outer loop
     vertex  1.526316e-01  2.731086e-01  7.500000e-01
     vertex  1.526316e-01 -2.731086e-01  7.500000e-01
     vertex  3.125000e-01  0.000000e+00  7.500000e-01
   endloop
 endfacet
 facet normal  0.000000e+00  0.000000e+00  1.000000e+00
   outer loop
     vertex  1.526316e-01  2.731086e-01  7.500000e-01
     vertex -1.604441e-01  2.731086e-01  7.500000e-01
     vertex -1.604441e-01 -2.731086e-01  7.500000e-01
   endloop
 endfacet
 facet normal  8.630145e-01 -5.051792e-01  0.000000e+00
   outer loop
     vertex  1.621331e-01 -2.568768e-01  1.663803e-02
     vertex  1.526316e-01 -2.731086e-01  7.500000e-01
     vertex  1.526316e-01 -2.731086e-01  1.640478e-02
   endloop
 endfacet
 facet normal  8.630145e-01 -5.051792e-01  5.606036e-18
   outer loop
     vertex  1.621331e-01 -2.568768e-01  1.663803e-02
     vertex  3.125000e-01  0.000000e+00  7.500000e-01
     vertex  1.526316e-01 -2.731086e-01  7.500000e-01
   endloop
 endfacet
 facet normal  8.630145e-01 -5.051792e-01 -1.401085e-15
   outer loop
     vertex  3.125000e-01  0.000000e+00  0.000000e+00
     vertex  1.621331e-01 -2.568768e-01  1.663803e-02
     vertex  1.621271e-01 -2.568870e-01  0.000000e+00
   endloop
 endfacet
 facet normal  8.630145e-01 -5.051792e-01  0.000000e+00
   outer loop
     vertex  3.125000e-01  0.000000e+00  0.000000e+00
     vertex  3.125000e-01  0.000000e+00  7.500000e-01
     vertex  1.621331e-01 -2.568768e-01  1.663803e-02
   endloop
 endfacet
 facet normal -0.000000e+00 -1.000000e+00  0.000000e+00
   outer loop
     vertex  1.526316e-01 -2.731086e-01  1.640478e-02
     vertex -1.604441e-01 -2.731086e-01  7.500000e-01
     vertex -1.604441e-01 -2.731086e-01  8.719202e-03
   endloop
 endfacet
 facet normal  0.000000e+00 -1.000000e+00  0.000000e+00
   outer loop
     vertex  1.526316e-01 -2.731086e-01  1.640478e-02
     vertex  1.526316e-01 -2.731086e-01  7.500000e-01
     vertex -1.604441e-01 -2.731086e-01  7.500000e-01
   endloop
 endfacet
 facet normal -8.657646e-01  5.000000e-01 -2.125333e-02
   outer loop
     vertex  2.816255e-01  7.030789e-02 -4.599694e-01
     vertex  2.446562e-01  1.937465e-03 -5.624700e-01
     vertex  2.421637e-01  1.937465e-03 -4.609381e-01
   endloop
 endfacet
 facet normal -8.657646e-01  5.000000e-01 -2.125333e-02
   outer loop
     vertex  2.816255e-01  7.030789e-02 -4.599694e-01
     vertex  2.841180e-01  7.030789e-02 -5.615013e-01
     vertex  2.446562e-01  1.937465e-03 -5.624700e-01
   endloop
 endfacet
 facet normal  0.000000e+00  1.000000e+00  0.000000e+00
   outer loop
     vertex  3.605491e-01  7.030789e-02 -4.580319e-01
     vertex  3.630416e-01  7.030789e-02 -5.595638e-01
     vertex  2.841180e-01  7.030789e-02 -5.615013e-01
   endloop
 endfacet
 facet normal  0.000000e+00  1.000000e+00  0.000000e+00
   outer loop
     vertex  3.605491e-01  7.030789e-02 -4.580319e-01
     vertex  2.841180e-01  7.030789e-02 -5.615013e-01
     vertex  2.816255e-01  7.030789e-02 -4.599694e-01
   endloop
 endfacet
 facet normal  8.657646e-01  5.000000e-01  2.125333e-02
   outer loop
     vertex  4.000109e-01  1.937465e-03 -4.570632e-01
     vertex  4.025034e-01  1.937465e-03 -5.585951e-01
     vertex  3.630416e-01  7.030789e-02 -5.595638e-01
   endloop
 endfacet
 facet normal  8.657646e-01  5.000000e-01  2.125333e-02
   outer loop
     vertex  4.000109e-01  1.937465e-03 -4.570632e-01
     vertex  3.630416e-01  7.030789e-02 -5.595638e-01
     vertex  3.605491e-01  7.030789e-02 -4.580319e-01
   endloop
 endfacet
 facet normal  8.657646e-01 -5.000000e-01  2.125333e-02
   outer loop
     vertex  3.605491e-01 -6.643296e-02 -4.580319e-01
     vertex  3.630416e-01 -6.643296e-02 -5.595638e-01
     vertex  4.025034e-01  1.937465e-03 -5.585951e-01
   endloop
 endfacet
 facet normal  8.657646e-01 -5.000000e-01  2.125333e-02
   outer loop
     vertex  3.605491e-01 -6.643296e-02 -4.580319e-01
     vertex  4.025034e-01  1.937465e-03 -5.585951e-01
     vertex  4.000109e-01  1.937465e-03 -4.570632e-01
   endloop
 endfacet
 facet normal  7.029295e-16 -1.000000e+00  1.725595e-17
   outer loop
     vertex  2.816255e-01 -6.643296e-02 -4.599694e-01
     vertex  2.841180e-01 -6.643296e-02 -5.615013e-01
     vertex  3.630416e-01 -6.643296e-02 -5.595638e-01
   endloop
 endfacet
 facet normal  7.029295e-16 -1.000000e+00  1.725595e-17
   outer loop
     vertex  2.816255e-01 -6.643296e-02 -4.599694e-01
     vertex  3.630416e-01 -6.643296e-02 -5.595638e-01
     vertex  3.605491e-01 -6.643296e-02 -4.580319e-01
   endloop
 endfacet
 facet normal -8.657646e-01 -5.000000e-01 -2.125333e-02
   outer loop
     vertex  2.421637e-01  1.937465e-03 -4.609381e-01
     vertex  2.446562e-01  1.937465e-03 -5.624700e-01
     vertex  2.841180e-01 -6.643296e-02 -5.615013e-01
   endloop
 endfacet
 facet normal -8.657646e-01 -5.000000e-01 -2.125333e-02
   outer loop
     vertex  2.421637e-01  1.937465e-03 -4.609381e-01
     vertex  2.841180e-01 -6.643296e-02 -5.615013e-01
     vertex  2.816255e-01 -6.643296e-02 -4.599694e-01
   endloop
 endfacet
 facet normal -2.454123e-02 -5.021626e-18  9.996988e-01
   outer loop
     vertex  3.605491e-01 -6.643296e-02 -4.580319e-01
     vertex  2.816255e-01  7.030789e-02 -4.599694e-01
     vertex  2.421637e-01  1.937465e-03 -4.609381e-01
   endloop
 endfacet
 facet normal -2.454123e-02 -9.962727e-18  9.996988e-01
   outer loop
     vertex  3.605491e-01 -6.643296e-02 -4.580319e-01
     vertex  3.605491e-01  7.030789e-02 -4.580319e-01
     vertex  2.816255e-01  7.030789e-02 -4.599694e-01
   endloop
 endfacet
 facet normal -2.454123e-02 -9.962727e-18  9.996988e-01
   outer loop
     vertex  3.605491e-01 -6.643296e-02 -4.580319e-01
     vertex  4.000109e-01  1.937465e-03 -4.570632e-01
     vertex  3.605491e-01  7.030789e-02 -4.580319e-01
   endloop
 endfacet
 facet normal -2.454123e-02 -2.008650e-17  9.996988e-01
   outer loop
     vertex  3.605491e-01 -6.643296e-02 -4.580319e-01
     vertex  2.421637e-01  1.937465e-03 -4.609381e-01
     vertex  2.816255e-01 -6.643296e-02 -4.599694e-01
   endloop
 endfacet
 facet normal  2.454123e-02 -4.067517e-16 -9.996988e-01
   outer loop
     vertex  3.630416e-01 -6.643296e-02 -5.595638e-01
     vertex  2.446562e-01  1.937465e-03 -5.624700e-01
     vertex  2.841180e-01  7.030789e-02 -5.615013e-01
   endloop
 endfacet
 facet normal  2.454123e-02  9.962727e-18 -9.996988e-01
   outer loop
     vertex  3.630416e-01 -6.643296e-02 -5.595638e-01
     vertex  2.841180e-01  7.030789e-02 -5.615013e-01
     vertex  3.630416e-01  7.030789e-02 -5.595638e-01
   endloop
 endfacet
 facet normal  2.454123e-02  9.962727e-18 -9.996988e-01
   outer loop
     vertex  3.630416e-01 -6.643296e-02 -5.595638e-01
     vertex  3.630416e-01  7.030789e-02 -5.595638e-01
     vertex  4.025034e-01  1.937465e-03 -5.585951e-01
   endloop
 endfacet
 facet normal  2.454123e-02  8.436331e-16 -9.996988e-01
   outer loop
     vertex  3.630416e-01 -6.643296e-02 -5.595638e-01
     vertex  2.841180e-01 -6.643296e-02 -5.615013e-01
     vertex  2.446562e-01  1.937465e-03 -5.624700e-01
   endloop
 endfacet
endsolid
