solid 
 facet normal -8.630145e-01 -5.051792e-01  0.000000e+00
   outer loop
     vertex -5.217105e-01 -2.832237e-01  0.000000e+00
     vertex -6.875000e-01  0.000000e+00  2.500000e-01
     vertex -6.875000e-01  0.000000e+00  0.000000e+00
   endloop
 endfacet
 facet normal -8.630145e-01 -5.051792e-01  0.000000e+00
   outer loop
     vertex -5.217105e-01 -2.832237e-01  0.000000e+00
     vertex -5.217105e-01 -2.832237e-01  2.500000e-01
     vertex -6.875000e-01  0.000000e+00  2.500000e-01
   endloop
 endfacet
 facet normal  0.000000e+00 -1.000000e+00  0.000000e+00
   outer loop
     vertex -1.970395e-01 -2.832237e-01  0.000000e+00
     vertex -5.217105e-01 -2.832237e-01  2.500000e-01
     vertex -5.217105e-01 -2.832237e-01  0.000000e+00
   endloop
 endfacet
 facet normal  0.000000e+00 -1.000000e+00  0.000000e+00
   outer loop
     vertex -1.970395e-01 -2.832237e-01  0.000000e+00
     vertex -1.970395e-01 -2.832237e-01  2.500000e-01
     vertex -5.217105e-01 -2.832237e-01  2.500000e-01
   endloop
 endfacet
 facet normal  8.630145e-01 -5.051792e-01  0.000000e+00
   outer loop
     vertex -3.125000e-02  0.000000e+00  0.000000e+00
     vertex -1.970395e-01 -2.832237e-01  2.500000e-01
     vertex -1.970395e-01 -2.832237e-01  0.000000e+00
   endloop
 endfacet
 facet normal  8.630145e-01 -5.051792e-01  0.000000e+00
   outer loop
     vertex -3.125000e-02  0.000000e+00  0.000000e+00
     vertex -3.125000e-02  0.000000e+00  2.500000e-01
     vertex -1.970395e-01 -2.832237e-01  2.500000e-01
   endloop
 endfacet
 facet normal  8.630145e-01  5.051792e-01  0.000000e+00
   outer loop
     vertex -1.970395e-01  2.832237e-01  0.000000e+00
     vertex -3.125000e-02  0.000000e+00  2.500000e-01
     vertex -3.125000e-02  0.000000e+00  0.000000e+00
   endloop
 endfacet
 facet normal  8.630145e-01  5.051792e-01 -0.000000e+00
   outer loop
     vertex -1.970395e-01  2.832237e-01  0.000000e+00
     vertex -1.970395e-01  2.832237e-01  2.500000e-01
     vertex -3.125000e-02  0.000000e+00  2.500000e-01
   endloop
 endfacet
 facet normal  0.000000e+00  1.000000e+00  0.000000e+00
   outer loop
     vertex -5.217105e-01  2.832237e-01  0.000000e+00
     vertex -1.970395e-01  2.832237e-01  2.500000e-01
     vertex -1.970395e-01  2.832237e-01  0.000000e+00
   endloop
 endfacet
 facet normal  0.000000e+00  1.000000e+00  0.000000e+00
   outer loop
     vertex -5.217105e-01  2.832237e-01  0.000000e+00
     vertex -5.217105e-01  2.832237e-01  2.500000e-01
     vertex -1.970395e-01  2.832237e-01  2.500000e-01
   endloop
 endfacet
 facet normal -8.630145e-01  5.051792e-01  0.000000e+00
   outer loop
     vertex -6.875000e-01  0.000000e+00  0.000000e+00
     vertex -5.217105e-01  2.832237e-01  2.500000e-01
     vertex -5.217105e-01  2.832237e-01  0.000000e+00
   endloop
 endfacet
 facet normal -8.630145e-01  5.051792e-01  0.000000e+00
   outer loop
     vertex -6.875000e-01  0.000000e+00  0.000000e+00
     vertex -6.875000e-01  0.000000e+00  2.500000e-01
     vertex -5.217105e-01  2.832237e-01  2.500000e-01
   endloop
 endfacet
 facet normal -9.863613e-01 -1.645946e-01  0.000000e+00
   outer loop
     vertex -1.011104e-01  8.747660e-02  0.000000e+00
     vertex -8.651316e-02  0.000000e+00  0.000000e+00
     vertex -8.651316e-02  0.000000e+00  2.500000e-01
   endloop
 endfacet
 facet normal -9.863613e-01 -1.645946e-01  0.000000e+00
   outer loop
     vertex -1.011104e-01  8.747660e-02  0.000000e+00
     vertex -8.651316e-02  0.000000e+00  2.500000e-01
     vertex -1.011104e-01  8.747660e-02  2.500000e-01
   endloop
 endfacet
 facet normal -8.794738e-01 -4.759474e-01  0.000000e+00
   outer loop
     vertex -1.433204e-01  1.654738e-01  0.000000e+00
     vertex -1.011104e-01  8.747660e-02  2.500000e-01
     vertex -1.433204e-01  1.654738e-01  2.500000e-01
   endloop
 endfacet
 facet normal -8.794738e-01 -4.759474e-01  0.000000e+00
   outer loop
     vertex -1.433204e-01  1.654738e-01  0.000000e+00
     vertex -1.011104e-01  8.747660e-02  0.000000e+00
     vertex -1.011104e-01  8.747660e-02  2.500000e-01
   endloop
 endfacet
 facet normal -6.772816e-01 -7.357239e-01  0.000000e+00
   outer loop
     vertex -2.085689e-01  2.255393e-01  0.000000e+00
     vertex -1.433204e-01  1.654738e-01  2.500000e-01
     vertex -2.085689e-01  2.255393e-01  2.500000e-01
   endloop
 endfacet
 facet normal -6.772816e-01 -7.357239e-01  0.000000e+00
   outer loop
     vertex -2.085689e-01  2.255393e-01  0.000000e+00
     vertex -1.433204e-01  1.654738e-01  0.000000e+00
     vertex -1.433204e-01  1.654738e-01  2.500000e-01
   endloop
 endfacet
 facet normal -4.016954e-01 -9.157733e-01  0.000000e+00
   outer loop
     vertex -2.897853e-01  2.611641e-01  0.000000e+00
     vertex -2.085689e-01  2.255393e-01  2.500000e-01
     vertex -2.897853e-01  2.611641e-01  2.500000e-01
   endloop
 endfacet
 facet normal -4.016954e-01 -9.157733e-01  0.000000e+00
   outer loop
     vertex -2.897853e-01  2.611641e-01  0.000000e+00
     vertex -2.085689e-01  2.255393e-01  0.000000e+00
     vertex -2.085689e-01  2.255393e-01  2.500000e-01
   endloop
 endfacet
 facet normal -8.257935e-02 -9.965845e-01  0.000000e+00
   outer loop
     vertex -3.781686e-01  2.684877e-01  0.000000e+00
     vertex -2.897853e-01  2.611641e-01  2.500000e-01
     vertex -3.781686e-01  2.684877e-01  2.500000e-01
   endloop
 endfacet
 facet normal -8.257935e-02 -9.965845e-01  0.000000e+00
   outer loop
     vertex -3.781686e-01  2.684877e-01  0.000000e+00
     vertex -2.897853e-01  2.611641e-01  0.000000e+00
     vertex -2.897853e-01  2.611641e-01  2.500000e-01
   endloop
 endfacet
 facet normal  2.454855e-01 -9.694003e-01  0.000000e+00
   outer loop
     vertex -4.641410e-01  2.467166e-01  0.000000e+00
     vertex -3.781686e-01  2.684877e-01  2.500000e-01
     vertex -4.641410e-01  2.467166e-01  2.500000e-01
   endloop
 endfacet
 facet normal  2.454855e-01 -9.694003e-01  0.000000e+00
   outer loop
     vertex -4.641410e-01  2.467166e-01  0.000000e+00
     vertex -3.781686e-01  2.684877e-01  0.000000e+00
     vertex -3.781686e-01  2.684877e-01  2.500000e-01
   endloop
 endfacet
 facet normal  5.469482e-01 -8.371665e-01  0.000000e+00
   outer loop
     vertex -5.383861e-01  1.982098e-01  0.000000e+00
     vertex -4.641410e-01  2.467166e-01  2.500000e-01
     vertex -5.383861e-01  1.982098e-01  2.500000e-01
   endloop
 endfacet
 facet normal  5.469482e-01 -8.371665e-01  0.000000e+00
   outer loop
     vertex -5.383861e-01  1.982098e-01  0.000000e+00
     vertex -4.641410e-01  2.467166e-01  0.000000e+00
     vertex -4.641410e-01  2.467166e-01  2.500000e-01
   endloop
 endfacet
 facet normal  7.891405e-01 -6.142127e-01  0.000000e+00
   outer loop
     vertex -5.928582e-01  1.282240e-01  0.000000e+00
     vertex -5.383861e-01  1.982098e-01  2.500000e-01
     vertex -5.928582e-01  1.282240e-01  2.500000e-01
   endloop
 endfacet
 facet normal  9.458172e-01 -3.246995e-01  0.000000e+00
   outer loop
     vertex -5.928582e-01  1.282240e-01  0.000000e+00
     vertex -5.928582e-01  1.282240e-01  2.500000e-01
     vertex -6.216546e-01  4.434308e-02  2.500000e-01
   endloop
 endfacet
 facet normal  7.891405e-01 -6.142127e-01  0.000000e+00
   outer loop
     vertex -5.928582e-01  1.282240e-01  0.000000e+00
     vertex -5.383861e-01  1.982098e-01  0.000000e+00
     vertex -5.383861e-01  1.982098e-01  2.500000e-01
   endloop
 endfacet
 facet normal  9.458172e-01 -3.246995e-01  0.000000e+00
   outer loop
     vertex -6.216546e-01  4.434308e-02  0.000000e+00
     vertex -5.928582e-01  1.282240e-01  0.000000e+00
     vertex -6.216546e-01  4.434308e-02  2.500000e-01
   endloop
 endfacet
 facet normal  1.000000e+00 -1.251856e-15  0.000000e+00
   outer loop
     vertex -6.216546e-01 -4.434308e-02  0.000000e+00
     vertex -6.216546e-01  4.434308e-02  2.500000e-01
     vertex -6.216546e-01 -4.434308e-02  2.500000e-01
   endloop
 endfacet
 facet normal  1.000000e+00 -1.251856e-15  0.000000e+00
   outer loop
     vertex -6.216546e-01 -4.434308e-02  0.000000e+00
     vertex -6.216546e-01  4.434308e-02  0.000000e+00
     vertex -6.216546e-01  4.434308e-02  2.500000e-01
   endloop
 endfacet
 facet normal  9.458172e-01  3.246995e-01 -0.000000e+00
   outer loop
     vertex -5.928582e-01 -1.282240e-01  0.000000e+00
     vertex -6.216546e-01 -4.434308e-02  2.500000e-01
     vertex -5.928582e-01 -1.282240e-01  2.500000e-01
   endloop
 endfacet
 facet normal  9.458172e-01  3.246995e-01  0.000000e+00
   outer loop
     vertex -5.928582e-01 -1.282240e-01  0.000000e+00
     vertex -6.216546e-01 -4.434308e-02  0.000000e+00
     vertex -6.216546e-01 -4.434308e-02  2.500000e-01
   endloop
 endfacet
 facet normal  7.891405e-01  6.142127e-01 -0.000000e+00
   outer loop
     vertex -5.383861e-01 -1.982098e-01  0.000000e+00
     vertex -5.928582e-01 -1.282240e-01  2.500000e-01
     vertex -5.383861e-01 -1.982098e-01  2.500000e-01
   endloop
 endfacet
 facet normal  7.891405e-01  6.142127e-01  0.000000e+00
   outer loop
     vertex -5.383861e-01 -1.982098e-01  0.000000e+00
     vertex -5.928582e-01 -1.282240e-01  0.000000e+00
     vertex -5.928582e-01 -1.282240e-01  2.500000e-01
   endloop
 endfacet
 facet normal  5.469482e-01  8.371665e-01 -0.000000e+00
   outer loop
     vertex -4.641410e-01 -2.467166e-01  0.000000e+00
     vertex -5.383861e-01 -1.982098e-01  2.500000e-01
     vertex -4.641410e-01 -2.467166e-01  2.500000e-01
   endloop
 endfacet
 facet normal  5.469482e-01  8.371665e-01  0.000000e+00
   outer loop
     vertex -4.641410e-01 -2.467166e-01  0.000000e+00
     vertex -5.383861e-01 -1.982098e-01  0.000000e+00
     vertex -5.383861e-01 -1.982098e-01  2.500000e-01
   endloop
 endfacet
 facet normal  2.454855e-01  9.694003e-01 -0.000000e+00
   outer loop
     vertex -3.781686e-01 -2.684877e-01  0.000000e+00
     vertex -4.641410e-01 -2.467166e-01  2.500000e-01
     vertex -3.781686e-01 -2.684877e-01  2.500000e-01
   endloop
 endfacet
 facet normal  2.454855e-01  9.694003e-01  0.000000e+00
   outer loop
     vertex -3.781686e-01 -2.684877e-01  0.000000e+00
     vertex -4.641410e-01 -2.467166e-01  0.000000e+00
     vertex -4.641410e-01 -2.467166e-01  2.500000e-01
   endloop
 endfacet
 facet normal -8.257935e-02  9.965845e-01  0.000000e+00
   outer loop
     vertex -2.897853e-01 -2.611641e-01  0.000000e+00
     vertex -3.781686e-01 -2.684877e-01  0.000000e+00
     vertex -3.781686e-01 -2.684877e-01  2.500000e-01
   endloop
 endfacet
 facet normal -8.257935e-02  9.965845e-01  0.000000e+00
   outer loop
     vertex -2.897853e-01 -2.611641e-01  0.000000e+00
     vertex -3.781686e-01 -2.684877e-01  2.500000e-01
     vertex -2.897853e-01 -2.611641e-01  2.500000e-01
   endloop
 endfacet
 facet normal -4.016954e-01  9.157733e-01  0.000000e+00
   outer loop
     vertex -2.085689e-01 -2.255393e-01  0.000000e+00
     vertex -2.897853e-01 -2.611641e-01  0.000000e+00
     vertex -2.897853e-01 -2.611641e-01  2.500000e-01
   endloop
 endfacet
 facet normal -4.016954e-01  9.157733e-01  0.000000e+00
   outer loop
     vertex -2.085689e-01 -2.255393e-01  0.000000e+00
     vertex -2.897853e-01 -2.611641e-01  2.500000e-01
     vertex -2.085689e-01 -2.255393e-01  2.500000e-01
   endloop
 endfacet
 facet normal -6.772816e-01  7.357239e-01  0.000000e+00
   outer loop
     vertex -2.085689e-01 -2.255393e-01  0.000000e+00
     vertex -2.085689e-01 -2.255393e-01  2.500000e-01
     vertex -1.433204e-01 -1.654738e-01  2.500000e-01
   endloop
 endfacet
 facet normal -6.772816e-01  7.357239e-01  0.000000e+00
   outer loop
     vertex -1.433204e-01 -1.654738e-01  0.000000e+00
     vertex -2.085689e-01 -2.255393e-01  0.000000e+00
     vertex -1.433204e-01 -1.654738e-01  2.500000e-01
   endloop
 endfacet
 facet normal -8.794738e-01  4.759474e-01  0.000000e+00
   outer loop
     vertex -1.011104e-01 -8.747660e-02  0.000000e+00
     vertex -1.433204e-01 -1.654738e-01  0.000000e+00
     vertex -1.433204e-01 -1.654738e-01  2.500000e-01
   endloop
 endfacet
 facet normal -8.794738e-01  4.759474e-01  0.000000e+00
   outer loop
     vertex -1.011104e-01 -8.747660e-02  0.000000e+00
     vertex -1.433204e-01 -1.654738e-01  2.500000e-01
     vertex -1.011104e-01 -8.747660e-02  2.500000e-01
   endloop
 endfacet
 facet normal -9.863613e-01  1.645946e-01  0.000000e+00
   outer loop
     vertex -8.651316e-02  0.000000e+00  0.000000e+00
     vertex -1.011104e-01 -8.747660e-02  2.500000e-01
     vertex -8.651316e-02  0.000000e+00  2.500000e-01
   endloop
 endfacet
 facet normal -9.863613e-01  1.645946e-01  0.000000e+00
   outer loop
     vertex -8.651316e-02  0.000000e+00  0.000000e+00
     vertex -1.011104e-01 -8.747660e-02  0.000000e+00
     vertex -1.011104e-01 -8.747660e-02  2.500000e-01
   endloop
 endfacet
 facet normal  0.000000e+00  0.000000e+00 -1.000000e+00
   outer loop
     vertex -5.928582e-01 -1.282240e-01  0.000000e+00
     vertex -5.383861e-01 -1.982098e-01  0.000000e+00
     vertex -5.217105e-01 -2.832237e-01  0.000000e+00
   endloop
 endfacet
 facet normal -0.000000e+00  0.000000e+00 -1.000000e+00
   outer loop
     vertex -4.641410e-01 -2.467166e-01  0.000000e+00
     vertex -5.217105e-01 -2.832237e-01  0.000000e+00
     vertex -5.383861e-01 -1.982098e-01  0.000000e+00
   endloop
 endfacet
 facet normal -0.000000e+00 -0.000000e+00 -1.000000e+00
   outer loop
     vertex -6.216546e-01 -4.434308e-02  0.000000e+00
     vertex -5.928582e-01 -1.282240e-01  0.000000e+00
     vertex -6.875000e-01  0.000000e+00  0.000000e+00
   endloop
 endfacet
 facet normal -0.000000e+00  0.000000e+00 -1.000000e+00
   outer loop
     vertex -3.781686e-01 -2.684877e-01  0.000000e+00
     vertex -5.217105e-01 -2.832237e-01  0.000000e+00
     vertex -4.641410e-01 -2.467166e-01  0.000000e+00
   endloop
 endfacet
 facet normal  0.000000e+00  0.000000e+00 -1.000000e+00
   outer loop
     vertex -6.216546e-01  4.434308e-02  0.000000e+00
     vertex -6.216546e-01 -4.434308e-02  0.000000e+00
     vertex -6.875000e-01  0.000000e+00  0.000000e+00
   endloop
 endfacet
 facet normal  0.000000e+00  0.000000e+00 -1.000000e+00
   outer loop
     vertex -1.970395e-01 -2.832237e-01  0.000000e+00
     vertex -3.781686e-01 -2.684877e-01  0.000000e+00
     vertex -2.897853e-01 -2.611641e-01  0.000000e+00
   endloop
 endfacet
 facet normal  0.000000e+00  0.000000e+00 -1.000000e+00
   outer loop
     vertex -1.970395e-01 -2.832237e-01  0.000000e+00
     vertex -5.217105e-01 -2.832237e-01  0.000000e+00
     vertex -3.781686e-01 -2.684877e-01  0.000000e+00
   endloop
 endfacet
 facet normal  0.000000e+00  0.000000e+00 -1.000000e+00
   outer loop
     vertex -5.928582e-01  1.282240e-01  0.000000e+00
     vertex -6.216546e-01  4.434308e-02  0.000000e+00
     vertex -6.875000e-01  0.000000e+00  0.000000e+00
   endloop
 endfacet
 facet normal  0.000000e+00 -0.000000e+00 -1.000000e+00
   outer loop
     vertex -2.085689e-01 -2.255393e-01  0.000000e+00
     vertex -1.970395e-01 -2.832237e-01  0.000000e+00
     vertex -2.897853e-01 -2.611641e-01  0.000000e+00
   endloop
 endfacet
 facet normal  0.000000e+00  0.000000e+00 -1.000000e+00
   outer loop
     vertex -1.433204e-01 -1.654738e-01  0.000000e+00
     vertex -1.970395e-01 -2.832237e-01  0.000000e+00
     vertex -2.085689e-01 -2.255393e-01  0.000000e+00
   endloop
 endfacet
 facet normal  0.000000e+00  0.000000e+00 -1.000000e+00
   outer loop
     vertex -5.217105e-01  2.832237e-01  0.000000e+00
     vertex -5.383861e-01  1.982098e-01  0.000000e+00
     vertex -5.928582e-01  1.282240e-01  0.000000e+00
   endloop
 endfacet
 facet normal  0.000000e+00  0.000000e+00 -1.000000e+00
   outer loop
     vertex -5.217105e-01  2.832237e-01  0.000000e+00
     vertex -5.928582e-01  1.282240e-01  0.000000e+00
     vertex -6.875000e-01  0.000000e+00  0.000000e+00
   endloop
 endfacet
 facet normal -0.000000e+00  0.000000e+00 -1.000000e+00
   outer loop
     vertex -4.641410e-01  2.467166e-01  0.000000e+00
     vertex -5.383861e-01  1.982098e-01  0.000000e+00
     vertex -5.217105e-01  2.832237e-01  0.000000e+00
   endloop
 endfacet
 facet normal -0.000000e+00  0.000000e+00 -1.000000e+00
   outer loop
     vertex -3.781686e-01  2.684877e-01  0.000000e+00
     vertex -4.641410e-01  2.467166e-01  0.000000e+00
     vertex -5.217105e-01  2.832237e-01  0.000000e+00
   endloop
 endfacet
 facet normal  0.000000e+00  0.000000e+00 -1.000000e+00
   outer loop
     vertex -3.125000e-02  0.000000e+00  0.000000e+00
     vertex -1.433204e-01 -1.654738e-01  0.000000e+00
     vertex -1.011104e-01 -8.747660e-02  0.000000e+00
   endloop
 endfacet
 facet normal -0.000000e+00  0.000000e+00 -1.000000e+00
   outer loop
     vertex -3.125000e-02  0.000000e+00  0.000000e+00
     vertex -1.011104e-01 -8.747660e-02  0.000000e+00
     vertex -8.651316e-02  0.000000e+00  0.000000e+00
   endloop
 endfacet
 facet normal  0.000000e+00  0.000000e+00 -1.000000e+00
   outer loop
     vertex -1.011104e-01  8.747660e-02  0.000000e+00
     vertex -3.125000e-02  0.000000e+00  0.000000e+00
     vertex -8.651316e-02  0.000000e+00  0.000000e+00
   endloop
 endfacet
 facet normal  0.000000e+00  0.000000e+00 -1.000000e+00
   outer loop
     vertex -1.433204e-01  1.654738e-01  0.000000e+00
     vertex -3.125000e-02  0.000000e+00  0.000000e+00
     vertex -1.011104e-01  8.747660e-02  0.000000e+00
   endloop
 endfacet
 facet normal  0.000000e+00 -0.000000e+00 -1.000000e+00
   outer loop
     vertex -1.970395e-01  2.832237e-01  0.000000e+00
     vertex -1.433204e-01  1.654738e-01  0.000000e+00
     vertex -2.085689e-01  2.255393e-01  0.000000e+00
   endloop
 endfacet
 facet normal  0.000000e+00  0.000000e+00 -1.000000e+00
   outer loop
     vertex -1.970395e-01  2.832237e-01  0.000000e+00
     vertex -2.085689e-01  2.255393e-01  0.000000e+00
     vertex -2.897853e-01  2.611641e-01  0.000000e+00
   endloop
 endfacet
 facet normal  0.000000e+00  0.000000e+00 -1.000000e+00
   outer loop
     vertex -1.970395e-01  2.832237e-01  0.000000e+00
     vertex -2.897853e-01  2.611641e-01  0.000000e+00
     vertex -3.781686e-01  2.684877e-01  0.000000e+00
   endloop
 endfacet
 facet normal  0.000000e+00  0.000000e+00 -1.000000e+00
   outer loop
     vertex -1.970395e-01  2.832237e-01  0.000000e+00
     vertex -3.125000e-02  0.000000e+00  0.000000e+00
     vertex -1.433204e-01  1.654738e-01  0.000000e+00
   endloop
 endfacet
 facet normal  0.000000e+00  0.000000e+00 -1.000000e+00
   outer loop
     vertex -6.875000e-01  0.000000e+00  0.000000e+00
     vertex -5.928582e-01 -1.282240e-01  0.000000e+00
     vertex -5.217105e-01 -2.832237e-01  0.000000e+00
   endloop
 endfacet
 facet normal  0.000000e+00  0.000000e+00 -1.000000e+00
   outer loop
     vertex -1.970395e-01 -2.832237e-01  0.000000e+00
     vertex -1.433204e-01 -1.654738e-01  0.000000e+00
     vertex -3.125000e-02  0.000000e+00  0.000000e+00
   endloop
 endfacet
 facet normal -0.000000e+00  0.000000e+00 -1.000000e+00
   outer loop
     vertex -1.970395e-01  2.832237e-01  0.000000e+00
     vertex -3.781686e-01  2.684877e-01  0.000000e+00
     vertex -5.217105e-01  2.832237e-01  0.000000e+00
   endloop
 endfacet
 facet normal  0.000000e+00  0.000000e+00  1.000000e+00
   outer loop
     vertex -5.928582e-01 -1.282240e-01  2.500000e-01
     vertex -5.217105e-01 -2.832237e-01  2.500000e-01
     vertex -5.383861e-01 -1.982098e-01  2.500000e-01
   endloop
 endfacet
 facet normal  0.000000e+00  0.000000e+00  1.000000e+00
   outer loop
     vertex -4.641410e-01 -2.467166e-01  2.500000e-01
     vertex -5.383861e-01 -1.982098e-01  2.500000e-01
     vertex -5.217105e-01 -2.832237e-01  2.500000e-01
   endloop
 endfacet
 facet normal  0.000000e+00  0.000000e+00  1.000000e+00
   outer loop
     vertex -6.216546e-01 -4.434308e-02  2.500000e-01
     vertex -6.875000e-01  0.000000e+00  2.500000e-01
     vertex -5.928582e-01 -1.282240e-01  2.500000e-01
   endloop
 endfacet
 facet normal  0.000000e+00  0.000000e+00  1.000000e+00
   outer loop
     vertex -3.781686e-01 -2.684877e-01  2.500000e-01
     vertex -4.641410e-01 -2.467166e-01  2.500000e-01
     vertex -5.217105e-01 -2.832237e-01  2.500000e-01
   endloop
 endfacet
 facet normal  0.000000e+00  0.000000e+00  1.000000e+00
   outer loop
     vertex -6.216546e-01  4.434308e-02  2.500000e-01
     vertex -6.875000e-01  0.000000e+00  2.500000e-01
     vertex -6.216546e-01 -4.434308e-02  2.500000e-01
   endloop
 endfacet
 facet normal  0.000000e+00  0.000000e+00  1.000000e+00
   outer loop
     vertex -1.970395e-01 -2.832237e-01  2.500000e-01
     vertex -2.897853e-01 -2.611641e-01  2.500000e-01
     vertex -3.781686e-01 -2.684877e-01  2.500000e-01
   endloop
 endfacet
 facet normal  0.000000e+00  0.000000e+00  1.000000e+00
   outer loop
     vertex -1.970395e-01 -2.832237e-01  2.500000e-01
     vertex -3.781686e-01 -2.684877e-01  2.500000e-01
     vertex -5.217105e-01 -2.832237e-01  2.500000e-01
   endloop
 endfacet
 facet normal  0.000000e+00  0.000000e+00  1.000000e+00
   outer loop
     vertex -5.928582e-01  1.282240e-01  2.500000e-01
     vertex -6.875000e-01  0.000000e+00  2.500000e-01
     vertex -6.216546e-01  4.434308e-02  2.500000e-01
   endloop
 endfacet
 facet normal  0.000000e+00  0.000000e+00  1.000000e+00
   outer loop
     vertex -2.085689e-01 -2.255393e-01  2.500000e-01
     vertex -2.897853e-01 -2.611641e-01  2.500000e-01
     vertex -1.970395e-01 -2.832237e-01  2.500000e-01
   endloop
 endfacet
 facet normal  0.000000e+00  0.000000e+00  1.000000e+00
   outer loop
     vertex -1.433204e-01 -1.654738e-01  2.500000e-01
     vertex -2.085689e-01 -2.255393e-01  2.500000e-01
     vertex -1.970395e-01 -2.832237e-01  2.500000e-01
   endloop
 endfacet
 facet normal  0.000000e+00  0.000000e+00  1.000000e+00
   outer loop
     vertex -5.217105e-01  2.832237e-01  2.500000e-01
     vertex -5.928582e-01  1.282240e-01  2.500000e-01
     vertex -5.383861e-01  1.982098e-01  2.500000e-01
   endloop
 endfacet
 facet normal  0.000000e+00  0.000000e+00  1.000000e+00
   outer loop
     vertex -5.217105e-01  2.832237e-01  2.500000e-01
     vertex -6.875000e-01  0.000000e+00  2.500000e-01
     vertex -5.928582e-01  1.282240e-01  2.500000e-01
   endloop
 endfacet
 facet normal  0.000000e+00  0.000000e+00  1.000000e+00
   outer loop
     vertex -4.641410e-01  2.467166e-01  2.500000e-01
     vertex -5.217105e-01  2.832237e-01  2.500000e-01
     vertex -5.383861e-01  1.982098e-01  2.500000e-01
   endloop
 endfacet
 facet normal  0.000000e+00  0.000000e+00  1.000000e+00
   outer loop
     vertex -3.781686e-01  2.684877e-01  2.500000e-01
     vertex -5.217105e-01  2.832237e-01  2.500000e-01
     vertex -4.641410e-01  2.467166e-01  2.500000e-01
   endloop
 endfacet
 facet normal  0.000000e+00  0.000000e+00  1.000000e+00
   outer loop
     vertex -3.125000e-02  0.000000e+00  2.500000e-01
     vertex -1.011104e-01 -8.747660e-02  2.500000e-01
     vertex -1.433204e-01 -1.654738e-01  2.500000e-01
   endloop
 endfacet
 facet normal  0.000000e+00  0.000000e+00  1.000000e+00
   outer loop
     vertex -3.125000e-02  0.000000e+00  2.500000e-01
     vertex -8.651316e-02  0.000000e+00  2.500000e-01
     vertex -1.011104e-01 -8.747660e-02  2.500000e-01
   endloop
 endfacet
 facet normal  0.000000e+00  0.000000e+00  1.000000e+00
   outer loop
     vertex -1.011104e-01  8.747660e-02  2.500000e-01
     vertex -8.651316e-02  0.000000e+00  2.500000e-01
     vertex -3.125000e-02  0.000000e+00  2.500000e-01
   endloop
 endfacet
 facet normal  0.000000e+00  0.000000e+00  1.000000e+00
   outer loop
     vertex -1.433204e-01  1.654738e-01  2.500000e-01
     vertex -1.011104e-01  8.747660e-02  2.500000e-01
     vertex -3.125000e-02  0.000000e+00  2.500000e-01
   endloop
 endfacet
 facet normal  0.000000e+00  0.000000e+00  1.000000e+00
   outer loop
     vertex -1.970395e-01  2.832237e-01  2.500000e-01
     vertex -2.085689e-01  2.255393e-01  2.500000e-01
     vertex -1.433204e-01  1.654738e-01  2.500000e-01
   endloop
 endfacet
 facet normal  0.000000e+00  0.000000e+00  1.000000e+00
   outer loop
     vertex -1.970395e-01  2.832237e-01  2.500000e-01
     vertex -2.897853e-01  2.611641e-01  2.500000e-01
     vertex -2.085689e-01  2.255393e-01  2.500000e-01
   endloop
 endfacet
 facet normal  0.000000e+00  0.000000e+00  1.000000e+00
   outer loop
     vertex -1.970395e-01  2.832237e-01  2.500000e-01
     vertex -3.781686e-01  2.684877e-01  2.500000e-01
     vertex -2.897853e-01  2.611641e-01  2.500000e-01
   endloop
 endfacet
 facet normal  0.000000e+00  0.000000e+00  1.000000e+00
   outer loop
     vertex -1.970395e-01  2.832237e-01  2.500000e-01
     vertex -1.433204e-01  1.654738e-01  2.500000e-01
     vertex -3.125000e-02  0.000000e+00  2.500000e-01
   endloop
 endfacet
 facet normal  0.000000e+00  0.000000e+00  1.000000e+00
   outer loop
     vertex -6.875000e-01  0.000000e+00  2.500000e-01
     vertex -5.217105e-01 -2.832237e-01  2.500000e-01
     vertex -5.928582e-01 -1.282240e-01  2.500000e-01
   endloop
 endfacet
 facet normal  0.000000e+00  0.000000e+00  1.000000e+00
   outer loop
     vertex -1.970395e-01 -2.832237e-01  2.500000e-01
     vertex -3.125000e-02  0.000000e+00  2.500000e-01
     vertex -1.433204e-01 -1.654738e-01  2.500000e-01
   endloop
 endfacet
 facet normal  0.000000e+00  0.000000e+00  1.000000e+00
   outer loop
     vertex -1.970395e-01  2.832237e-01  2.500000e-01
     vertex -5.217105e-01  2.832237e-01  2.500000e-01
     vertex -3.781686e-01  2.684877e-01  2.500000e-01
   endloop
 endfacet
endsolid
