solid 
 facet normal -8.630145e-01 -5.051792e-01  0.000000e+00
   outer loop
     vertex  3.925987e-01 -3.236842e-01  0.000000e+00
     vertex  2.031250e-01  0.000000e+00  6.250000e-02
     vertex  2.031250e-01  0.000000e+00  0.000000e+00
   endloop
 endfacet
 facet normal -8.630145e-01 -5.051792e-01  0.000000e+00
   outer loop
     vertex  3.925987e-01 -3.236842e-01  0.000000e+00
     vertex  3.925987e-01 -3.236842e-01  6.250000e-02
     vertex  2.031250e-01  0.000000e+00  6.250000e-02
   endloop
 endfacet
 facet normal  0.000000e+00 -1.000000e+00  0.000000e+00
   outer loop
     vertex  7.636513e-01 -3.236842e-01  0.000000e+00
     vertex  3.925987e-01 -3.236842e-01  6.250000e-02
     vertex  3.925987e-01 -3.236842e-01  0.000000e+00
   endloop
 endfacet
 facet normal  0.000000e+00 -1.000000e+00  0.000000e+00
   outer loop
     vertex  7.636513e-01 -3.236842e-01  0.000000e+00
     vertex  7.636513e-01 -3.236842e-01  6.250000e-02
     vertex  3.925987e-01 -3.236842e-01  6.250000e-02
   endloop
 endfacet
 facet normal  8.630145e-01 -5.051792e-01  0.000000e+00
   outer loop
     vertex  9.531250e-01  0.000000e+00  0.000000e+00
     vertex  7.636513e-01 -3.236842e-01  6.250000e-02
     vertex  7.636513e-01 -3.236842e-01  0.000000e+00
   endloop
 endfacet
 facet normal  8.630145e-01 -5.051792e-01  0.000000e+00
   outer loop
     vertex  9.531250e-01  0.000000e+00  0.000000e+00
     vertex  9.531250e-01  0.000000e+00  6.250000e-02
     vertex  7.636513e-01 -3.236842e-01  6.250000e-02
   endloop
 endfacet
 facet normal  8.630145e-01  5.051792e-01  0.000000e+00
   outer loop
     vertex  7.636513e-01  3.236842e-01  0.000000e+00
     vertex  9.531250e-01  0.000000e+00  6.250000e-02
     vertex  9.531250e-01  0.000000e+00  0.000000e+00
   endloop
 endfacet
 facet normal  8.630145e-01  5.051792e-01 -0.000000e+00
   outer loop
     vertex  7.636513e-01  3.236842e-01  0.000000e+00
     vertex  7.636513e-01  3.236842e-01  6.250000e-02
     vertex  9.531250e-01  0.000000e+00  6.250000e-02
   endloop
 endfacet
 facet normal  0.000000e+00  1.000000e+00  0.000000e+00
   outer loop
     vertex  3.925987e-01  3.236842e-01  0.000000e+00
     vertex  7.636513e-01  3.236842e-01  6.250000e-02
     vertex  7.636513e-01  3.236842e-01  0.000000e+00
   endloop
 endfacet
 facet normal  0.000000e+00  1.000000e+00  0.000000e+00
   outer loop
     vertex  3.925987e-01  3.236842e-01  0.000000e+00
     vertex  3.925987e-01  3.236842e-01  6.250000e-02
     vertex  7.636513e-01  3.236842e-01  6.250000e-02
   endloop
 endfacet
 facet normal -8.630145e-01  5.051792e-01  0.000000e+00
   outer loop
     vertex  2.031250e-01  0.000000e+00  0.000000e+00
     vertex  3.925987e-01  3.236842e-01  6.250000e-02
     vertex  3.925987e-01  3.236842e-01  0.000000e+00
   endloop
 endfacet
 facet normal -8.630145e-01  5.051792e-01  0.000000e+00
   outer loop
     vertex  2.031250e-01  0.000000e+00  0.000000e+00
     vertex  2.031250e-01  0.000000e+00  6.250000e-02
     vertex  3.925987e-01  3.236842e-01  6.250000e-02
   endloop
 endfacet
 facet normal -9.781476e-01 -2.079117e-01  0.000000e+00
   outer loop
     vertex  7.695896e-01  8.348805e-02  0.000000e+00
     vertex  7.873355e-01  0.000000e+00  0.000000e+00
     vertex  7.873355e-01  0.000000e+00  6.250000e-02
   endloop
 endfacet
 facet normal -9.781476e-01 -2.079117e-01  0.000000e+00
   outer loop
     vertex  7.695896e-01  8.348805e-02  0.000000e+00
     vertex  7.873355e-01  0.000000e+00  6.250000e-02
     vertex  7.695896e-01  8.348805e-02  6.250000e-02
   endloop
 endfacet
 facet normal -8.090170e-01 -5.877853e-01  0.000000e+00
   outer loop
     vertex  7.194202e-01  1.525403e-01  0.000000e+00
     vertex  7.695896e-01  8.348805e-02  6.250000e-02
     vertex  7.194202e-01  1.525403e-01  6.250000e-02
   endloop
 endfacet
 facet normal -8.090170e-01 -5.877853e-01  0.000000e+00
   outer loop
     vertex  7.194202e-01  1.525403e-01  0.000000e+00
     vertex  7.695896e-01  8.348805e-02  0.000000e+00
     vertex  7.695896e-01  8.348805e-02  6.250000e-02
   endloop
 endfacet
 facet normal -5.000000e-01 -8.660254e-01  0.000000e+00
   outer loop
     vertex  6.455022e-01  1.952169e-01  0.000000e+00
     vertex  7.194202e-01  1.525403e-01  6.250000e-02
     vertex  6.455022e-01  1.952169e-01  6.250000e-02
   endloop
 endfacet
 facet normal -5.000000e-01 -8.660254e-01  0.000000e+00
   outer loop
     vertex  6.455022e-01  1.952169e-01  0.000000e+00
     vertex  7.194202e-01  1.525403e-01  0.000000e+00
     vertex  7.194202e-01  1.525403e-01  6.250000e-02
   endloop
 endfacet
 facet normal -1.045285e-01 -9.945219e-01  0.000000e+00
   outer loop
     vertex  5.606165e-01  2.041387e-01  0.000000e+00
     vertex  6.455022e-01  1.952169e-01  6.250000e-02
     vertex  5.606165e-01  2.041387e-01  6.250000e-02
   endloop
 endfacet
 facet normal -1.045285e-01 -9.945219e-01  0.000000e+00
   outer loop
     vertex  5.606165e-01  2.041387e-01  0.000000e+00
     vertex  6.455022e-01  1.952169e-01  0.000000e+00
     vertex  6.455022e-01  1.952169e-01  6.250000e-02
   endloop
 endfacet
 facet normal  3.090170e-01 -9.510565e-01  0.000000e+00
   outer loop
     vertex  4.794408e-01  1.777631e-01  0.000000e+00
     vertex  5.606165e-01  2.041387e-01  6.250000e-02
     vertex  4.794408e-01  1.777631e-01  6.250000e-02
   endloop
 endfacet
 facet normal  3.090170e-01 -9.510565e-01  0.000000e+00
   outer loop
     vertex  4.794408e-01  1.777631e-01  0.000000e+00
     vertex  5.606165e-01  2.041387e-01  0.000000e+00
     vertex  5.606165e-01  2.041387e-01  6.250000e-02
   endloop
 endfacet
 facet normal  6.691306e-01 -7.431448e-01  0.000000e+00
   outer loop
     vertex  4.160110e-01  1.206507e-01  0.000000e+00
     vertex  4.794408e-01  1.777631e-01  6.250000e-02
     vertex  4.160110e-01  1.206507e-01  6.250000e-02
   endloop
 endfacet
 facet normal  6.691306e-01 -7.431448e-01  0.000000e+00
   outer loop
     vertex  4.160110e-01  1.206507e-01  0.000000e+00
     vertex  4.794408e-01  1.777631e-01  0.000000e+00
     vertex  4.794408e-01  1.777631e-01  6.250000e-02
   endloop
 endfacet
 facet normal  9.135455e-01 -4.067366e-01  0.000000e+00
   outer loop
     vertex  3.812947e-01  4.267661e-02  0.000000e+00
     vertex  4.160110e-01  1.206507e-01  6.250000e-02
     vertex  3.812947e-01  4.267661e-02  6.250000e-02
   endloop
 endfacet
 facet normal  9.135455e-01 -4.067366e-01  0.000000e+00
   outer loop
     vertex  3.812947e-01  4.267661e-02  0.000000e+00
     vertex  4.160110e-01  1.206507e-01  0.000000e+00
     vertex  4.160110e-01  1.206507e-01  6.250000e-02
   endloop
 endfacet
 facet normal  1.000000e+00  0.000000e+00  0.000000e+00
   outer loop
     vertex  3.812947e-01 -4.267661e-02  0.000000e+00
     vertex  3.812947e-01  4.267661e-02  6.250000e-02
     vertex  3.812947e-01 -4.267661e-02  6.250000e-02
   endloop
 endfacet
 facet normal  1.000000e+00  0.000000e+00  0.000000e+00
   outer loop
     vertex  3.812947e-01 -4.267661e-02  0.000000e+00
     vertex  3.812947e-01  4.267661e-02  0.000000e+00
     vertex  3.812947e-01  4.267661e-02  6.250000e-02
   endloop
 endfacet
 facet normal  9.135455e-01  4.067366e-01 -0.000000e+00
   outer loop
     vertex  4.160110e-01 -1.206507e-01  0.000000e+00
     vertex  3.812947e-01 -4.267661e-02  6.250000e-02
     vertex  4.160110e-01 -1.206507e-01  6.250000e-02
   endloop
 endfacet
 facet normal  9.135455e-01  4.067366e-01  0.000000e+00
   outer loop
     vertex  4.160110e-01 -1.206507e-01  0.000000e+00
     vertex  3.812947e-01 -4.267661e-02  0.000000e+00
     vertex  3.812947e-01 -4.267661e-02  6.250000e-02
   endloop
 endfacet
 facet normal  6.691306e-01  7.431448e-01 -0.000000e+00
   outer loop
     vertex  4.794408e-01 -1.777631e-01  0.000000e+00
     vertex  4.160110e-01 -1.206507e-01  6.250000e-02
     vertex  4.794408e-01 -1.777631e-01  6.250000e-02
   endloop
 endfacet
 facet normal  6.691306e-01  7.431448e-01  0.000000e+00
   outer loop
     vertex  4.794408e-01 -1.777631e-01  0.000000e+00
     vertex  4.160110e-01 -1.206507e-01  0.000000e+00
     vertex  4.160110e-01 -1.206507e-01  6.250000e-02
   endloop
 endfacet
 facet normal  3.090170e-01  9.510565e-01 -0.000000e+00
   outer loop
     vertex  5.606165e-01 -2.041387e-01  0.000000e+00
     vertex  4.794408e-01 -1.777631e-01  6.250000e-02
     vertex  5.606165e-01 -2.041387e-01  6.250000e-02
   endloop
 endfacet
 facet normal  3.090170e-01  9.510565e-01  0.000000e+00
   outer loop
     vertex  5.606165e-01 -2.041387e-01  0.000000e+00
     vertex  4.794408e-01 -1.777631e-01  0.000000e+00
     vertex  4.794408e-01 -1.777631e-01  6.250000e-02
   endloop
 endfacet
 facet normal -1.045285e-01  9.945219e-01  0.000000e+00
   outer loop
     vertex  6.455022e-01 -1.952169e-01  0.000000e+00
     vertex  5.606165e-01 -2.041387e-01  6.250000e-02
     vertex  6.455022e-01 -1.952169e-01  6.250000e-02
   endloop
 endfacet
 facet normal -1.045285e-01  9.945219e-01  0.000000e+00
   outer loop
     vertex  6.455022e-01 -1.952169e-01  0.000000e+00
     vertex  5.606165e-01 -2.041387e-01  0.000000e+00
     vertex  5.606165e-01 -2.041387e-01  6.250000e-02
   endloop
 endfacet
 facet normal -5.000000e-01  8.660254e-01  0.000000e+00
   outer loop
     vertex  7.194202e-01 -1.525403e-01  0.000000e+00
     vertex  6.455022e-01 -1.952169e-01  6.250000e-02
     vertex  7.194202e-01 -1.525403e-01  6.250000e-02
   endloop
 endfacet
 facet normal -8.090170e-01  5.877853e-01  0.000000e+00
   outer loop
     vertex  7.194202e-01 -1.525403e-01  0.000000e+00
     vertex  7.194202e-01 -1.525403e-01  6.250000e-02
     vertex  7.695896e-01 -8.348805e-02  6.250000e-02
   endloop
 endfacet
 facet normal -5.000000e-01  8.660254e-01  0.000000e+00
   outer loop
     vertex  7.194202e-01 -1.525403e-01  0.000000e+00
     vertex  6.455022e-01 -1.952169e-01  0.000000e+00
     vertex  6.455022e-01 -1.952169e-01  6.250000e-02
   endloop
 endfacet
 facet normal -8.090170e-01  5.877853e-01  0.000000e+00
   outer loop
     vertex  7.695896e-01 -8.348805e-02  0.000000e+00
     vertex  7.194202e-01 -1.525403e-01  0.000000e+00
     vertex  7.695896e-01 -8.348805e-02  6.250000e-02
   endloop
 endfacet
 facet normal -9.781476e-01  2.079117e-01  0.000000e+00
   outer loop
     vertex  7.873355e-01  0.000000e+00  0.000000e+00
     vertex  7.695896e-01 -8.348805e-02  6.250000e-02
     vertex  7.873355e-01  0.000000e+00  6.250000e-02
   endloop
 endfacet
 facet normal -9.781476e-01  2.079117e-01  0.000000e+00
   outer loop
     vertex  7.873355e-01  0.000000e+00  0.000000e+00
     vertex  7.695896e-01 -8.348805e-02  0.000000e+00
     vertex  7.695896e-01 -8.348805e-02  6.250000e-02
   endloop
 endfacet
 facet normal -0.000000e+00  0.000000e+00 -1.000000e+00
   outer loop
     vertex  4.160110e-01 -1.206507e-01  0.000000e+00
     vertex  3.925987e-01 -3.236842e-01  0.000000e+00
     vertex  2.031250e-01  0.000000e+00  0.000000e+00
   endloop
 endfacet
 facet normal -0.000000e+00  0.000000e+00 -1.000000e+00
   outer loop
     vertex  4.794408e-01 -1.777631e-01  0.000000e+00
     vertex  3.925987e-01 -3.236842e-01  0.000000e+00
     vertex  4.160110e-01 -1.206507e-01  0.000000e+00
   endloop
 endfacet
 facet normal -0.000000e+00 -0.000000e+00 -1.000000e+00
   outer loop
     vertex  3.812947e-01 -4.267661e-02  0.000000e+00
     vertex  4.160110e-01 -1.206507e-01  0.000000e+00
     vertex  2.031250e-01  0.000000e+00  0.000000e+00
   endloop
 endfacet
 facet normal -0.000000e+00  0.000000e+00 -1.000000e+00
   outer loop
     vertex  5.606165e-01 -2.041387e-01  0.000000e+00
     vertex  3.925987e-01 -3.236842e-01  0.000000e+00
     vertex  4.794408e-01 -1.777631e-01  0.000000e+00
   endloop
 endfacet
 facet normal  0.000000e+00 -0.000000e+00 -1.000000e+00
   outer loop
     vertex  3.812947e-01  4.267661e-02  0.000000e+00
     vertex  3.812947e-01 -4.267661e-02  0.000000e+00
     vertex  2.031250e-01  0.000000e+00  0.000000e+00
   endloop
 endfacet
 facet normal  0.000000e+00  0.000000e+00 -1.000000e+00
   outer loop
     vertex  7.636513e-01 -3.236842e-01  0.000000e+00
     vertex  3.925987e-01 -3.236842e-01  0.000000e+00
     vertex  5.606165e-01 -2.041387e-01  0.000000e+00
   endloop
 endfacet
 facet normal  0.000000e+00 -0.000000e+00 -1.000000e+00
   outer loop
     vertex  6.455022e-01 -1.952169e-01  0.000000e+00
     vertex  7.636513e-01 -3.236842e-01  0.000000e+00
     vertex  5.606165e-01 -2.041387e-01  0.000000e+00
   endloop
 endfacet
 facet normal  0.000000e+00  0.000000e+00 -1.000000e+00
   outer loop
     vertex  4.160110e-01  1.206507e-01  0.000000e+00
     vertex  3.812947e-01  4.267661e-02  0.000000e+00
     vertex  2.031250e-01  0.000000e+00  0.000000e+00
   endloop
 endfacet
 facet normal  0.000000e+00 -0.000000e+00 -1.000000e+00
   outer loop
     vertex  7.194202e-01 -1.525403e-01  0.000000e+00
     vertex  7.636513e-01 -3.236842e-01  0.000000e+00
     vertex  6.455022e-01 -1.952169e-01  0.000000e+00
   endloop
 endfacet
 facet normal  0.000000e+00  0.000000e+00 -1.000000e+00
   outer loop
     vertex  7.695896e-01 -8.348805e-02  0.000000e+00
     vertex  7.636513e-01 -3.236842e-01  0.000000e+00
     vertex  7.194202e-01 -1.525403e-01  0.000000e+00
   endloop
 endfacet
 facet normal  0.000000e+00  0.000000e+00 -1.000000e+00
   outer loop
     vertex  3.925987e-01  3.236842e-01  0.000000e+00
     vertex  4.794408e-01  1.777631e-01  0.000000e+00
     vertex  4.160110e-01  1.206507e-01  0.000000e+00
   endloop
 endfacet
 facet normal  0.000000e+00 -0.000000e+00 -1.000000e+00
   outer loop
     vertex  3.925987e-01  3.236842e-01  0.000000e+00
     vertex  4.160110e-01  1.206507e-01  0.000000e+00
     vertex  2.031250e-01  0.000000e+00  0.000000e+00
   endloop
 endfacet
 facet normal -0.000000e+00  0.000000e+00 -1.000000e+00
   outer loop
     vertex  5.606165e-01  2.041387e-01  0.000000e+00
     vertex  4.794408e-01  1.777631e-01  0.000000e+00
     vertex  3.925987e-01  3.236842e-01  0.000000e+00
   endloop
 endfacet
 facet normal  0.000000e+00  0.000000e+00 -1.000000e+00
   outer loop
     vertex  9.531250e-01  0.000000e+00  0.000000e+00
     vertex  7.873355e-01  0.000000e+00  0.000000e+00
     vertex  7.695896e-01  8.348805e-02  0.000000e+00
   endloop
 endfacet
 facet normal -0.000000e+00  0.000000e+00 -1.000000e+00
   outer loop
     vertex  9.531250e-01  0.000000e+00  0.000000e+00
     vertex  7.695896e-01 -8.348805e-02  0.000000e+00
     vertex  7.873355e-01  0.000000e+00  0.000000e+00
   endloop
 endfacet
 facet normal  0.000000e+00  0.000000e+00 -1.000000e+00
   outer loop
     vertex  9.531250e-01  0.000000e+00  0.000000e+00
     vertex  7.636513e-01 -3.236842e-01  0.000000e+00
     vertex  7.695896e-01 -8.348805e-02  0.000000e+00
   endloop
 endfacet
 facet normal  0.000000e+00 -0.000000e+00 -1.000000e+00
   outer loop
     vertex  7.636513e-01  3.236842e-01  0.000000e+00
     vertex  7.695896e-01  8.348805e-02  0.000000e+00
     vertex  7.194202e-01  1.525403e-01  0.000000e+00
   endloop
 endfacet
 facet normal  0.000000e+00  0.000000e+00 -1.000000e+00
   outer loop
     vertex  7.636513e-01  3.236842e-01  0.000000e+00
     vertex  7.194202e-01  1.525403e-01  0.000000e+00
     vertex  6.455022e-01  1.952169e-01  0.000000e+00
   endloop
 endfacet
 facet normal  0.000000e+00  0.000000e+00 -1.000000e+00
   outer loop
     vertex  7.636513e-01  3.236842e-01  0.000000e+00
     vertex  6.455022e-01  1.952169e-01  0.000000e+00
     vertex  5.606165e-01  2.041387e-01  0.000000e+00
   endloop
 endfacet
 facet normal -0.000000e+00  0.000000e+00 -1.000000e+00
   outer loop
     vertex  7.636513e-01  3.236842e-01  0.000000e+00
     vertex  5.606165e-01  2.041387e-01  0.000000e+00
     vertex  3.925987e-01  3.236842e-01  0.000000e+00
   endloop
 endfacet
 facet normal  0.000000e+00  0.000000e+00 -1.000000e+00
   outer loop
     vertex  7.636513e-01  3.236842e-01  0.000000e+00
     vertex  9.531250e-01  0.000000e+00  0.000000e+00
     vertex  7.695896e-01  8.348805e-02  0.000000e+00
   endloop
 endfacet
 facet normal  0.000000e+00  0.000000e+00  1.000000e+00
   outer loop
     vertex  4.160110e-01 -1.206507e-01  6.250000e-02
     vertex  2.031250e-01  0.000000e+00  6.250000e-02
     vertex  3.925987e-01 -3.236842e-01  6.250000e-02
   endloop
 endfacet
 facet normal  0.000000e+00  0.000000e+00  1.000000e+00
   outer loop
     vertex  4.794408e-01 -1.777631e-01  6.250000e-02
     vertex  4.160110e-01 -1.206507e-01  6.250000e-02
     vertex  3.925987e-01 -3.236842e-01  6.250000e-02
   endloop
 endfacet
 facet normal  0.000000e+00  0.000000e+00  1.000000e+00
   outer loop
     vertex  3.812947e-01 -4.267661e-02  6.250000e-02
     vertex  2.031250e-01  0.000000e+00  6.250000e-02
     vertex  4.160110e-01 -1.206507e-01  6.250000e-02
   endloop
 endfacet
 facet normal  0.000000e+00  0.000000e+00  1.000000e+00
   outer loop
     vertex  5.606165e-01 -2.041387e-01  6.250000e-02
     vertex  4.794408e-01 -1.777631e-01  6.250000e-02
     vertex  3.925987e-01 -3.236842e-01  6.250000e-02
   endloop
 endfacet
 facet normal  0.000000e+00  0.000000e+00  1.000000e+00
   outer loop
     vertex  3.812947e-01  4.267661e-02  6.250000e-02
     vertex  2.031250e-01  0.000000e+00  6.250000e-02
     vertex  3.812947e-01 -4.267661e-02  6.250000e-02
   endloop
 endfacet
 facet normal  0.000000e+00  0.000000e+00  1.000000e+00
   outer loop
     vertex  7.636513e-01 -3.236842e-01  6.250000e-02
     vertex  5.606165e-01 -2.041387e-01  6.250000e-02
     vertex  3.925987e-01 -3.236842e-01  6.250000e-02
   endloop
 endfacet
 facet normal  0.000000e+00  0.000000e+00  1.000000e+00
   outer loop
     vertex  6.455022e-01 -1.952169e-01  6.250000e-02
     vertex  5.606165e-01 -2.041387e-01  6.250000e-02
     vertex  7.636513e-01 -3.236842e-01  6.250000e-02
   endloop
 endfacet
 facet normal  0.000000e+00  0.000000e+00  1.000000e+00
   outer loop
     vertex  4.160110e-01  1.206507e-01  6.250000e-02
     vertex  2.031250e-01  0.000000e+00  6.250000e-02
     vertex  3.812947e-01  4.267661e-02  6.250000e-02
   endloop
 endfacet
 facet normal  0.000000e+00  0.000000e+00  1.000000e+00
   outer loop
     vertex  7.194202e-01 -1.525403e-01  6.250000e-02
     vertex  6.455022e-01 -1.952169e-01  6.250000e-02
     vertex  7.636513e-01 -3.236842e-01  6.250000e-02
   endloop
 endfacet
 facet normal  0.000000e+00  0.000000e+00  1.000000e+00
   outer loop
     vertex  7.695896e-01 -8.348805e-02  6.250000e-02
     vertex  7.194202e-01 -1.525403e-01  6.250000e-02
     vertex  7.636513e-01 -3.236842e-01  6.250000e-02
   endloop
 endfacet
 facet normal  0.000000e+00  0.000000e+00  1.000000e+00
   outer loop
     vertex  3.925987e-01  3.236842e-01  6.250000e-02
     vertex  4.160110e-01  1.206507e-01  6.250000e-02
     vertex  4.794408e-01  1.777631e-01  6.250000e-02
   endloop
 endfacet
 facet normal  0.000000e+00  0.000000e+00  1.000000e+00
   outer loop
     vertex  3.925987e-01  3.236842e-01  6.250000e-02
     vertex  2.031250e-01  0.000000e+00  6.250000e-02
     vertex  4.160110e-01  1.206507e-01  6.250000e-02
   endloop
 endfacet
 facet normal  0.000000e+00  0.000000e+00  1.000000e+00
   outer loop
     vertex  5.606165e-01  2.041387e-01  6.250000e-02
     vertex  3.925987e-01  3.236842e-01  6.250000e-02
     vertex  4.794408e-01  1.777631e-01  6.250000e-02
   endloop
 endfacet
 facet normal  0.000000e+00  0.000000e+00  1.000000e+00
   outer loop
     vertex  9.531250e-01  0.000000e+00  6.250000e-02
     vertex  7.695896e-01  8.348805e-02  6.250000e-02
     vertex  7.873355e-01  0.000000e+00  6.250000e-02
   endloop
 endfacet
 facet normal  0.000000e+00  0.000000e+00  1.000000e+00
   outer loop
     vertex  9.531250e-01  0.000000e+00  6.250000e-02
     vertex  7.873355e-01  0.000000e+00  6.250000e-02
     vertex  7.695896e-01 -8.348805e-02  6.250000e-02
   endloop
 endfacet
 facet normal  0.000000e+00  0.000000e+00  1.000000e+00
   outer loop
     vertex  9.531250e-01  0.000000e+00  6.250000e-02
     vertex  7.695896e-01 -8.348805e-02  6.250000e-02
     vertex  7.636513e-01 -3.236842e-01  6.250000e-02
   endloop
 endfacet
 facet normal  0.000000e+00  0.000000e+00  1.000000e+00
   outer loop
     vertex  7.636513e-01  3.236842e-01  6.250000e-02
     vertex  7.194202e-01  1.525403e-01  6.250000e-02
     vertex  7.695896e-01  8.348805e-02  6.250000e-02
   endloop
 endfacet
 facet normal  0.000000e+00  0.000000e+00  1.000000e+00
   outer loop
     vertex  7.636513e-01  3.236842e-01  6.250000e-02
     vertex  6.455022e-01  1.952169e-01  6.250000e-02
     vertex  7.194202e-01  1.525403e-01  6.250000e-02
   endloop
 endfacet
 facet normal  0.000000e+00  0.000000e+00  1.000000e+00
   outer loop
     vertex  7.636513e-01  3.236842e-01  6.250000e-02
     vertex  5.606165e-01  2.041387e-01  6.250000e-02
     vertex  6.455022e-01  1.952169e-01  6.250000e-02
   endloop
 endfacet
 facet normal  0.000000e+00  0.000000e+00  1.000000e+00
   outer loop
     vertex  7.636513e-01  3.236842e-01  6.250000e-02
     vertex  3.925987e-01  3.236842e-01  6.250000e-02
     vertex  5.606165e-01  2.041387e-01  6.250000e-02
   endloop
 endfacet
 facet normal  0.000000e+00  0.000000e+00  1.000000e+00
   outer loop
     vertex  7.636513e-01  3.236842e-01  6.250000e-02
     vertex  7.695896e-01  8.348805e-02  6.250000e-02
     vertex  9.531250e-01  0.000000e+00  6.250000e-02
   endloop
 endfacet
endsolid
